G04 #@! TF.GenerationSoftware,KiCad,Pcbnew,(5.1.0)-1*
G04 #@! TF.CreationDate,2022-11-08T16:58:41+01:00*
G04 #@! TF.ProjectId,DualPressure_V1,4475616c-5072-4657-9373-7572655f5631,rev?*
G04 #@! TF.SameCoordinates,Original*
G04 #@! TF.FileFunction,Soldermask,Top*
G04 #@! TF.FilePolarity,Negative*
%FSLAX46Y46*%
G04 Gerber Fmt 4.6, Leading zero omitted, Abs format (unit mm)*
G04 Created by KiCad (PCBNEW (5.1.0)-1) date 2022-11-08 16:58:41*
%MOMM*%
%LPD*%
G04 APERTURE LIST*
%ADD10C,0.100000*%
G04 APERTURE END LIST*
D10*
G36*
X132051000Y-110751000D02*
G01*
X129449000Y-110751000D01*
X129449000Y-108649000D01*
X132051000Y-108649000D01*
X132051000Y-110751000D01*
X132051000Y-110751000D01*
G37*
G36*
X126551000Y-110751000D02*
G01*
X123949000Y-110751000D01*
X123949000Y-108649000D01*
X126551000Y-108649000D01*
X126551000Y-110751000D01*
X126551000Y-110751000D01*
G37*
G36*
X160851000Y-109801000D02*
G01*
X158649000Y-109801000D01*
X158649000Y-108199000D01*
X160851000Y-108199000D01*
X160851000Y-109801000D01*
X160851000Y-109801000D01*
G37*
G36*
X165051000Y-109801000D02*
G01*
X162849000Y-109801000D01*
X162849000Y-108199000D01*
X165051000Y-108199000D01*
X165051000Y-109801000D01*
X165051000Y-109801000D01*
G37*
G36*
X178629487Y-107248996D02*
G01*
X178866253Y-107347068D01*
X178866255Y-107347069D01*
X179079339Y-107489447D01*
X179260553Y-107670661D01*
X179402932Y-107883747D01*
X179501004Y-108120513D01*
X179551000Y-108371861D01*
X179551000Y-108628139D01*
X179501004Y-108879487D01*
X179402932Y-109116253D01*
X179402931Y-109116255D01*
X179260553Y-109329339D01*
X179079339Y-109510553D01*
X178866255Y-109652931D01*
X178866254Y-109652932D01*
X178866253Y-109652932D01*
X178629487Y-109751004D01*
X178378139Y-109801000D01*
X178121861Y-109801000D01*
X177870513Y-109751004D01*
X177633747Y-109652932D01*
X177633746Y-109652932D01*
X177633745Y-109652931D01*
X177420661Y-109510553D01*
X177239447Y-109329339D01*
X177097069Y-109116255D01*
X177097068Y-109116253D01*
X176998996Y-108879487D01*
X176949000Y-108628139D01*
X176949000Y-108371861D01*
X176998996Y-108120513D01*
X177097068Y-107883747D01*
X177239447Y-107670661D01*
X177420661Y-107489447D01*
X177633745Y-107347069D01*
X177633747Y-107347068D01*
X177870513Y-107248996D01*
X178121861Y-107199000D01*
X178378139Y-107199000D01*
X178629487Y-107248996D01*
X178629487Y-107248996D01*
G37*
G36*
X174629487Y-107248996D02*
G01*
X174866253Y-107347068D01*
X174866255Y-107347069D01*
X175079339Y-107489447D01*
X175260553Y-107670661D01*
X175402932Y-107883747D01*
X175501004Y-108120513D01*
X175551000Y-108371861D01*
X175551000Y-108628139D01*
X175501004Y-108879487D01*
X175402932Y-109116253D01*
X175402931Y-109116255D01*
X175260553Y-109329339D01*
X175079339Y-109510553D01*
X174866255Y-109652931D01*
X174866254Y-109652932D01*
X174866253Y-109652932D01*
X174629487Y-109751004D01*
X174378139Y-109801000D01*
X174121861Y-109801000D01*
X173870513Y-109751004D01*
X173633747Y-109652932D01*
X173633746Y-109652932D01*
X173633745Y-109652931D01*
X173420661Y-109510553D01*
X173239447Y-109329339D01*
X173097069Y-109116255D01*
X173097068Y-109116253D01*
X172998996Y-108879487D01*
X172949000Y-108628139D01*
X172949000Y-108371861D01*
X172998996Y-108120513D01*
X173097068Y-107883747D01*
X173239447Y-107670661D01*
X173420661Y-107489447D01*
X173633745Y-107347069D01*
X173633747Y-107347068D01*
X173870513Y-107248996D01*
X174121861Y-107199000D01*
X174378139Y-107199000D01*
X174629487Y-107248996D01*
X174629487Y-107248996D01*
G37*
G36*
X182629487Y-107248996D02*
G01*
X182866253Y-107347068D01*
X182866255Y-107347069D01*
X183079339Y-107489447D01*
X183260553Y-107670661D01*
X183402932Y-107883747D01*
X183501004Y-108120513D01*
X183551000Y-108371861D01*
X183551000Y-108628139D01*
X183501004Y-108879487D01*
X183402932Y-109116253D01*
X183402931Y-109116255D01*
X183260553Y-109329339D01*
X183079339Y-109510553D01*
X182866255Y-109652931D01*
X182866254Y-109652932D01*
X182866253Y-109652932D01*
X182629487Y-109751004D01*
X182378139Y-109801000D01*
X182121861Y-109801000D01*
X181870513Y-109751004D01*
X181633747Y-109652932D01*
X181633746Y-109652932D01*
X181633745Y-109652931D01*
X181420661Y-109510553D01*
X181239447Y-109329339D01*
X181097069Y-109116255D01*
X181097068Y-109116253D01*
X180998996Y-108879487D01*
X180949000Y-108628139D01*
X180949000Y-108371861D01*
X180998996Y-108120513D01*
X181097068Y-107883747D01*
X181239447Y-107670661D01*
X181420661Y-107489447D01*
X181633745Y-107347069D01*
X181633747Y-107347068D01*
X181870513Y-107248996D01*
X182121861Y-107199000D01*
X182378139Y-107199000D01*
X182629487Y-107248996D01*
X182629487Y-107248996D01*
G37*
G36*
X137238674Y-105753465D02*
G01*
X137276367Y-105764899D01*
X137311103Y-105783466D01*
X137341548Y-105808452D01*
X137366534Y-105838897D01*
X137385101Y-105873633D01*
X137396535Y-105911326D01*
X137401000Y-105956661D01*
X137401000Y-107043339D01*
X137396535Y-107088674D01*
X137385101Y-107126367D01*
X137366534Y-107161103D01*
X137341548Y-107191548D01*
X137311103Y-107216534D01*
X137276367Y-107235101D01*
X137238674Y-107246535D01*
X137193339Y-107251000D01*
X136356661Y-107251000D01*
X136311326Y-107246535D01*
X136273633Y-107235101D01*
X136238897Y-107216534D01*
X136208452Y-107191548D01*
X136183466Y-107161103D01*
X136164899Y-107126367D01*
X136153465Y-107088674D01*
X136149000Y-107043339D01*
X136149000Y-105956661D01*
X136153465Y-105911326D01*
X136164899Y-105873633D01*
X136183466Y-105838897D01*
X136208452Y-105808452D01*
X136238897Y-105783466D01*
X136273633Y-105764899D01*
X136311326Y-105753465D01*
X136356661Y-105749000D01*
X137193339Y-105749000D01*
X137238674Y-105753465D01*
X137238674Y-105753465D01*
G37*
G36*
X135188674Y-105753465D02*
G01*
X135226367Y-105764899D01*
X135261103Y-105783466D01*
X135291548Y-105808452D01*
X135316534Y-105838897D01*
X135335101Y-105873633D01*
X135346535Y-105911326D01*
X135351000Y-105956661D01*
X135351000Y-107043339D01*
X135346535Y-107088674D01*
X135335101Y-107126367D01*
X135316534Y-107161103D01*
X135291548Y-107191548D01*
X135261103Y-107216534D01*
X135226367Y-107235101D01*
X135188674Y-107246535D01*
X135143339Y-107251000D01*
X134306661Y-107251000D01*
X134261326Y-107246535D01*
X134223633Y-107235101D01*
X134188897Y-107216534D01*
X134158452Y-107191548D01*
X134133466Y-107161103D01*
X134114899Y-107126367D01*
X134103465Y-107088674D01*
X134099000Y-107043339D01*
X134099000Y-105956661D01*
X134103465Y-105911326D01*
X134114899Y-105873633D01*
X134133466Y-105838897D01*
X134158452Y-105808452D01*
X134188897Y-105783466D01*
X134223633Y-105764899D01*
X134261326Y-105753465D01*
X134306661Y-105749000D01*
X135143339Y-105749000D01*
X135188674Y-105753465D01*
X135188674Y-105753465D01*
G37*
G36*
X132051000Y-107151000D02*
G01*
X129649000Y-107151000D01*
X129649000Y-103349000D01*
X132051000Y-103349000D01*
X132051000Y-107151000D01*
X132051000Y-107151000D01*
G37*
G36*
X147421934Y-103952671D02*
G01*
X147451877Y-103961754D01*
X147479465Y-103976500D01*
X147503651Y-103996349D01*
X147523500Y-104020535D01*
X147538246Y-104048123D01*
X147547329Y-104078066D01*
X147551000Y-104115340D01*
X147551000Y-106384660D01*
X147547329Y-106421934D01*
X147538246Y-106451877D01*
X147523500Y-106479465D01*
X147503651Y-106503651D01*
X147479465Y-106523500D01*
X147451877Y-106538246D01*
X147421934Y-106547329D01*
X147384660Y-106551000D01*
X143215340Y-106551000D01*
X143178066Y-106547329D01*
X143148123Y-106538246D01*
X143120535Y-106523500D01*
X143096349Y-106503651D01*
X143076500Y-106479465D01*
X143061754Y-106451877D01*
X143052671Y-106421934D01*
X143049000Y-106384660D01*
X143049000Y-104115340D01*
X143052671Y-104078066D01*
X143061754Y-104048123D01*
X143076500Y-104020535D01*
X143096349Y-103996349D01*
X143120535Y-103976500D01*
X143148123Y-103961754D01*
X143178066Y-103952671D01*
X143215340Y-103949000D01*
X147384660Y-103949000D01*
X147421934Y-103952671D01*
X147421934Y-103952671D01*
G37*
G36*
X155821934Y-103952671D02*
G01*
X155851877Y-103961754D01*
X155879465Y-103976500D01*
X155903651Y-103996349D01*
X155923500Y-104020535D01*
X155938246Y-104048123D01*
X155947329Y-104078066D01*
X155951000Y-104115340D01*
X155951000Y-106384660D01*
X155947329Y-106421934D01*
X155938246Y-106451877D01*
X155923500Y-106479465D01*
X155903651Y-106503651D01*
X155879465Y-106523500D01*
X155851877Y-106538246D01*
X155821934Y-106547329D01*
X155784660Y-106551000D01*
X151615340Y-106551000D01*
X151578066Y-106547329D01*
X151548123Y-106538246D01*
X151520535Y-106523500D01*
X151496349Y-106503651D01*
X151476500Y-106479465D01*
X151461754Y-106451877D01*
X151452671Y-106421934D01*
X151449000Y-106384660D01*
X151449000Y-104115340D01*
X151452671Y-104078066D01*
X151461754Y-104048123D01*
X151476500Y-104020535D01*
X151496349Y-103996349D01*
X151520535Y-103976500D01*
X151548123Y-103961754D01*
X151578066Y-103952671D01*
X151615340Y-103949000D01*
X155784660Y-103949000D01*
X155821934Y-103952671D01*
X155821934Y-103952671D01*
G37*
G36*
X160213674Y-105003465D02*
G01*
X160251367Y-105014899D01*
X160286103Y-105033466D01*
X160316548Y-105058452D01*
X160341534Y-105088897D01*
X160360101Y-105123633D01*
X160371535Y-105161326D01*
X160376000Y-105206661D01*
X160376000Y-106293339D01*
X160371535Y-106338674D01*
X160360101Y-106376367D01*
X160341534Y-106411103D01*
X160316548Y-106441548D01*
X160286103Y-106466534D01*
X160251367Y-106485101D01*
X160213674Y-106496535D01*
X160168339Y-106501000D01*
X159331661Y-106501000D01*
X159286326Y-106496535D01*
X159248633Y-106485101D01*
X159213897Y-106466534D01*
X159183452Y-106441548D01*
X159158466Y-106411103D01*
X159139899Y-106376367D01*
X159128465Y-106338674D01*
X159124000Y-106293339D01*
X159124000Y-105206661D01*
X159128465Y-105161326D01*
X159139899Y-105123633D01*
X159158466Y-105088897D01*
X159183452Y-105058452D01*
X159213897Y-105033466D01*
X159248633Y-105014899D01*
X159286326Y-105003465D01*
X159331661Y-104999000D01*
X160168339Y-104999000D01*
X160213674Y-105003465D01*
X160213674Y-105003465D01*
G37*
G36*
X158163674Y-105003465D02*
G01*
X158201367Y-105014899D01*
X158236103Y-105033466D01*
X158266548Y-105058452D01*
X158291534Y-105088897D01*
X158310101Y-105123633D01*
X158321535Y-105161326D01*
X158326000Y-105206661D01*
X158326000Y-106293339D01*
X158321535Y-106338674D01*
X158310101Y-106376367D01*
X158291534Y-106411103D01*
X158266548Y-106441548D01*
X158236103Y-106466534D01*
X158201367Y-106485101D01*
X158163674Y-106496535D01*
X158118339Y-106501000D01*
X157281661Y-106501000D01*
X157236326Y-106496535D01*
X157198633Y-106485101D01*
X157163897Y-106466534D01*
X157133452Y-106441548D01*
X157108466Y-106411103D01*
X157089899Y-106376367D01*
X157078465Y-106338674D01*
X157074000Y-106293339D01*
X157074000Y-105206661D01*
X157078465Y-105161326D01*
X157089899Y-105123633D01*
X157108466Y-105088897D01*
X157133452Y-105058452D01*
X157163897Y-105033466D01*
X157198633Y-105014899D01*
X157236326Y-105003465D01*
X157281661Y-104999000D01*
X158118339Y-104999000D01*
X158163674Y-105003465D01*
X158163674Y-105003465D01*
G37*
G36*
X219163674Y-104753465D02*
G01*
X219201367Y-104764899D01*
X219236103Y-104783466D01*
X219266548Y-104808452D01*
X219291534Y-104838897D01*
X219310101Y-104873633D01*
X219321535Y-104911326D01*
X219326000Y-104956661D01*
X219326000Y-106043339D01*
X219321535Y-106088674D01*
X219310101Y-106126367D01*
X219291534Y-106161103D01*
X219266548Y-106191548D01*
X219236103Y-106216534D01*
X219201367Y-106235101D01*
X219163674Y-106246535D01*
X219118339Y-106251000D01*
X218281661Y-106251000D01*
X218236326Y-106246535D01*
X218198633Y-106235101D01*
X218163897Y-106216534D01*
X218133452Y-106191548D01*
X218108466Y-106161103D01*
X218089899Y-106126367D01*
X218078465Y-106088674D01*
X218074000Y-106043339D01*
X218074000Y-104956661D01*
X218078465Y-104911326D01*
X218089899Y-104873633D01*
X218108466Y-104838897D01*
X218133452Y-104808452D01*
X218163897Y-104783466D01*
X218198633Y-104764899D01*
X218236326Y-104753465D01*
X218281661Y-104749000D01*
X219118339Y-104749000D01*
X219163674Y-104753465D01*
X219163674Y-104753465D01*
G37*
G36*
X221213674Y-104753465D02*
G01*
X221251367Y-104764899D01*
X221286103Y-104783466D01*
X221316548Y-104808452D01*
X221341534Y-104838897D01*
X221360101Y-104873633D01*
X221371535Y-104911326D01*
X221376000Y-104956661D01*
X221376000Y-106043339D01*
X221371535Y-106088674D01*
X221360101Y-106126367D01*
X221341534Y-106161103D01*
X221316548Y-106191548D01*
X221286103Y-106216534D01*
X221251367Y-106235101D01*
X221213674Y-106246535D01*
X221168339Y-106251000D01*
X220331661Y-106251000D01*
X220286326Y-106246535D01*
X220248633Y-106235101D01*
X220213897Y-106216534D01*
X220183452Y-106191548D01*
X220158466Y-106161103D01*
X220139899Y-106126367D01*
X220128465Y-106088674D01*
X220124000Y-106043339D01*
X220124000Y-104956661D01*
X220128465Y-104911326D01*
X220139899Y-104873633D01*
X220158466Y-104838897D01*
X220183452Y-104808452D01*
X220213897Y-104783466D01*
X220248633Y-104764899D01*
X220286326Y-104753465D01*
X220331661Y-104749000D01*
X221168339Y-104749000D01*
X221213674Y-104753465D01*
X221213674Y-104753465D01*
G37*
G36*
X215025562Y-104715681D02*
G01*
X215060481Y-104726274D01*
X215092663Y-104743476D01*
X215120873Y-104766627D01*
X215144024Y-104794837D01*
X215161226Y-104827019D01*
X215171819Y-104861938D01*
X215176000Y-104904395D01*
X215176000Y-106045605D01*
X215171819Y-106088062D01*
X215161226Y-106122981D01*
X215144024Y-106155163D01*
X215120873Y-106183373D01*
X215092663Y-106206524D01*
X215060481Y-106223726D01*
X215025562Y-106234319D01*
X214983105Y-106238500D01*
X213516895Y-106238500D01*
X213474438Y-106234319D01*
X213439519Y-106223726D01*
X213407337Y-106206524D01*
X213379127Y-106183373D01*
X213355976Y-106155163D01*
X213338774Y-106122981D01*
X213328181Y-106088062D01*
X213324000Y-106045605D01*
X213324000Y-104904395D01*
X213328181Y-104861938D01*
X213338774Y-104827019D01*
X213355976Y-104794837D01*
X213379127Y-104766627D01*
X213407337Y-104743476D01*
X213439519Y-104726274D01*
X213474438Y-104715681D01*
X213516895Y-104711500D01*
X214983105Y-104711500D01*
X215025562Y-104715681D01*
X215025562Y-104715681D01*
G37*
G36*
X135188674Y-103503465D02*
G01*
X135226367Y-103514899D01*
X135261103Y-103533466D01*
X135291548Y-103558452D01*
X135316534Y-103588897D01*
X135335101Y-103623633D01*
X135346535Y-103661326D01*
X135351000Y-103706661D01*
X135351000Y-104793339D01*
X135346535Y-104838674D01*
X135335101Y-104876367D01*
X135316534Y-104911103D01*
X135291548Y-104941548D01*
X135261103Y-104966534D01*
X135226367Y-104985101D01*
X135188674Y-104996535D01*
X135143339Y-105001000D01*
X134306661Y-105001000D01*
X134261326Y-104996535D01*
X134223633Y-104985101D01*
X134188897Y-104966534D01*
X134158452Y-104941548D01*
X134133466Y-104911103D01*
X134114899Y-104876367D01*
X134103465Y-104838674D01*
X134099000Y-104793339D01*
X134099000Y-103706661D01*
X134103465Y-103661326D01*
X134114899Y-103623633D01*
X134133466Y-103588897D01*
X134158452Y-103558452D01*
X134188897Y-103533466D01*
X134223633Y-103514899D01*
X134261326Y-103503465D01*
X134306661Y-103499000D01*
X135143339Y-103499000D01*
X135188674Y-103503465D01*
X135188674Y-103503465D01*
G37*
G36*
X137238674Y-103503465D02*
G01*
X137276367Y-103514899D01*
X137311103Y-103533466D01*
X137341548Y-103558452D01*
X137366534Y-103588897D01*
X137385101Y-103623633D01*
X137396535Y-103661326D01*
X137401000Y-103706661D01*
X137401000Y-104793339D01*
X137396535Y-104838674D01*
X137385101Y-104876367D01*
X137366534Y-104911103D01*
X137341548Y-104941548D01*
X137311103Y-104966534D01*
X137276367Y-104985101D01*
X137238674Y-104996535D01*
X137193339Y-105001000D01*
X136356661Y-105001000D01*
X136311326Y-104996535D01*
X136273633Y-104985101D01*
X136238897Y-104966534D01*
X136208452Y-104941548D01*
X136183466Y-104911103D01*
X136164899Y-104876367D01*
X136153465Y-104838674D01*
X136149000Y-104793339D01*
X136149000Y-103706661D01*
X136153465Y-103661326D01*
X136164899Y-103623633D01*
X136183466Y-103588897D01*
X136208452Y-103558452D01*
X136238897Y-103533466D01*
X136273633Y-103514899D01*
X136311326Y-103503465D01*
X136356661Y-103499000D01*
X137193339Y-103499000D01*
X137238674Y-103503465D01*
X137238674Y-103503465D01*
G37*
G36*
X184913674Y-103253465D02*
G01*
X184951367Y-103264899D01*
X184986103Y-103283466D01*
X185016548Y-103308452D01*
X185041534Y-103338897D01*
X185060101Y-103373633D01*
X185071535Y-103411326D01*
X185076000Y-103456661D01*
X185076000Y-104543339D01*
X185071535Y-104588674D01*
X185060101Y-104626367D01*
X185041534Y-104661103D01*
X185016548Y-104691548D01*
X184986103Y-104716534D01*
X184951367Y-104735101D01*
X184913674Y-104746535D01*
X184868339Y-104751000D01*
X184031661Y-104751000D01*
X183986326Y-104746535D01*
X183948633Y-104735101D01*
X183913897Y-104716534D01*
X183883452Y-104691548D01*
X183858466Y-104661103D01*
X183839899Y-104626367D01*
X183828465Y-104588674D01*
X183824000Y-104543339D01*
X183824000Y-103456661D01*
X183828465Y-103411326D01*
X183839899Y-103373633D01*
X183858466Y-103338897D01*
X183883452Y-103308452D01*
X183913897Y-103283466D01*
X183948633Y-103264899D01*
X183986326Y-103253465D01*
X184031661Y-103249000D01*
X184868339Y-103249000D01*
X184913674Y-103253465D01*
X184913674Y-103253465D01*
G37*
G36*
X186963674Y-103253465D02*
G01*
X187001367Y-103264899D01*
X187036103Y-103283466D01*
X187066548Y-103308452D01*
X187091534Y-103338897D01*
X187110101Y-103373633D01*
X187121535Y-103411326D01*
X187126000Y-103456661D01*
X187126000Y-104543339D01*
X187121535Y-104588674D01*
X187110101Y-104626367D01*
X187091534Y-104661103D01*
X187066548Y-104691548D01*
X187036103Y-104716534D01*
X187001367Y-104735101D01*
X186963674Y-104746535D01*
X186918339Y-104751000D01*
X186081661Y-104751000D01*
X186036326Y-104746535D01*
X185998633Y-104735101D01*
X185963897Y-104716534D01*
X185933452Y-104691548D01*
X185908466Y-104661103D01*
X185889899Y-104626367D01*
X185878465Y-104588674D01*
X185874000Y-104543339D01*
X185874000Y-103456661D01*
X185878465Y-103411326D01*
X185889899Y-103373633D01*
X185908466Y-103338897D01*
X185933452Y-103308452D01*
X185963897Y-103283466D01*
X185998633Y-103264899D01*
X186036326Y-103253465D01*
X186081661Y-103249000D01*
X186918339Y-103249000D01*
X186963674Y-103253465D01*
X186963674Y-103253465D01*
G37*
G36*
X227441560Y-102289064D02*
G01*
X227593027Y-102319193D01*
X227807045Y-102407842D01*
X227807046Y-102407843D01*
X227999654Y-102536539D01*
X228163461Y-102700346D01*
X228219000Y-102783466D01*
X228292158Y-102892955D01*
X228380807Y-103106973D01*
X228380807Y-103106975D01*
X228426000Y-103334173D01*
X228426000Y-103565827D01*
X228410936Y-103641560D01*
X228380807Y-103793027D01*
X228292158Y-104007045D01*
X228267907Y-104043339D01*
X228163461Y-104199654D01*
X227999654Y-104363461D01*
X227871249Y-104449258D01*
X227807045Y-104492158D01*
X227593027Y-104580807D01*
X227441560Y-104610936D01*
X227365827Y-104626000D01*
X227134173Y-104626000D01*
X227058440Y-104610936D01*
X226906973Y-104580807D01*
X226692955Y-104492158D01*
X226628751Y-104449258D01*
X226500346Y-104363461D01*
X226336539Y-104199654D01*
X226232093Y-104043339D01*
X226207842Y-104007045D01*
X226119193Y-103793027D01*
X226089064Y-103641560D01*
X226074000Y-103565827D01*
X226074000Y-103334173D01*
X226119193Y-103106975D01*
X226119193Y-103106973D01*
X226207842Y-102892955D01*
X226281000Y-102783466D01*
X226336539Y-102700346D01*
X226500346Y-102536539D01*
X226692954Y-102407843D01*
X226692955Y-102407842D01*
X226906973Y-102319193D01*
X227058440Y-102289064D01*
X227134173Y-102274000D01*
X227365827Y-102274000D01*
X227441560Y-102289064D01*
X227441560Y-102289064D01*
G37*
G36*
X221213674Y-102753465D02*
G01*
X221251367Y-102764899D01*
X221286103Y-102783466D01*
X221316548Y-102808452D01*
X221341534Y-102838897D01*
X221360101Y-102873633D01*
X221371535Y-102911326D01*
X221376000Y-102956661D01*
X221376000Y-104043339D01*
X221371535Y-104088674D01*
X221360101Y-104126367D01*
X221341534Y-104161103D01*
X221316548Y-104191548D01*
X221286103Y-104216534D01*
X221251367Y-104235101D01*
X221213674Y-104246535D01*
X221168339Y-104251000D01*
X220331661Y-104251000D01*
X220286326Y-104246535D01*
X220248633Y-104235101D01*
X220213897Y-104216534D01*
X220183452Y-104191548D01*
X220158466Y-104161103D01*
X220139899Y-104126367D01*
X220128465Y-104088674D01*
X220124000Y-104043339D01*
X220124000Y-102956661D01*
X220128465Y-102911326D01*
X220139899Y-102873633D01*
X220158466Y-102838897D01*
X220183452Y-102808452D01*
X220213897Y-102783466D01*
X220248633Y-102764899D01*
X220286326Y-102753465D01*
X220331661Y-102749000D01*
X221168339Y-102749000D01*
X221213674Y-102753465D01*
X221213674Y-102753465D01*
G37*
G36*
X179637611Y-101762389D02*
G01*
X179656553Y-101777934D01*
X179678164Y-101789485D01*
X179701613Y-101796598D01*
X179725999Y-101799000D01*
X180676000Y-101799000D01*
X180676000Y-104201000D01*
X179725999Y-104201000D01*
X179701613Y-104203402D01*
X179678164Y-104210515D01*
X179656553Y-104222066D01*
X179637611Y-104237611D01*
X179626623Y-104251000D01*
X177873377Y-104251000D01*
X177862389Y-104237611D01*
X177843447Y-104222066D01*
X177821836Y-104210515D01*
X177798387Y-104203402D01*
X177774001Y-104201000D01*
X176824000Y-104201000D01*
X176824000Y-101799000D01*
X177774001Y-101799000D01*
X177798387Y-101796598D01*
X177821836Y-101789485D01*
X177843447Y-101777934D01*
X177862389Y-101762389D01*
X177873377Y-101749000D01*
X179626623Y-101749000D01*
X179637611Y-101762389D01*
X179637611Y-101762389D01*
G37*
G36*
X219163674Y-102753465D02*
G01*
X219201367Y-102764899D01*
X219236103Y-102783466D01*
X219266548Y-102808452D01*
X219291534Y-102838897D01*
X219310101Y-102873633D01*
X219321535Y-102911326D01*
X219326000Y-102956661D01*
X219326000Y-104043339D01*
X219321535Y-104088674D01*
X219310101Y-104126367D01*
X219291534Y-104161103D01*
X219266548Y-104191548D01*
X219236103Y-104216534D01*
X219201367Y-104235101D01*
X219163674Y-104246535D01*
X219118339Y-104251000D01*
X218281661Y-104251000D01*
X218236326Y-104246535D01*
X218198633Y-104235101D01*
X218163897Y-104216534D01*
X218133452Y-104191548D01*
X218108466Y-104161103D01*
X218089899Y-104126367D01*
X218078465Y-104088674D01*
X218074000Y-104043339D01*
X218074000Y-102956661D01*
X218078465Y-102911326D01*
X218089899Y-102873633D01*
X218108466Y-102838897D01*
X218133452Y-102808452D01*
X218163897Y-102783466D01*
X218198633Y-102764899D01*
X218236326Y-102753465D01*
X218281661Y-102749000D01*
X219118339Y-102749000D01*
X219163674Y-102753465D01*
X219163674Y-102753465D01*
G37*
G36*
X158655000Y-103881000D02*
G01*
X157537000Y-103881000D01*
X157537000Y-100729000D01*
X158655000Y-100729000D01*
X158655000Y-103881000D01*
X158655000Y-103881000D01*
G37*
G36*
X160357000Y-103881000D02*
G01*
X159239000Y-103881000D01*
X159239000Y-100729000D01*
X160357000Y-100729000D01*
X160357000Y-103881000D01*
X160357000Y-103881000D01*
G37*
G36*
X163761000Y-103881000D02*
G01*
X162643000Y-103881000D01*
X162643000Y-100729000D01*
X163761000Y-100729000D01*
X163761000Y-103881000D01*
X163761000Y-103881000D01*
G37*
G36*
X165463000Y-103881000D02*
G01*
X164345000Y-103881000D01*
X164345000Y-100729000D01*
X165463000Y-100729000D01*
X165463000Y-103881000D01*
X165463000Y-103881000D01*
G37*
G36*
X162059000Y-103881000D02*
G01*
X160941000Y-103881000D01*
X160941000Y-100729000D01*
X162059000Y-100729000D01*
X162059000Y-103881000D01*
X162059000Y-103881000D01*
G37*
G36*
X167916000Y-103676000D02*
G01*
X167164000Y-103676000D01*
X167164000Y-102524000D01*
X167916000Y-102524000D01*
X167916000Y-103676000D01*
X167916000Y-103676000D01*
G37*
G36*
X169836000Y-103676000D02*
G01*
X169084000Y-103676000D01*
X169084000Y-102524000D01*
X169836000Y-102524000D01*
X169836000Y-103676000D01*
X169836000Y-103676000D01*
G37*
G36*
X172364499Y-102428445D02*
G01*
X172401995Y-102439820D01*
X172436554Y-102458292D01*
X172466847Y-102483153D01*
X172491708Y-102513446D01*
X172510180Y-102548005D01*
X172521555Y-102585501D01*
X172526000Y-102630638D01*
X172526000Y-103369362D01*
X172521555Y-103414499D01*
X172510180Y-103451995D01*
X172491708Y-103486554D01*
X172466847Y-103516847D01*
X172436554Y-103541708D01*
X172401995Y-103560180D01*
X172364499Y-103571555D01*
X172319362Y-103576000D01*
X171680638Y-103576000D01*
X171635501Y-103571555D01*
X171598005Y-103560180D01*
X171563446Y-103541708D01*
X171533153Y-103516847D01*
X171508292Y-103486554D01*
X171489820Y-103451995D01*
X171478445Y-103414499D01*
X171474000Y-103369362D01*
X171474000Y-102630638D01*
X171478445Y-102585501D01*
X171489820Y-102548005D01*
X171508292Y-102513446D01*
X171533153Y-102483153D01*
X171563446Y-102458292D01*
X171598005Y-102439820D01*
X171635501Y-102428445D01*
X171680638Y-102424000D01*
X172319362Y-102424000D01*
X172364499Y-102428445D01*
X172364499Y-102428445D01*
G37*
G36*
X215025562Y-101740681D02*
G01*
X215060481Y-101751274D01*
X215092663Y-101768476D01*
X215120873Y-101791627D01*
X215144024Y-101819837D01*
X215161226Y-101852019D01*
X215171819Y-101886938D01*
X215176000Y-101929395D01*
X215176000Y-103070605D01*
X215171819Y-103113062D01*
X215161226Y-103147981D01*
X215144024Y-103180163D01*
X215120873Y-103208373D01*
X215092663Y-103231524D01*
X215060481Y-103248726D01*
X215025562Y-103259319D01*
X214983105Y-103263500D01*
X213516895Y-103263500D01*
X213474438Y-103259319D01*
X213439519Y-103248726D01*
X213407337Y-103231524D01*
X213379127Y-103208373D01*
X213355976Y-103180163D01*
X213338774Y-103147981D01*
X213328181Y-103113062D01*
X213324000Y-103070605D01*
X213324000Y-101929395D01*
X213328181Y-101886938D01*
X213338774Y-101852019D01*
X213355976Y-101819837D01*
X213379127Y-101791627D01*
X213407337Y-101768476D01*
X213439519Y-101751274D01*
X213474438Y-101740681D01*
X213516895Y-101736500D01*
X214983105Y-101736500D01*
X215025562Y-101740681D01*
X215025562Y-101740681D01*
G37*
G36*
X137238674Y-101253465D02*
G01*
X137276367Y-101264899D01*
X137311103Y-101283466D01*
X137341548Y-101308452D01*
X137366534Y-101338897D01*
X137385101Y-101373633D01*
X137396535Y-101411326D01*
X137401000Y-101456661D01*
X137401000Y-102543339D01*
X137396535Y-102588674D01*
X137385101Y-102626367D01*
X137366534Y-102661103D01*
X137341548Y-102691548D01*
X137311103Y-102716534D01*
X137276367Y-102735101D01*
X137238674Y-102746535D01*
X137193339Y-102751000D01*
X136356661Y-102751000D01*
X136311326Y-102746535D01*
X136273633Y-102735101D01*
X136238897Y-102716534D01*
X136208452Y-102691548D01*
X136183466Y-102661103D01*
X136164899Y-102626367D01*
X136153465Y-102588674D01*
X136149000Y-102543339D01*
X136149000Y-101456661D01*
X136153465Y-101411326D01*
X136164899Y-101373633D01*
X136183466Y-101338897D01*
X136208452Y-101308452D01*
X136238897Y-101283466D01*
X136273633Y-101264899D01*
X136311326Y-101253465D01*
X136356661Y-101249000D01*
X137193339Y-101249000D01*
X137238674Y-101253465D01*
X137238674Y-101253465D01*
G37*
G36*
X135188674Y-101253465D02*
G01*
X135226367Y-101264899D01*
X135261103Y-101283466D01*
X135291548Y-101308452D01*
X135316534Y-101338897D01*
X135335101Y-101373633D01*
X135346535Y-101411326D01*
X135351000Y-101456661D01*
X135351000Y-102543339D01*
X135346535Y-102588674D01*
X135335101Y-102626367D01*
X135316534Y-102661103D01*
X135291548Y-102691548D01*
X135261103Y-102716534D01*
X135226367Y-102735101D01*
X135188674Y-102746535D01*
X135143339Y-102751000D01*
X134306661Y-102751000D01*
X134261326Y-102746535D01*
X134223633Y-102735101D01*
X134188897Y-102716534D01*
X134158452Y-102691548D01*
X134133466Y-102661103D01*
X134114899Y-102626367D01*
X134103465Y-102588674D01*
X134099000Y-102543339D01*
X134099000Y-101456661D01*
X134103465Y-101411326D01*
X134114899Y-101373633D01*
X134133466Y-101338897D01*
X134158452Y-101308452D01*
X134188897Y-101283466D01*
X134223633Y-101264899D01*
X134261326Y-101253465D01*
X134306661Y-101249000D01*
X135143339Y-101249000D01*
X135188674Y-101253465D01*
X135188674Y-101253465D01*
G37*
G36*
X184913674Y-101253465D02*
G01*
X184951367Y-101264899D01*
X184986103Y-101283466D01*
X185016548Y-101308452D01*
X185041534Y-101338897D01*
X185060101Y-101373633D01*
X185071535Y-101411326D01*
X185076000Y-101456661D01*
X185076000Y-102543339D01*
X185071535Y-102588674D01*
X185060101Y-102626367D01*
X185041534Y-102661103D01*
X185016548Y-102691548D01*
X184986103Y-102716534D01*
X184951367Y-102735101D01*
X184913674Y-102746535D01*
X184868339Y-102751000D01*
X184031661Y-102751000D01*
X183986326Y-102746535D01*
X183948633Y-102735101D01*
X183913897Y-102716534D01*
X183883452Y-102691548D01*
X183858466Y-102661103D01*
X183839899Y-102626367D01*
X183828465Y-102588674D01*
X183824000Y-102543339D01*
X183824000Y-101456661D01*
X183828465Y-101411326D01*
X183839899Y-101373633D01*
X183858466Y-101338897D01*
X183883452Y-101308452D01*
X183913897Y-101283466D01*
X183948633Y-101264899D01*
X183986326Y-101253465D01*
X184031661Y-101249000D01*
X184868339Y-101249000D01*
X184913674Y-101253465D01*
X184913674Y-101253465D01*
G37*
G36*
X186963674Y-101253465D02*
G01*
X187001367Y-101264899D01*
X187036103Y-101283466D01*
X187066548Y-101308452D01*
X187091534Y-101338897D01*
X187110101Y-101373633D01*
X187121535Y-101411326D01*
X187126000Y-101456661D01*
X187126000Y-102543339D01*
X187121535Y-102588674D01*
X187110101Y-102626367D01*
X187091534Y-102661103D01*
X187066548Y-102691548D01*
X187036103Y-102716534D01*
X187001367Y-102735101D01*
X186963674Y-102746535D01*
X186918339Y-102751000D01*
X186081661Y-102751000D01*
X186036326Y-102746535D01*
X185998633Y-102735101D01*
X185963897Y-102716534D01*
X185933452Y-102691548D01*
X185908466Y-102661103D01*
X185889899Y-102626367D01*
X185878465Y-102588674D01*
X185874000Y-102543339D01*
X185874000Y-101456661D01*
X185878465Y-101411326D01*
X185889899Y-101373633D01*
X185908466Y-101338897D01*
X185933452Y-101308452D01*
X185963897Y-101283466D01*
X185998633Y-101264899D01*
X186036326Y-101253465D01*
X186081661Y-101249000D01*
X186918339Y-101249000D01*
X186963674Y-101253465D01*
X186963674Y-101253465D01*
G37*
G36*
X126551000Y-101851000D02*
G01*
X123949000Y-101851000D01*
X123949000Y-99749000D01*
X126551000Y-99749000D01*
X126551000Y-101851000D01*
X126551000Y-101851000D01*
G37*
G36*
X132051000Y-101851000D02*
G01*
X129449000Y-101851000D01*
X129449000Y-99749000D01*
X132051000Y-99749000D01*
X132051000Y-101851000D01*
X132051000Y-101851000D01*
G37*
G36*
X172364499Y-100678445D02*
G01*
X172401995Y-100689820D01*
X172436554Y-100708292D01*
X172466847Y-100733153D01*
X172491708Y-100763446D01*
X172510180Y-100798005D01*
X172521555Y-100835501D01*
X172526000Y-100880638D01*
X172526000Y-101619362D01*
X172521555Y-101664499D01*
X172510180Y-101701995D01*
X172491708Y-101736554D01*
X172466847Y-101766847D01*
X172436554Y-101791708D01*
X172401995Y-101810180D01*
X172364499Y-101821555D01*
X172319362Y-101826000D01*
X171680638Y-101826000D01*
X171635501Y-101821555D01*
X171598005Y-101810180D01*
X171563446Y-101791708D01*
X171533153Y-101766847D01*
X171508292Y-101736554D01*
X171489820Y-101701995D01*
X171478445Y-101664499D01*
X171474000Y-101619362D01*
X171474000Y-100880638D01*
X171478445Y-100835501D01*
X171489820Y-100798005D01*
X171508292Y-100763446D01*
X171533153Y-100733153D01*
X171563446Y-100708292D01*
X171598005Y-100689820D01*
X171635501Y-100678445D01*
X171680638Y-100674000D01*
X172319362Y-100674000D01*
X172364499Y-100678445D01*
X172364499Y-100678445D01*
G37*
G36*
X219775562Y-100228181D02*
G01*
X219810481Y-100238774D01*
X219842663Y-100255976D01*
X219870873Y-100279127D01*
X219894024Y-100307337D01*
X219911226Y-100339519D01*
X219921819Y-100374438D01*
X219926000Y-100416895D01*
X219926000Y-101558105D01*
X219921819Y-101600562D01*
X219911226Y-101635481D01*
X219894024Y-101667663D01*
X219870873Y-101695873D01*
X219842663Y-101719024D01*
X219810481Y-101736226D01*
X219775562Y-101746819D01*
X219733105Y-101751000D01*
X218266895Y-101751000D01*
X218224438Y-101746819D01*
X218189519Y-101736226D01*
X218157337Y-101719024D01*
X218129127Y-101695873D01*
X218105976Y-101667663D01*
X218088774Y-101635481D01*
X218078181Y-101600562D01*
X218074000Y-101558105D01*
X218074000Y-100416895D01*
X218078181Y-100374438D01*
X218088774Y-100339519D01*
X218105976Y-100307337D01*
X218129127Y-100279127D01*
X218157337Y-100255976D01*
X218189519Y-100238774D01*
X218224438Y-100228181D01*
X218266895Y-100224000D01*
X219733105Y-100224000D01*
X219775562Y-100228181D01*
X219775562Y-100228181D01*
G37*
G36*
X237926050Y-97468075D02*
G01*
X238105547Y-97503779D01*
X238483355Y-97660273D01*
X238823373Y-97887465D01*
X239112535Y-98176627D01*
X239339727Y-98516645D01*
X239496221Y-98894453D01*
X239517905Y-99003465D01*
X239575869Y-99294869D01*
X239576000Y-99295532D01*
X239576000Y-99704468D01*
X239496221Y-100105547D01*
X239339727Y-100483355D01*
X239112535Y-100823373D01*
X238823373Y-101112535D01*
X238483355Y-101339727D01*
X238105547Y-101496221D01*
X237980104Y-101521173D01*
X237704470Y-101576000D01*
X237295530Y-101576000D01*
X237019896Y-101521173D01*
X236894453Y-101496221D01*
X236516645Y-101339727D01*
X236176627Y-101112535D01*
X235887465Y-100823373D01*
X235660273Y-100483355D01*
X235503779Y-100105547D01*
X235424000Y-99704468D01*
X235424000Y-99295532D01*
X235424132Y-99294869D01*
X235482095Y-99003465D01*
X235503779Y-98894453D01*
X235660273Y-98516645D01*
X235887465Y-98176627D01*
X236176627Y-97887465D01*
X236516645Y-97660273D01*
X236894453Y-97503779D01*
X237073950Y-97468075D01*
X237295530Y-97424000D01*
X237704470Y-97424000D01*
X237926050Y-97468075D01*
X237926050Y-97468075D01*
G37*
G36*
X168876000Y-101476000D02*
G01*
X168124000Y-101476000D01*
X168124000Y-100324000D01*
X168876000Y-100324000D01*
X168876000Y-101476000D01*
X168876000Y-101476000D01*
G37*
G36*
X178188674Y-99253465D02*
G01*
X178226367Y-99264899D01*
X178261103Y-99283466D01*
X178291548Y-99308452D01*
X178316534Y-99338897D01*
X178335101Y-99373633D01*
X178346535Y-99411326D01*
X178351000Y-99456661D01*
X178351000Y-100543339D01*
X178346535Y-100588674D01*
X178335101Y-100626367D01*
X178316534Y-100661103D01*
X178291548Y-100691548D01*
X178261103Y-100716534D01*
X178226367Y-100735101D01*
X178188674Y-100746535D01*
X178143339Y-100751000D01*
X177306661Y-100751000D01*
X177261326Y-100746535D01*
X177223633Y-100735101D01*
X177188897Y-100716534D01*
X177158452Y-100691548D01*
X177133466Y-100661103D01*
X177114899Y-100626367D01*
X177103465Y-100588674D01*
X177099000Y-100543339D01*
X177099000Y-99456661D01*
X177103465Y-99411326D01*
X177114899Y-99373633D01*
X177133466Y-99338897D01*
X177158452Y-99308452D01*
X177188897Y-99283466D01*
X177223633Y-99264899D01*
X177261326Y-99253465D01*
X177306661Y-99249000D01*
X178143339Y-99249000D01*
X178188674Y-99253465D01*
X178188674Y-99253465D01*
G37*
G36*
X180238674Y-99253465D02*
G01*
X180276367Y-99264899D01*
X180311103Y-99283466D01*
X180341548Y-99308452D01*
X180366534Y-99338897D01*
X180385101Y-99373633D01*
X180396535Y-99411326D01*
X180401000Y-99456661D01*
X180401000Y-100543339D01*
X180396535Y-100588674D01*
X180385101Y-100626367D01*
X180366534Y-100661103D01*
X180341548Y-100691548D01*
X180311103Y-100716534D01*
X180276367Y-100735101D01*
X180238674Y-100746535D01*
X180193339Y-100751000D01*
X179356661Y-100751000D01*
X179311326Y-100746535D01*
X179273633Y-100735101D01*
X179238897Y-100716534D01*
X179208452Y-100691548D01*
X179183466Y-100661103D01*
X179164899Y-100626367D01*
X179153465Y-100588674D01*
X179149000Y-100543339D01*
X179149000Y-99456661D01*
X179153465Y-99411326D01*
X179164899Y-99373633D01*
X179183466Y-99338897D01*
X179208452Y-99308452D01*
X179238897Y-99283466D01*
X179273633Y-99264899D01*
X179311326Y-99253465D01*
X179356661Y-99249000D01*
X180193339Y-99249000D01*
X180238674Y-99253465D01*
X180238674Y-99253465D01*
G37*
G36*
X184913674Y-99253465D02*
G01*
X184951367Y-99264899D01*
X184986103Y-99283466D01*
X185016548Y-99308452D01*
X185041534Y-99338897D01*
X185060101Y-99373633D01*
X185071535Y-99411326D01*
X185076000Y-99456661D01*
X185076000Y-100543339D01*
X185071535Y-100588674D01*
X185060101Y-100626367D01*
X185041534Y-100661103D01*
X185016548Y-100691548D01*
X184986103Y-100716534D01*
X184951367Y-100735101D01*
X184913674Y-100746535D01*
X184868339Y-100751000D01*
X184031661Y-100751000D01*
X183986326Y-100746535D01*
X183948633Y-100735101D01*
X183913897Y-100716534D01*
X183883452Y-100691548D01*
X183858466Y-100661103D01*
X183839899Y-100626367D01*
X183828465Y-100588674D01*
X183824000Y-100543339D01*
X183824000Y-99456661D01*
X183828465Y-99411326D01*
X183839899Y-99373633D01*
X183858466Y-99338897D01*
X183883452Y-99308452D01*
X183913897Y-99283466D01*
X183948633Y-99264899D01*
X183986326Y-99253465D01*
X184031661Y-99249000D01*
X184868339Y-99249000D01*
X184913674Y-99253465D01*
X184913674Y-99253465D01*
G37*
G36*
X186963674Y-99253465D02*
G01*
X187001367Y-99264899D01*
X187036103Y-99283466D01*
X187066548Y-99308452D01*
X187091534Y-99338897D01*
X187110101Y-99373633D01*
X187121535Y-99411326D01*
X187126000Y-99456661D01*
X187126000Y-100543339D01*
X187121535Y-100588674D01*
X187110101Y-100626367D01*
X187091534Y-100661103D01*
X187066548Y-100691548D01*
X187036103Y-100716534D01*
X187001367Y-100735101D01*
X186963674Y-100746535D01*
X186918339Y-100751000D01*
X186081661Y-100751000D01*
X186036326Y-100746535D01*
X185998633Y-100735101D01*
X185963897Y-100716534D01*
X185933452Y-100691548D01*
X185908466Y-100661103D01*
X185889899Y-100626367D01*
X185878465Y-100588674D01*
X185874000Y-100543339D01*
X185874000Y-99456661D01*
X185878465Y-99411326D01*
X185889899Y-99373633D01*
X185908466Y-99338897D01*
X185933452Y-99308452D01*
X185963897Y-99283466D01*
X185998633Y-99264899D01*
X186036326Y-99253465D01*
X186081661Y-99249000D01*
X186918339Y-99249000D01*
X186963674Y-99253465D01*
X186963674Y-99253465D01*
G37*
G36*
X137238674Y-99003465D02*
G01*
X137276367Y-99014899D01*
X137311103Y-99033466D01*
X137341548Y-99058452D01*
X137366534Y-99088897D01*
X137385101Y-99123633D01*
X137396535Y-99161326D01*
X137401000Y-99206661D01*
X137401000Y-100293339D01*
X137396535Y-100338674D01*
X137385101Y-100376367D01*
X137366534Y-100411103D01*
X137341548Y-100441548D01*
X137311103Y-100466534D01*
X137276367Y-100485101D01*
X137238674Y-100496535D01*
X137193339Y-100501000D01*
X136356661Y-100501000D01*
X136311326Y-100496535D01*
X136273633Y-100485101D01*
X136238897Y-100466534D01*
X136208452Y-100441548D01*
X136183466Y-100411103D01*
X136164899Y-100376367D01*
X136153465Y-100338674D01*
X136149000Y-100293339D01*
X136149000Y-99206661D01*
X136153465Y-99161326D01*
X136164899Y-99123633D01*
X136183466Y-99088897D01*
X136208452Y-99058452D01*
X136238897Y-99033466D01*
X136273633Y-99014899D01*
X136311326Y-99003465D01*
X136356661Y-98999000D01*
X137193339Y-98999000D01*
X137238674Y-99003465D01*
X137238674Y-99003465D01*
G37*
G36*
X135188674Y-99003465D02*
G01*
X135226367Y-99014899D01*
X135261103Y-99033466D01*
X135291548Y-99058452D01*
X135316534Y-99088897D01*
X135335101Y-99123633D01*
X135346535Y-99161326D01*
X135351000Y-99206661D01*
X135351000Y-100293339D01*
X135346535Y-100338674D01*
X135335101Y-100376367D01*
X135316534Y-100411103D01*
X135291548Y-100441548D01*
X135261103Y-100466534D01*
X135226367Y-100485101D01*
X135188674Y-100496535D01*
X135143339Y-100501000D01*
X134306661Y-100501000D01*
X134261326Y-100496535D01*
X134223633Y-100485101D01*
X134188897Y-100466534D01*
X134158452Y-100441548D01*
X134133466Y-100411103D01*
X134114899Y-100376367D01*
X134103465Y-100338674D01*
X134099000Y-100293339D01*
X134099000Y-99206661D01*
X134103465Y-99161326D01*
X134114899Y-99123633D01*
X134133466Y-99088897D01*
X134158452Y-99058452D01*
X134188897Y-99033466D01*
X134223633Y-99014899D01*
X134261326Y-99003465D01*
X134306661Y-98999000D01*
X135143339Y-98999000D01*
X135188674Y-99003465D01*
X135188674Y-99003465D01*
G37*
G36*
X219775562Y-97253181D02*
G01*
X219810481Y-97263774D01*
X219842663Y-97280976D01*
X219870873Y-97304127D01*
X219894024Y-97332337D01*
X219911226Y-97364519D01*
X219921819Y-97399438D01*
X219926000Y-97441895D01*
X219926000Y-98583105D01*
X219921819Y-98625562D01*
X219911226Y-98660481D01*
X219894024Y-98692663D01*
X219870873Y-98720873D01*
X219842663Y-98744024D01*
X219810481Y-98761226D01*
X219775562Y-98771819D01*
X219733105Y-98776000D01*
X218266895Y-98776000D01*
X218224438Y-98771819D01*
X218189519Y-98761226D01*
X218157337Y-98744024D01*
X218129127Y-98720873D01*
X218105976Y-98692663D01*
X218088774Y-98660481D01*
X218078181Y-98625562D01*
X218074000Y-98583105D01*
X218074000Y-97441895D01*
X218078181Y-97399438D01*
X218088774Y-97364519D01*
X218105976Y-97332337D01*
X218129127Y-97304127D01*
X218157337Y-97280976D01*
X218189519Y-97263774D01*
X218224438Y-97253181D01*
X218266895Y-97249000D01*
X219733105Y-97249000D01*
X219775562Y-97253181D01*
X219775562Y-97253181D01*
G37*
G36*
X184913674Y-97253465D02*
G01*
X184951367Y-97264899D01*
X184986103Y-97283466D01*
X185016548Y-97308452D01*
X185041534Y-97338897D01*
X185060101Y-97373633D01*
X185071535Y-97411326D01*
X185076000Y-97456661D01*
X185076000Y-98543339D01*
X185071535Y-98588674D01*
X185060101Y-98626367D01*
X185041534Y-98661103D01*
X185016548Y-98691548D01*
X184986103Y-98716534D01*
X184951367Y-98735101D01*
X184913674Y-98746535D01*
X184868339Y-98751000D01*
X184031661Y-98751000D01*
X183986326Y-98746535D01*
X183948633Y-98735101D01*
X183913897Y-98716534D01*
X183883452Y-98691548D01*
X183858466Y-98661103D01*
X183839899Y-98626367D01*
X183828465Y-98588674D01*
X183824000Y-98543339D01*
X183824000Y-97456661D01*
X183828465Y-97411326D01*
X183839899Y-97373633D01*
X183858466Y-97338897D01*
X183883452Y-97308452D01*
X183913897Y-97283466D01*
X183948633Y-97264899D01*
X183986326Y-97253465D01*
X184031661Y-97249000D01*
X184868339Y-97249000D01*
X184913674Y-97253465D01*
X184913674Y-97253465D01*
G37*
G36*
X180238674Y-97253465D02*
G01*
X180276367Y-97264899D01*
X180311103Y-97283466D01*
X180341548Y-97308452D01*
X180366534Y-97338897D01*
X180385101Y-97373633D01*
X180396535Y-97411326D01*
X180401000Y-97456661D01*
X180401000Y-98543339D01*
X180396535Y-98588674D01*
X180385101Y-98626367D01*
X180366534Y-98661103D01*
X180341548Y-98691548D01*
X180311103Y-98716534D01*
X180276367Y-98735101D01*
X180238674Y-98746535D01*
X180193339Y-98751000D01*
X179356661Y-98751000D01*
X179311326Y-98746535D01*
X179273633Y-98735101D01*
X179238897Y-98716534D01*
X179208452Y-98691548D01*
X179183466Y-98661103D01*
X179164899Y-98626367D01*
X179153465Y-98588674D01*
X179149000Y-98543339D01*
X179149000Y-97456661D01*
X179153465Y-97411326D01*
X179164899Y-97373633D01*
X179183466Y-97338897D01*
X179208452Y-97308452D01*
X179238897Y-97283466D01*
X179273633Y-97264899D01*
X179311326Y-97253465D01*
X179356661Y-97249000D01*
X180193339Y-97249000D01*
X180238674Y-97253465D01*
X180238674Y-97253465D01*
G37*
G36*
X178188674Y-97253465D02*
G01*
X178226367Y-97264899D01*
X178261103Y-97283466D01*
X178291548Y-97308452D01*
X178316534Y-97338897D01*
X178335101Y-97373633D01*
X178346535Y-97411326D01*
X178351000Y-97456661D01*
X178351000Y-98543339D01*
X178346535Y-98588674D01*
X178335101Y-98626367D01*
X178316534Y-98661103D01*
X178291548Y-98691548D01*
X178261103Y-98716534D01*
X178226367Y-98735101D01*
X178188674Y-98746535D01*
X178143339Y-98751000D01*
X177306661Y-98751000D01*
X177261326Y-98746535D01*
X177223633Y-98735101D01*
X177188897Y-98716534D01*
X177158452Y-98691548D01*
X177133466Y-98661103D01*
X177114899Y-98626367D01*
X177103465Y-98588674D01*
X177099000Y-98543339D01*
X177099000Y-97456661D01*
X177103465Y-97411326D01*
X177114899Y-97373633D01*
X177133466Y-97338897D01*
X177158452Y-97308452D01*
X177188897Y-97283466D01*
X177223633Y-97264899D01*
X177261326Y-97253465D01*
X177306661Y-97249000D01*
X178143339Y-97249000D01*
X178188674Y-97253465D01*
X178188674Y-97253465D01*
G37*
G36*
X186963674Y-97253465D02*
G01*
X187001367Y-97264899D01*
X187036103Y-97283466D01*
X187066548Y-97308452D01*
X187091534Y-97338897D01*
X187110101Y-97373633D01*
X187121535Y-97411326D01*
X187126000Y-97456661D01*
X187126000Y-98543339D01*
X187121535Y-98588674D01*
X187110101Y-98626367D01*
X187091534Y-98661103D01*
X187066548Y-98691548D01*
X187036103Y-98716534D01*
X187001367Y-98735101D01*
X186963674Y-98746535D01*
X186918339Y-98751000D01*
X186081661Y-98751000D01*
X186036326Y-98746535D01*
X185998633Y-98735101D01*
X185963897Y-98716534D01*
X185933452Y-98691548D01*
X185908466Y-98661103D01*
X185889899Y-98626367D01*
X185878465Y-98588674D01*
X185874000Y-98543339D01*
X185874000Y-97456661D01*
X185878465Y-97411326D01*
X185889899Y-97373633D01*
X185908466Y-97338897D01*
X185933452Y-97308452D01*
X185963897Y-97283466D01*
X185998633Y-97264899D01*
X186036326Y-97253465D01*
X186081661Y-97249000D01*
X186918339Y-97249000D01*
X186963674Y-97253465D01*
X186963674Y-97253465D01*
G37*
G36*
X215025562Y-95740681D02*
G01*
X215060481Y-95751274D01*
X215092663Y-95768476D01*
X215120873Y-95791627D01*
X215144024Y-95819837D01*
X215161226Y-95852019D01*
X215171819Y-95886938D01*
X215176000Y-95929395D01*
X215176000Y-97070605D01*
X215171819Y-97113062D01*
X215161226Y-97147981D01*
X215144024Y-97180163D01*
X215120873Y-97208373D01*
X215092663Y-97231524D01*
X215060481Y-97248726D01*
X215025562Y-97259319D01*
X214983105Y-97263500D01*
X213516895Y-97263500D01*
X213474438Y-97259319D01*
X213439519Y-97248726D01*
X213407337Y-97231524D01*
X213379127Y-97208373D01*
X213355976Y-97180163D01*
X213338774Y-97147981D01*
X213328181Y-97113062D01*
X213324000Y-97070605D01*
X213324000Y-95929395D01*
X213328181Y-95886938D01*
X213338774Y-95852019D01*
X213355976Y-95819837D01*
X213379127Y-95791627D01*
X213407337Y-95768476D01*
X213439519Y-95751274D01*
X213474438Y-95740681D01*
X213516895Y-95736500D01*
X214983105Y-95736500D01*
X215025562Y-95740681D01*
X215025562Y-95740681D01*
G37*
G36*
X136104278Y-94130038D02*
G01*
X136209240Y-94150916D01*
X136464570Y-94256677D01*
X136694361Y-94410218D01*
X136889782Y-94605639D01*
X137043323Y-94835430D01*
X137077117Y-94917017D01*
X137149084Y-95090761D01*
X137203000Y-95361815D01*
X137203000Y-95638185D01*
X137174463Y-95781648D01*
X137149084Y-95909240D01*
X137043323Y-96164570D01*
X136889782Y-96394361D01*
X136694361Y-96589782D01*
X136464570Y-96743323D01*
X136209240Y-96849084D01*
X136118888Y-96867056D01*
X135938185Y-96903000D01*
X135661815Y-96903000D01*
X135481112Y-96867056D01*
X135390760Y-96849084D01*
X135135430Y-96743323D01*
X134905639Y-96589782D01*
X134710218Y-96394361D01*
X134556677Y-96164570D01*
X134450916Y-95909240D01*
X134425537Y-95781648D01*
X134397000Y-95638185D01*
X134397000Y-95361815D01*
X134450916Y-95090761D01*
X134522883Y-94917017D01*
X134556677Y-94835430D01*
X134710218Y-94605639D01*
X134905639Y-94410218D01*
X135135430Y-94256677D01*
X135390760Y-94150916D01*
X135495722Y-94130038D01*
X135661815Y-94097000D01*
X135938185Y-94097000D01*
X136104278Y-94130038D01*
X136104278Y-94130038D01*
G37*
G36*
X186963674Y-95253465D02*
G01*
X187001367Y-95264899D01*
X187036103Y-95283466D01*
X187066548Y-95308452D01*
X187091534Y-95338897D01*
X187110101Y-95373633D01*
X187121535Y-95411326D01*
X187126000Y-95456661D01*
X187126000Y-96543339D01*
X187121535Y-96588674D01*
X187110101Y-96626367D01*
X187091534Y-96661103D01*
X187066548Y-96691548D01*
X187036103Y-96716534D01*
X187001367Y-96735101D01*
X186963674Y-96746535D01*
X186918339Y-96751000D01*
X186081661Y-96751000D01*
X186036326Y-96746535D01*
X185998633Y-96735101D01*
X185963897Y-96716534D01*
X185933452Y-96691548D01*
X185908466Y-96661103D01*
X185889899Y-96626367D01*
X185878465Y-96588674D01*
X185874000Y-96543339D01*
X185874000Y-95456661D01*
X185878465Y-95411326D01*
X185889899Y-95373633D01*
X185908466Y-95338897D01*
X185933452Y-95308452D01*
X185963897Y-95283466D01*
X185998633Y-95264899D01*
X186036326Y-95253465D01*
X186081661Y-95249000D01*
X186918339Y-95249000D01*
X186963674Y-95253465D01*
X186963674Y-95253465D01*
G37*
G36*
X180238674Y-95253465D02*
G01*
X180276367Y-95264899D01*
X180311103Y-95283466D01*
X180341548Y-95308452D01*
X180366534Y-95338897D01*
X180385101Y-95373633D01*
X180396535Y-95411326D01*
X180401000Y-95456661D01*
X180401000Y-96543339D01*
X180396535Y-96588674D01*
X180385101Y-96626367D01*
X180366534Y-96661103D01*
X180341548Y-96691548D01*
X180311103Y-96716534D01*
X180276367Y-96735101D01*
X180238674Y-96746535D01*
X180193339Y-96751000D01*
X179356661Y-96751000D01*
X179311326Y-96746535D01*
X179273633Y-96735101D01*
X179238897Y-96716534D01*
X179208452Y-96691548D01*
X179183466Y-96661103D01*
X179164899Y-96626367D01*
X179153465Y-96588674D01*
X179149000Y-96543339D01*
X179149000Y-95456661D01*
X179153465Y-95411326D01*
X179164899Y-95373633D01*
X179183466Y-95338897D01*
X179208452Y-95308452D01*
X179238897Y-95283466D01*
X179273633Y-95264899D01*
X179311326Y-95253465D01*
X179356661Y-95249000D01*
X180193339Y-95249000D01*
X180238674Y-95253465D01*
X180238674Y-95253465D01*
G37*
G36*
X184913674Y-95253465D02*
G01*
X184951367Y-95264899D01*
X184986103Y-95283466D01*
X185016548Y-95308452D01*
X185041534Y-95338897D01*
X185060101Y-95373633D01*
X185071535Y-95411326D01*
X185076000Y-95456661D01*
X185076000Y-96543339D01*
X185071535Y-96588674D01*
X185060101Y-96626367D01*
X185041534Y-96661103D01*
X185016548Y-96691548D01*
X184986103Y-96716534D01*
X184951367Y-96735101D01*
X184913674Y-96746535D01*
X184868339Y-96751000D01*
X184031661Y-96751000D01*
X183986326Y-96746535D01*
X183948633Y-96735101D01*
X183913897Y-96716534D01*
X183883452Y-96691548D01*
X183858466Y-96661103D01*
X183839899Y-96626367D01*
X183828465Y-96588674D01*
X183824000Y-96543339D01*
X183824000Y-95456661D01*
X183828465Y-95411326D01*
X183839899Y-95373633D01*
X183858466Y-95338897D01*
X183883452Y-95308452D01*
X183913897Y-95283466D01*
X183948633Y-95264899D01*
X183986326Y-95253465D01*
X184031661Y-95249000D01*
X184868339Y-95249000D01*
X184913674Y-95253465D01*
X184913674Y-95253465D01*
G37*
G36*
X178188674Y-95253465D02*
G01*
X178226367Y-95264899D01*
X178261103Y-95283466D01*
X178291548Y-95308452D01*
X178316534Y-95338897D01*
X178335101Y-95373633D01*
X178346535Y-95411326D01*
X178351000Y-95456661D01*
X178351000Y-96543339D01*
X178346535Y-96588674D01*
X178335101Y-96626367D01*
X178316534Y-96661103D01*
X178291548Y-96691548D01*
X178261103Y-96716534D01*
X178226367Y-96735101D01*
X178188674Y-96746535D01*
X178143339Y-96751000D01*
X177306661Y-96751000D01*
X177261326Y-96746535D01*
X177223633Y-96735101D01*
X177188897Y-96716534D01*
X177158452Y-96691548D01*
X177133466Y-96661103D01*
X177114899Y-96626367D01*
X177103465Y-96588674D01*
X177099000Y-96543339D01*
X177099000Y-95456661D01*
X177103465Y-95411326D01*
X177114899Y-95373633D01*
X177133466Y-95338897D01*
X177158452Y-95308452D01*
X177188897Y-95283466D01*
X177223633Y-95264899D01*
X177261326Y-95253465D01*
X177306661Y-95249000D01*
X178143339Y-95249000D01*
X178188674Y-95253465D01*
X178188674Y-95253465D01*
G37*
G36*
X228426000Y-96726000D02*
G01*
X226074000Y-96726000D01*
X226074000Y-94374000D01*
X228426000Y-94374000D01*
X228426000Y-96726000D01*
X228426000Y-96726000D01*
G37*
G36*
X219163674Y-94753465D02*
G01*
X219201367Y-94764899D01*
X219236103Y-94783466D01*
X219266548Y-94808452D01*
X219291534Y-94838897D01*
X219310101Y-94873633D01*
X219321535Y-94911326D01*
X219326000Y-94956661D01*
X219326000Y-96043339D01*
X219321535Y-96088674D01*
X219310101Y-96126367D01*
X219291534Y-96161103D01*
X219266548Y-96191548D01*
X219236103Y-96216534D01*
X219201367Y-96235101D01*
X219163674Y-96246535D01*
X219118339Y-96251000D01*
X218281661Y-96251000D01*
X218236326Y-96246535D01*
X218198633Y-96235101D01*
X218163897Y-96216534D01*
X218133452Y-96191548D01*
X218108466Y-96161103D01*
X218089899Y-96126367D01*
X218078465Y-96088674D01*
X218074000Y-96043339D01*
X218074000Y-94956661D01*
X218078465Y-94911326D01*
X218089899Y-94873633D01*
X218108466Y-94838897D01*
X218133452Y-94808452D01*
X218163897Y-94783466D01*
X218198633Y-94764899D01*
X218236326Y-94753465D01*
X218281661Y-94749000D01*
X219118339Y-94749000D01*
X219163674Y-94753465D01*
X219163674Y-94753465D01*
G37*
G36*
X221213674Y-94753465D02*
G01*
X221251367Y-94764899D01*
X221286103Y-94783466D01*
X221316548Y-94808452D01*
X221341534Y-94838897D01*
X221360101Y-94873633D01*
X221371535Y-94911326D01*
X221376000Y-94956661D01*
X221376000Y-96043339D01*
X221371535Y-96088674D01*
X221360101Y-96126367D01*
X221341534Y-96161103D01*
X221316548Y-96191548D01*
X221286103Y-96216534D01*
X221251367Y-96235101D01*
X221213674Y-96246535D01*
X221168339Y-96251000D01*
X220331661Y-96251000D01*
X220286326Y-96246535D01*
X220248633Y-96235101D01*
X220213897Y-96216534D01*
X220183452Y-96191548D01*
X220158466Y-96161103D01*
X220139899Y-96126367D01*
X220128465Y-96088674D01*
X220124000Y-96043339D01*
X220124000Y-94956661D01*
X220128465Y-94911326D01*
X220139899Y-94873633D01*
X220158466Y-94838897D01*
X220183452Y-94808452D01*
X220213897Y-94783466D01*
X220248633Y-94764899D01*
X220286326Y-94753465D01*
X220331661Y-94749000D01*
X221168339Y-94749000D01*
X221213674Y-94753465D01*
X221213674Y-94753465D01*
G37*
G36*
X166881000Y-96241000D02*
G01*
X156119000Y-96241000D01*
X156119000Y-87759000D01*
X166881000Y-87759000D01*
X166881000Y-96241000D01*
X166881000Y-96241000D01*
G37*
G36*
X130818888Y-92882944D02*
G01*
X130909240Y-92900916D01*
X131164570Y-93006677D01*
X131394361Y-93160218D01*
X131589782Y-93355639D01*
X131743323Y-93585430D01*
X131849084Y-93840760D01*
X131849084Y-93840761D01*
X131899776Y-94095605D01*
X131903000Y-94111817D01*
X131903000Y-94388183D01*
X131849084Y-94659240D01*
X131743323Y-94914570D01*
X131589782Y-95144361D01*
X131394361Y-95339782D01*
X131164570Y-95493323D01*
X130909240Y-95599084D01*
X130818888Y-95617056D01*
X130638185Y-95653000D01*
X130361815Y-95653000D01*
X130181112Y-95617056D01*
X130090760Y-95599084D01*
X129835430Y-95493323D01*
X129605639Y-95339782D01*
X129410218Y-95144361D01*
X129256677Y-94914570D01*
X129150916Y-94659240D01*
X129097000Y-94388183D01*
X129097000Y-94111817D01*
X129100225Y-94095605D01*
X129150916Y-93840761D01*
X129150916Y-93840760D01*
X129256677Y-93585430D01*
X129410218Y-93355639D01*
X129605639Y-93160218D01*
X129835430Y-93006677D01*
X130090760Y-92900916D01*
X130181112Y-92882944D01*
X130361815Y-92847000D01*
X130638185Y-92847000D01*
X130818888Y-92882944D01*
X130818888Y-92882944D01*
G37*
G36*
X142136000Y-95161000D02*
G01*
X140364000Y-95161000D01*
X140364000Y-93239000D01*
X142136000Y-93239000D01*
X142136000Y-95161000D01*
X142136000Y-95161000D01*
G37*
G36*
X215025562Y-92765681D02*
G01*
X215060481Y-92776274D01*
X215092663Y-92793476D01*
X215120873Y-92816627D01*
X215144024Y-92844837D01*
X215161226Y-92877019D01*
X215171819Y-92911938D01*
X215176000Y-92954395D01*
X215176000Y-94095605D01*
X215171819Y-94138062D01*
X215161226Y-94172981D01*
X215144024Y-94205163D01*
X215120873Y-94233373D01*
X215092663Y-94256524D01*
X215060481Y-94273726D01*
X215025562Y-94284319D01*
X214983105Y-94288500D01*
X213516895Y-94288500D01*
X213474438Y-94284319D01*
X213439519Y-94273726D01*
X213407337Y-94256524D01*
X213379127Y-94233373D01*
X213355976Y-94205163D01*
X213338774Y-94172981D01*
X213328181Y-94138062D01*
X213324000Y-94095605D01*
X213324000Y-92954395D01*
X213328181Y-92911938D01*
X213338774Y-92877019D01*
X213355976Y-92844837D01*
X213379127Y-92816627D01*
X213407337Y-92793476D01*
X213439519Y-92776274D01*
X213474438Y-92765681D01*
X213516895Y-92761500D01*
X214983105Y-92761500D01*
X215025562Y-92765681D01*
X215025562Y-92765681D01*
G37*
G36*
X219163674Y-92753465D02*
G01*
X219201367Y-92764899D01*
X219236103Y-92783466D01*
X219266548Y-92808452D01*
X219291534Y-92838897D01*
X219310101Y-92873633D01*
X219321535Y-92911326D01*
X219326000Y-92956661D01*
X219326000Y-94043339D01*
X219321535Y-94088674D01*
X219310101Y-94126367D01*
X219291534Y-94161103D01*
X219266548Y-94191548D01*
X219236103Y-94216534D01*
X219201367Y-94235101D01*
X219163674Y-94246535D01*
X219118339Y-94251000D01*
X218281661Y-94251000D01*
X218236326Y-94246535D01*
X218198633Y-94235101D01*
X218163897Y-94216534D01*
X218133452Y-94191548D01*
X218108466Y-94161103D01*
X218089899Y-94126367D01*
X218078465Y-94088674D01*
X218074000Y-94043339D01*
X218074000Y-92956661D01*
X218078465Y-92911326D01*
X218089899Y-92873633D01*
X218108466Y-92838897D01*
X218133452Y-92808452D01*
X218163897Y-92783466D01*
X218198633Y-92764899D01*
X218236326Y-92753465D01*
X218281661Y-92749000D01*
X219118339Y-92749000D01*
X219163674Y-92753465D01*
X219163674Y-92753465D01*
G37*
G36*
X221213674Y-92753465D02*
G01*
X221251367Y-92764899D01*
X221286103Y-92783466D01*
X221316548Y-92808452D01*
X221341534Y-92838897D01*
X221360101Y-92873633D01*
X221371535Y-92911326D01*
X221376000Y-92956661D01*
X221376000Y-94043339D01*
X221371535Y-94088674D01*
X221360101Y-94126367D01*
X221341534Y-94161103D01*
X221316548Y-94191548D01*
X221286103Y-94216534D01*
X221251367Y-94235101D01*
X221213674Y-94246535D01*
X221168339Y-94251000D01*
X220331661Y-94251000D01*
X220286326Y-94246535D01*
X220248633Y-94235101D01*
X220213897Y-94216534D01*
X220183452Y-94191548D01*
X220158466Y-94161103D01*
X220139899Y-94126367D01*
X220128465Y-94088674D01*
X220124000Y-94043339D01*
X220124000Y-92956661D01*
X220128465Y-92911326D01*
X220139899Y-92873633D01*
X220158466Y-92838897D01*
X220183452Y-92808452D01*
X220213897Y-92783466D01*
X220248633Y-92764899D01*
X220286326Y-92753465D01*
X220331661Y-92749000D01*
X221168339Y-92749000D01*
X221213674Y-92753465D01*
X221213674Y-92753465D01*
G37*
G36*
X147921934Y-90952671D02*
G01*
X147951877Y-90961754D01*
X147979465Y-90976500D01*
X148003651Y-90996349D01*
X148023500Y-91020535D01*
X148038246Y-91048123D01*
X148047329Y-91078066D01*
X148051000Y-91115340D01*
X148051000Y-93384660D01*
X148047329Y-93421934D01*
X148038246Y-93451877D01*
X148023500Y-93479465D01*
X148003651Y-93503651D01*
X147979465Y-93523500D01*
X147951877Y-93538246D01*
X147921934Y-93547329D01*
X147884660Y-93551000D01*
X143715340Y-93551000D01*
X143678066Y-93547329D01*
X143648123Y-93538246D01*
X143620535Y-93523500D01*
X143596349Y-93503651D01*
X143576500Y-93479465D01*
X143561754Y-93451877D01*
X143552671Y-93421934D01*
X143549000Y-93384660D01*
X143549000Y-91115340D01*
X143552671Y-91078066D01*
X143561754Y-91048123D01*
X143576500Y-91020535D01*
X143596349Y-90996349D01*
X143620535Y-90976500D01*
X143648123Y-90961754D01*
X143678066Y-90952671D01*
X143715340Y-90949000D01*
X147884660Y-90949000D01*
X147921934Y-90952671D01*
X147921934Y-90952671D01*
G37*
G36*
X155321934Y-90952671D02*
G01*
X155351877Y-90961754D01*
X155379465Y-90976500D01*
X155403651Y-90996349D01*
X155423500Y-91020535D01*
X155438246Y-91048123D01*
X155447329Y-91078066D01*
X155451000Y-91115340D01*
X155451000Y-93384660D01*
X155447329Y-93421934D01*
X155438246Y-93451877D01*
X155423500Y-93479465D01*
X155403651Y-93503651D01*
X155379465Y-93523500D01*
X155351877Y-93538246D01*
X155321934Y-93547329D01*
X155284660Y-93551000D01*
X151115340Y-93551000D01*
X151078066Y-93547329D01*
X151048123Y-93538246D01*
X151020535Y-93523500D01*
X150996349Y-93503651D01*
X150976500Y-93479465D01*
X150961754Y-93451877D01*
X150952671Y-93421934D01*
X150949000Y-93384660D01*
X150949000Y-91115340D01*
X150952671Y-91078066D01*
X150961754Y-91048123D01*
X150976500Y-91020535D01*
X150996349Y-90996349D01*
X151020535Y-90976500D01*
X151048123Y-90961754D01*
X151078066Y-90952671D01*
X151115340Y-90949000D01*
X155284660Y-90949000D01*
X155321934Y-90952671D01*
X155321934Y-90952671D01*
G37*
G36*
X134060721Y-92220174D02*
G01*
X134160995Y-92261709D01*
X134160996Y-92261710D01*
X134251242Y-92322010D01*
X134327990Y-92398758D01*
X134327991Y-92398760D01*
X134388291Y-92489005D01*
X134429826Y-92589279D01*
X134451000Y-92695730D01*
X134451000Y-92804270D01*
X134429826Y-92910721D01*
X134388291Y-93010995D01*
X134388290Y-93010996D01*
X134327990Y-93101242D01*
X134251242Y-93177990D01*
X134205812Y-93208345D01*
X134160995Y-93238291D01*
X134060721Y-93279826D01*
X133954270Y-93301000D01*
X133845730Y-93301000D01*
X133739279Y-93279826D01*
X133639005Y-93238291D01*
X133594188Y-93208345D01*
X133548758Y-93177990D01*
X133472010Y-93101242D01*
X133411710Y-93010996D01*
X133411709Y-93010995D01*
X133370174Y-92910721D01*
X133349000Y-92804270D01*
X133349000Y-92695730D01*
X133370174Y-92589279D01*
X133411709Y-92489005D01*
X133472009Y-92398760D01*
X133472010Y-92398758D01*
X133548758Y-92322010D01*
X133639004Y-92261710D01*
X133639005Y-92261709D01*
X133739279Y-92220174D01*
X133845730Y-92199000D01*
X133954270Y-92199000D01*
X134060721Y-92220174D01*
X134060721Y-92220174D01*
G37*
G36*
X126560721Y-92220174D02*
G01*
X126660995Y-92261709D01*
X126660996Y-92261710D01*
X126751242Y-92322010D01*
X126827990Y-92398758D01*
X126827991Y-92398760D01*
X126888291Y-92489005D01*
X126929826Y-92589279D01*
X126951000Y-92695730D01*
X126951000Y-92804270D01*
X126929826Y-92910721D01*
X126888291Y-93010995D01*
X126888290Y-93010996D01*
X126827990Y-93101242D01*
X126751242Y-93177990D01*
X126705812Y-93208345D01*
X126660995Y-93238291D01*
X126560721Y-93279826D01*
X126454270Y-93301000D01*
X126345730Y-93301000D01*
X126239279Y-93279826D01*
X126139005Y-93238291D01*
X126094188Y-93208345D01*
X126048758Y-93177990D01*
X125972010Y-93101242D01*
X125911710Y-93010996D01*
X125911709Y-93010995D01*
X125870174Y-92910721D01*
X125849000Y-92804270D01*
X125849000Y-92695730D01*
X125870174Y-92589279D01*
X125911709Y-92489005D01*
X125972009Y-92398760D01*
X125972010Y-92398758D01*
X126048758Y-92322010D01*
X126139004Y-92261710D01*
X126139005Y-92261709D01*
X126239279Y-92220174D01*
X126345730Y-92199000D01*
X126454270Y-92199000D01*
X126560721Y-92220174D01*
X126560721Y-92220174D01*
G37*
G36*
X174629487Y-89498996D02*
G01*
X174866253Y-89597068D01*
X174866255Y-89597069D01*
X175079339Y-89739447D01*
X175260553Y-89920661D01*
X175402932Y-90133747D01*
X175501004Y-90370513D01*
X175551000Y-90621861D01*
X175551000Y-90878139D01*
X175501004Y-91129487D01*
X175402932Y-91366253D01*
X175402931Y-91366255D01*
X175260553Y-91579339D01*
X175079339Y-91760553D01*
X174866255Y-91902931D01*
X174866254Y-91902932D01*
X174866253Y-91902932D01*
X174629487Y-92001004D01*
X174378139Y-92051000D01*
X174121861Y-92051000D01*
X173870513Y-92001004D01*
X173633747Y-91902932D01*
X173633746Y-91902932D01*
X173633745Y-91902931D01*
X173420661Y-91760553D01*
X173239447Y-91579339D01*
X173097069Y-91366255D01*
X173097068Y-91366253D01*
X172998996Y-91129487D01*
X172949000Y-90878139D01*
X172949000Y-90621861D01*
X172998996Y-90370513D01*
X173097068Y-90133747D01*
X173239447Y-89920661D01*
X173420661Y-89739447D01*
X173633745Y-89597069D01*
X173633747Y-89597068D01*
X173870513Y-89498996D01*
X174121861Y-89449000D01*
X174378139Y-89449000D01*
X174629487Y-89498996D01*
X174629487Y-89498996D01*
G37*
G36*
X178629487Y-89498996D02*
G01*
X178866253Y-89597068D01*
X178866255Y-89597069D01*
X179079339Y-89739447D01*
X179260553Y-89920661D01*
X179402932Y-90133747D01*
X179501004Y-90370513D01*
X179551000Y-90621861D01*
X179551000Y-90878139D01*
X179501004Y-91129487D01*
X179402932Y-91366253D01*
X179402931Y-91366255D01*
X179260553Y-91579339D01*
X179079339Y-91760553D01*
X178866255Y-91902931D01*
X178866254Y-91902932D01*
X178866253Y-91902932D01*
X178629487Y-92001004D01*
X178378139Y-92051000D01*
X178121861Y-92051000D01*
X177870513Y-92001004D01*
X177633747Y-91902932D01*
X177633746Y-91902932D01*
X177633745Y-91902931D01*
X177420661Y-91760553D01*
X177239447Y-91579339D01*
X177097069Y-91366255D01*
X177097068Y-91366253D01*
X176998996Y-91129487D01*
X176949000Y-90878139D01*
X176949000Y-90621861D01*
X176998996Y-90370513D01*
X177097068Y-90133747D01*
X177239447Y-89920661D01*
X177420661Y-89739447D01*
X177633745Y-89597069D01*
X177633747Y-89597068D01*
X177870513Y-89498996D01*
X178121861Y-89449000D01*
X178378139Y-89449000D01*
X178629487Y-89498996D01*
X178629487Y-89498996D01*
G37*
G36*
X183551000Y-92051000D02*
G01*
X180949000Y-92051000D01*
X180949000Y-89449000D01*
X183551000Y-89449000D01*
X183551000Y-92051000D01*
X183551000Y-92051000D01*
G37*
G36*
X136118888Y-88632944D02*
G01*
X136209240Y-88650916D01*
X136464570Y-88756677D01*
X136694361Y-88910218D01*
X136889782Y-89105639D01*
X137043323Y-89335430D01*
X137149084Y-89590760D01*
X137203000Y-89861817D01*
X137203000Y-90138183D01*
X137149084Y-90409240D01*
X137043323Y-90664570D01*
X136889782Y-90894361D01*
X136694361Y-91089782D01*
X136464570Y-91243323D01*
X136209240Y-91349084D01*
X136122925Y-91366253D01*
X135938185Y-91403000D01*
X135661815Y-91403000D01*
X135477075Y-91366253D01*
X135390760Y-91349084D01*
X135135430Y-91243323D01*
X134905639Y-91089782D01*
X134710218Y-90894361D01*
X134556677Y-90664570D01*
X134450916Y-90409240D01*
X134397000Y-90138183D01*
X134397000Y-89861817D01*
X134450916Y-89590760D01*
X134556677Y-89335430D01*
X134710218Y-89105639D01*
X134905639Y-88910218D01*
X135135430Y-88756677D01*
X135390760Y-88650916D01*
X135481112Y-88632944D01*
X135661815Y-88597000D01*
X135938185Y-88597000D01*
X136118888Y-88632944D01*
X136118888Y-88632944D01*
G37*
G36*
X142136000Y-90961000D02*
G01*
X140364000Y-90961000D01*
X140364000Y-89039000D01*
X142136000Y-89039000D01*
X142136000Y-90961000D01*
X142136000Y-90961000D01*
G37*
M02*
