G04 #@! TF.GenerationSoftware,KiCad,Pcbnew,(5.1.0)-1*
G04 #@! TF.CreationDate,2022-11-08T16:58:41+01:00*
G04 #@! TF.ProjectId,DualPressure_V1,4475616c-5072-4657-9373-7572655f5631,rev?*
G04 #@! TF.SameCoordinates,Original*
G04 #@! TF.FileFunction,Soldermask,Bot*
G04 #@! TF.FilePolarity,Negative*
%FSLAX46Y46*%
G04 Gerber Fmt 4.6, Leading zero omitted, Abs format (unit mm)*
G04 Created by KiCad (PCBNEW (5.1.0)-1) date 2022-11-08 16:58:41*
%MOMM*%
%LPD*%
G04 APERTURE LIST*
%ADD10C,0.100000*%
G04 APERTURE END LIST*
D10*
G36*
X128126000Y-110721000D02*
G01*
X126374000Y-110721000D01*
X126374000Y-107189000D01*
X128126000Y-107189000D01*
X128126000Y-110721000D01*
X128126000Y-110721000D01*
G37*
G36*
X182629487Y-107248996D02*
G01*
X182866253Y-107347068D01*
X182866255Y-107347069D01*
X183079339Y-107489447D01*
X183260553Y-107670661D01*
X183402932Y-107883747D01*
X183501004Y-108120513D01*
X183551000Y-108371861D01*
X183551000Y-108628139D01*
X183501004Y-108879487D01*
X183402932Y-109116253D01*
X183402931Y-109116255D01*
X183260553Y-109329339D01*
X183079339Y-109510553D01*
X182866255Y-109652931D01*
X182866254Y-109652932D01*
X182866253Y-109652932D01*
X182629487Y-109751004D01*
X182378139Y-109801000D01*
X182121861Y-109801000D01*
X181870513Y-109751004D01*
X181633747Y-109652932D01*
X181633746Y-109652932D01*
X181633745Y-109652931D01*
X181420661Y-109510553D01*
X181239447Y-109329339D01*
X181097069Y-109116255D01*
X181097068Y-109116253D01*
X180998996Y-108879487D01*
X180949000Y-108628139D01*
X180949000Y-108371861D01*
X180998996Y-108120513D01*
X181097068Y-107883747D01*
X181239447Y-107670661D01*
X181420661Y-107489447D01*
X181633745Y-107347069D01*
X181633747Y-107347068D01*
X181870513Y-107248996D01*
X182121861Y-107199000D01*
X182378139Y-107199000D01*
X182629487Y-107248996D01*
X182629487Y-107248996D01*
G37*
G36*
X174629487Y-107248996D02*
G01*
X174866253Y-107347068D01*
X174866255Y-107347069D01*
X175079339Y-107489447D01*
X175260553Y-107670661D01*
X175402932Y-107883747D01*
X175501004Y-108120513D01*
X175551000Y-108371861D01*
X175551000Y-108628139D01*
X175501004Y-108879487D01*
X175402932Y-109116253D01*
X175402931Y-109116255D01*
X175260553Y-109329339D01*
X175079339Y-109510553D01*
X174866255Y-109652931D01*
X174866254Y-109652932D01*
X174866253Y-109652932D01*
X174629487Y-109751004D01*
X174378139Y-109801000D01*
X174121861Y-109801000D01*
X173870513Y-109751004D01*
X173633747Y-109652932D01*
X173633746Y-109652932D01*
X173633745Y-109652931D01*
X173420661Y-109510553D01*
X173239447Y-109329339D01*
X173097069Y-109116255D01*
X173097068Y-109116253D01*
X172998996Y-108879487D01*
X172949000Y-108628139D01*
X172949000Y-108371861D01*
X172998996Y-108120513D01*
X173097068Y-107883747D01*
X173239447Y-107670661D01*
X173420661Y-107489447D01*
X173633745Y-107347069D01*
X173633747Y-107347068D01*
X173870513Y-107248996D01*
X174121861Y-107199000D01*
X174378139Y-107199000D01*
X174629487Y-107248996D01*
X174629487Y-107248996D01*
G37*
G36*
X178629487Y-107248996D02*
G01*
X178866253Y-107347068D01*
X178866255Y-107347069D01*
X179079339Y-107489447D01*
X179260553Y-107670661D01*
X179402932Y-107883747D01*
X179501004Y-108120513D01*
X179551000Y-108371861D01*
X179551000Y-108628139D01*
X179501004Y-108879487D01*
X179402932Y-109116253D01*
X179402931Y-109116255D01*
X179260553Y-109329339D01*
X179079339Y-109510553D01*
X178866255Y-109652931D01*
X178866254Y-109652932D01*
X178866253Y-109652932D01*
X178629487Y-109751004D01*
X178378139Y-109801000D01*
X178121861Y-109801000D01*
X177870513Y-109751004D01*
X177633747Y-109652932D01*
X177633746Y-109652932D01*
X177633745Y-109652931D01*
X177420661Y-109510553D01*
X177239447Y-109329339D01*
X177097069Y-109116255D01*
X177097068Y-109116253D01*
X176998996Y-108879487D01*
X176949000Y-108628139D01*
X176949000Y-108371861D01*
X176998996Y-108120513D01*
X177097068Y-107883747D01*
X177239447Y-107670661D01*
X177420661Y-107489447D01*
X177633745Y-107347069D01*
X177633747Y-107347068D01*
X177870513Y-107248996D01*
X178121861Y-107199000D01*
X178378139Y-107199000D01*
X178629487Y-107248996D01*
X178629487Y-107248996D01*
G37*
G36*
X190876000Y-108091000D02*
G01*
X189024000Y-108091000D01*
X189024000Y-105989000D01*
X190876000Y-105989000D01*
X190876000Y-108091000D01*
X190876000Y-108091000D01*
G37*
G36*
X201476000Y-108091000D02*
G01*
X199624000Y-108091000D01*
X199624000Y-105989000D01*
X201476000Y-105989000D01*
X201476000Y-108091000D01*
X201476000Y-108091000D01*
G37*
G36*
X134241000Y-105936000D02*
G01*
X131219000Y-105936000D01*
X131219000Y-104564000D01*
X134241000Y-104564000D01*
X134241000Y-105936000D01*
X134241000Y-105936000D01*
G37*
G36*
X201476000Y-105551000D02*
G01*
X199624000Y-105551000D01*
X199624000Y-103449000D01*
X201476000Y-103449000D01*
X201476000Y-105551000D01*
X201476000Y-105551000D01*
G37*
G36*
X190876000Y-105551000D02*
G01*
X189024000Y-105551000D01*
X189024000Y-103449000D01*
X190876000Y-103449000D01*
X190876000Y-105551000D01*
X190876000Y-105551000D01*
G37*
G36*
X227441560Y-102289064D02*
G01*
X227593027Y-102319193D01*
X227807045Y-102407842D01*
X227807046Y-102407843D01*
X227999654Y-102536539D01*
X228163461Y-102700346D01*
X228249258Y-102828751D01*
X228292158Y-102892955D01*
X228380807Y-103106973D01*
X228426000Y-103334174D01*
X228426000Y-103565826D01*
X228380807Y-103793027D01*
X228292158Y-104007045D01*
X228292157Y-104007046D01*
X228163461Y-104199654D01*
X227999654Y-104363461D01*
X227871249Y-104449258D01*
X227807045Y-104492158D01*
X227593027Y-104580807D01*
X227441560Y-104610936D01*
X227365827Y-104626000D01*
X227134173Y-104626000D01*
X227058440Y-104610936D01*
X226906973Y-104580807D01*
X226692955Y-104492158D01*
X226628751Y-104449258D01*
X226500346Y-104363461D01*
X226336539Y-104199654D01*
X226207843Y-104007046D01*
X226207842Y-104007045D01*
X226119193Y-103793027D01*
X226074000Y-103565826D01*
X226074000Y-103334174D01*
X226119193Y-103106973D01*
X226207842Y-102892955D01*
X226250742Y-102828751D01*
X226336539Y-102700346D01*
X226500346Y-102536539D01*
X226692954Y-102407843D01*
X226692955Y-102407842D01*
X226906973Y-102319193D01*
X227058440Y-102289064D01*
X227134173Y-102274000D01*
X227365827Y-102274000D01*
X227441560Y-102289064D01*
X227441560Y-102289064D01*
G37*
G36*
X190876000Y-103011000D02*
G01*
X189024000Y-103011000D01*
X189024000Y-100909000D01*
X190876000Y-100909000D01*
X190876000Y-103011000D01*
X190876000Y-103011000D01*
G37*
G36*
X201476000Y-103011000D02*
G01*
X199624000Y-103011000D01*
X199624000Y-100909000D01*
X201476000Y-100909000D01*
X201476000Y-103011000D01*
X201476000Y-103011000D01*
G37*
G36*
X134241000Y-102936000D02*
G01*
X131219000Y-102936000D01*
X131219000Y-101564000D01*
X134241000Y-101564000D01*
X134241000Y-102936000D01*
X134241000Y-102936000D01*
G37*
G36*
X205850500Y-102551000D02*
G01*
X204273500Y-102551000D01*
X204273500Y-97449000D01*
X205850500Y-97449000D01*
X205850500Y-102551000D01*
X205850500Y-102551000D01*
G37*
G36*
X211726500Y-102551000D02*
G01*
X210149500Y-102551000D01*
X210149500Y-97449000D01*
X211726500Y-97449000D01*
X211726500Y-102551000D01*
X211726500Y-102551000D01*
G37*
G36*
X237971854Y-97477186D02*
G01*
X238105547Y-97503779D01*
X238483355Y-97660273D01*
X238823373Y-97887465D01*
X239112535Y-98176627D01*
X239339727Y-98516645D01*
X239496221Y-98894453D01*
X239576000Y-99295532D01*
X239576000Y-99704468D01*
X239496221Y-100105547D01*
X239339727Y-100483355D01*
X239112535Y-100823373D01*
X238823373Y-101112535D01*
X238483355Y-101339727D01*
X238105547Y-101496221D01*
X237971854Y-101522814D01*
X237704470Y-101576000D01*
X237295530Y-101576000D01*
X237028146Y-101522814D01*
X236894453Y-101496221D01*
X236516645Y-101339727D01*
X236176627Y-101112535D01*
X235887465Y-100823373D01*
X235660273Y-100483355D01*
X235503779Y-100105547D01*
X235424000Y-99704468D01*
X235424000Y-99295532D01*
X235503779Y-98894453D01*
X235660273Y-98516645D01*
X235887465Y-98176627D01*
X236176627Y-97887465D01*
X236516645Y-97660273D01*
X236894453Y-97503779D01*
X237028146Y-97477186D01*
X237295530Y-97424000D01*
X237704470Y-97424000D01*
X237971854Y-97477186D01*
X237971854Y-97477186D01*
G37*
G36*
X134241000Y-99936000D02*
G01*
X131219000Y-99936000D01*
X131219000Y-98564000D01*
X134241000Y-98564000D01*
X134241000Y-99936000D01*
X134241000Y-99936000D01*
G37*
G36*
X201476000Y-97591000D02*
G01*
X199624000Y-97591000D01*
X199624000Y-95489000D01*
X201476000Y-95489000D01*
X201476000Y-97591000D01*
X201476000Y-97591000D01*
G37*
G36*
X190876000Y-97591000D02*
G01*
X189024000Y-97591000D01*
X189024000Y-95489000D01*
X190876000Y-95489000D01*
X190876000Y-97591000D01*
X190876000Y-97591000D01*
G37*
G36*
X128126000Y-97311000D02*
G01*
X126374000Y-97311000D01*
X126374000Y-93779000D01*
X128126000Y-93779000D01*
X128126000Y-97311000D01*
X128126000Y-97311000D01*
G37*
G36*
X136118888Y-94132944D02*
G01*
X136209240Y-94150916D01*
X136464570Y-94256677D01*
X136694361Y-94410218D01*
X136889782Y-94605639D01*
X137043323Y-94835430D01*
X137149084Y-95090760D01*
X137203000Y-95361817D01*
X137203000Y-95638183D01*
X137149084Y-95909240D01*
X137043323Y-96164570D01*
X136889782Y-96394361D01*
X136694361Y-96589782D01*
X136464570Y-96743323D01*
X136209240Y-96849084D01*
X136118888Y-96867056D01*
X135938185Y-96903000D01*
X135661815Y-96903000D01*
X135481112Y-96867056D01*
X135390760Y-96849084D01*
X135135430Y-96743323D01*
X134905639Y-96589782D01*
X134710218Y-96394361D01*
X134556677Y-96164570D01*
X134450916Y-95909240D01*
X134397000Y-95638183D01*
X134397000Y-95361817D01*
X134450916Y-95090760D01*
X134556677Y-94835430D01*
X134710218Y-94605639D01*
X134905639Y-94410218D01*
X135135430Y-94256677D01*
X135390760Y-94150916D01*
X135481112Y-94132944D01*
X135661815Y-94097000D01*
X135938185Y-94097000D01*
X136118888Y-94132944D01*
X136118888Y-94132944D01*
G37*
G36*
X228426000Y-96726000D02*
G01*
X226074000Y-96726000D01*
X226074000Y-94374000D01*
X228426000Y-94374000D01*
X228426000Y-96726000D01*
X228426000Y-96726000D01*
G37*
G36*
X130818888Y-92882944D02*
G01*
X130909240Y-92900916D01*
X131164570Y-93006677D01*
X131394361Y-93160218D01*
X131589782Y-93355639D01*
X131743323Y-93585430D01*
X131849084Y-93840760D01*
X131903000Y-94111817D01*
X131903000Y-94388183D01*
X131849084Y-94659240D01*
X131743323Y-94914570D01*
X131589782Y-95144361D01*
X131394361Y-95339782D01*
X131164570Y-95493323D01*
X130909240Y-95599084D01*
X130818888Y-95617056D01*
X130638185Y-95653000D01*
X130361815Y-95653000D01*
X130181112Y-95617056D01*
X130090760Y-95599084D01*
X129835430Y-95493323D01*
X129605639Y-95339782D01*
X129410218Y-95144361D01*
X129256677Y-94914570D01*
X129150916Y-94659240D01*
X129097000Y-94388183D01*
X129097000Y-94111817D01*
X129150916Y-93840760D01*
X129256677Y-93585430D01*
X129410218Y-93355639D01*
X129605639Y-93160218D01*
X129835430Y-93006677D01*
X130090760Y-92900916D01*
X130181112Y-92882944D01*
X130361815Y-92847000D01*
X130638185Y-92847000D01*
X130818888Y-92882944D01*
X130818888Y-92882944D01*
G37*
G36*
X190876000Y-95051000D02*
G01*
X189024000Y-95051000D01*
X189024000Y-92949000D01*
X190876000Y-92949000D01*
X190876000Y-95051000D01*
X190876000Y-95051000D01*
G37*
G36*
X201476000Y-95051000D02*
G01*
X199624000Y-95051000D01*
X199624000Y-92949000D01*
X201476000Y-92949000D01*
X201476000Y-95051000D01*
X201476000Y-95051000D01*
G37*
G36*
X126560721Y-92220174D02*
G01*
X126660995Y-92261709D01*
X126660996Y-92261710D01*
X126751242Y-92322010D01*
X126827990Y-92398758D01*
X126827991Y-92398760D01*
X126888291Y-92489005D01*
X126929826Y-92589279D01*
X126951000Y-92695730D01*
X126951000Y-92804270D01*
X126929826Y-92910721D01*
X126888291Y-93010995D01*
X126888290Y-93010996D01*
X126827990Y-93101242D01*
X126751242Y-93177990D01*
X126705812Y-93208345D01*
X126660995Y-93238291D01*
X126560721Y-93279826D01*
X126454270Y-93301000D01*
X126345730Y-93301000D01*
X126239279Y-93279826D01*
X126139005Y-93238291D01*
X126094188Y-93208345D01*
X126048758Y-93177990D01*
X125972010Y-93101242D01*
X125911710Y-93010996D01*
X125911709Y-93010995D01*
X125870174Y-92910721D01*
X125849000Y-92804270D01*
X125849000Y-92695730D01*
X125870174Y-92589279D01*
X125911709Y-92489005D01*
X125972009Y-92398760D01*
X125972010Y-92398758D01*
X126048758Y-92322010D01*
X126139004Y-92261710D01*
X126139005Y-92261709D01*
X126239279Y-92220174D01*
X126345730Y-92199000D01*
X126454270Y-92199000D01*
X126560721Y-92220174D01*
X126560721Y-92220174D01*
G37*
G36*
X134060721Y-92220174D02*
G01*
X134160995Y-92261709D01*
X134160996Y-92261710D01*
X134251242Y-92322010D01*
X134327990Y-92398758D01*
X134327991Y-92398760D01*
X134388291Y-92489005D01*
X134429826Y-92589279D01*
X134451000Y-92695730D01*
X134451000Y-92804270D01*
X134429826Y-92910721D01*
X134388291Y-93010995D01*
X134388290Y-93010996D01*
X134327990Y-93101242D01*
X134251242Y-93177990D01*
X134205812Y-93208345D01*
X134160995Y-93238291D01*
X134060721Y-93279826D01*
X133954270Y-93301000D01*
X133845730Y-93301000D01*
X133739279Y-93279826D01*
X133639005Y-93238291D01*
X133594188Y-93208345D01*
X133548758Y-93177990D01*
X133472010Y-93101242D01*
X133411710Y-93010996D01*
X133411709Y-93010995D01*
X133370174Y-92910721D01*
X133349000Y-92804270D01*
X133349000Y-92695730D01*
X133370174Y-92589279D01*
X133411709Y-92489005D01*
X133472009Y-92398760D01*
X133472010Y-92398758D01*
X133548758Y-92322010D01*
X133639004Y-92261710D01*
X133639005Y-92261709D01*
X133739279Y-92220174D01*
X133845730Y-92199000D01*
X133954270Y-92199000D01*
X134060721Y-92220174D01*
X134060721Y-92220174D01*
G37*
G36*
X201476000Y-92511000D02*
G01*
X199624000Y-92511000D01*
X199624000Y-90409000D01*
X201476000Y-90409000D01*
X201476000Y-92511000D01*
X201476000Y-92511000D01*
G37*
G36*
X190876000Y-92511000D02*
G01*
X189024000Y-92511000D01*
X189024000Y-90409000D01*
X190876000Y-90409000D01*
X190876000Y-92511000D01*
X190876000Y-92511000D01*
G37*
G36*
X174629487Y-89498996D02*
G01*
X174866253Y-89597068D01*
X174866255Y-89597069D01*
X175079339Y-89739447D01*
X175260553Y-89920661D01*
X175402932Y-90133747D01*
X175501004Y-90370513D01*
X175551000Y-90621861D01*
X175551000Y-90878139D01*
X175501004Y-91129487D01*
X175402932Y-91366253D01*
X175402931Y-91366255D01*
X175260553Y-91579339D01*
X175079339Y-91760553D01*
X174866255Y-91902931D01*
X174866254Y-91902932D01*
X174866253Y-91902932D01*
X174629487Y-92001004D01*
X174378139Y-92051000D01*
X174121861Y-92051000D01*
X173870513Y-92001004D01*
X173633747Y-91902932D01*
X173633746Y-91902932D01*
X173633745Y-91902931D01*
X173420661Y-91760553D01*
X173239447Y-91579339D01*
X173097069Y-91366255D01*
X173097068Y-91366253D01*
X172998996Y-91129487D01*
X172949000Y-90878139D01*
X172949000Y-90621861D01*
X172998996Y-90370513D01*
X173097068Y-90133747D01*
X173239447Y-89920661D01*
X173420661Y-89739447D01*
X173633745Y-89597069D01*
X173633747Y-89597068D01*
X173870513Y-89498996D01*
X174121861Y-89449000D01*
X174378139Y-89449000D01*
X174629487Y-89498996D01*
X174629487Y-89498996D01*
G37*
G36*
X178629487Y-89498996D02*
G01*
X178866253Y-89597068D01*
X178866255Y-89597069D01*
X179079339Y-89739447D01*
X179260553Y-89920661D01*
X179402932Y-90133747D01*
X179501004Y-90370513D01*
X179551000Y-90621861D01*
X179551000Y-90878139D01*
X179501004Y-91129487D01*
X179402932Y-91366253D01*
X179402931Y-91366255D01*
X179260553Y-91579339D01*
X179079339Y-91760553D01*
X178866255Y-91902931D01*
X178866254Y-91902932D01*
X178866253Y-91902932D01*
X178629487Y-92001004D01*
X178378139Y-92051000D01*
X178121861Y-92051000D01*
X177870513Y-92001004D01*
X177633747Y-91902932D01*
X177633746Y-91902932D01*
X177633745Y-91902931D01*
X177420661Y-91760553D01*
X177239447Y-91579339D01*
X177097069Y-91366255D01*
X177097068Y-91366253D01*
X176998996Y-91129487D01*
X176949000Y-90878139D01*
X176949000Y-90621861D01*
X176998996Y-90370513D01*
X177097068Y-90133747D01*
X177239447Y-89920661D01*
X177420661Y-89739447D01*
X177633745Y-89597069D01*
X177633747Y-89597068D01*
X177870513Y-89498996D01*
X178121861Y-89449000D01*
X178378139Y-89449000D01*
X178629487Y-89498996D01*
X178629487Y-89498996D01*
G37*
G36*
X183551000Y-92051000D02*
G01*
X180949000Y-92051000D01*
X180949000Y-89449000D01*
X183551000Y-89449000D01*
X183551000Y-92051000D01*
X183551000Y-92051000D01*
G37*
G36*
X136118888Y-88632944D02*
G01*
X136209240Y-88650916D01*
X136464570Y-88756677D01*
X136694361Y-88910218D01*
X136889782Y-89105639D01*
X137043323Y-89335430D01*
X137149084Y-89590760D01*
X137203000Y-89861817D01*
X137203000Y-90138183D01*
X137149084Y-90409240D01*
X137043323Y-90664570D01*
X136889782Y-90894361D01*
X136694361Y-91089782D01*
X136464570Y-91243323D01*
X136209240Y-91349084D01*
X136122925Y-91366253D01*
X135938185Y-91403000D01*
X135661815Y-91403000D01*
X135477075Y-91366253D01*
X135390760Y-91349084D01*
X135135430Y-91243323D01*
X134905639Y-91089782D01*
X134710218Y-90894361D01*
X134556677Y-90664570D01*
X134450916Y-90409240D01*
X134397000Y-90138183D01*
X134397000Y-89861817D01*
X134450916Y-89590760D01*
X134556677Y-89335430D01*
X134710218Y-89105639D01*
X134905639Y-88910218D01*
X135135430Y-88756677D01*
X135390760Y-88650916D01*
X135481112Y-88632944D01*
X135661815Y-88597000D01*
X135938185Y-88597000D01*
X136118888Y-88632944D01*
X136118888Y-88632944D01*
G37*
M02*
