G04 #@! TF.GenerationSoftware,KiCad,Pcbnew,(5.1.0)-1*
G04 #@! TF.CreationDate,2022-11-08T16:58:41+01:00*
G04 #@! TF.ProjectId,DualPressure_V1,4475616c-5072-4657-9373-7572655f5631,rev?*
G04 #@! TF.SameCoordinates,Original*
G04 #@! TF.FileFunction,Paste,Top*
G04 #@! TF.FilePolarity,Positive*
%FSLAX46Y46*%
G04 Gerber Fmt 4.6, Leading zero omitted, Abs format (unit mm)*
G04 Created by KiCad (PCBNEW (5.1.0)-1) date 2022-11-08 16:58:41*
%MOMM*%
%LPD*%
G04 APERTURE LIST*
%ADD10C,0.100000*%
%ADD11C,2.500000*%
%ADD12C,0.950000*%
%ADD13C,1.150000*%
%ADD14C,1.425000*%
%ADD15R,1.670000X1.820000*%
%ADD16R,2.100000X1.500000*%
%ADD17R,0.750000X0.350000*%
%ADD18R,1.600000X2.400000*%
%ADD19R,2.300000X0.500000*%
%ADD20R,2.500000X2.000000*%
%ADD21R,1.016000X3.050000*%
%ADD22R,10.660000X8.380000*%
%ADD23R,0.650000X1.050000*%
G04 APERTURE END LIST*
D10*
G36*
X155174504Y-91001204D02*
G01*
X155198773Y-91004804D01*
X155222571Y-91010765D01*
X155245671Y-91019030D01*
X155267849Y-91029520D01*
X155288893Y-91042133D01*
X155308598Y-91056747D01*
X155326777Y-91073223D01*
X155343253Y-91091402D01*
X155357867Y-91111107D01*
X155370480Y-91132151D01*
X155380970Y-91154329D01*
X155389235Y-91177429D01*
X155395196Y-91201227D01*
X155398796Y-91225496D01*
X155400000Y-91250000D01*
X155400000Y-93250000D01*
X155398796Y-93274504D01*
X155395196Y-93298773D01*
X155389235Y-93322571D01*
X155380970Y-93345671D01*
X155370480Y-93367849D01*
X155357867Y-93388893D01*
X155343253Y-93408598D01*
X155326777Y-93426777D01*
X155308598Y-93443253D01*
X155288893Y-93457867D01*
X155267849Y-93470480D01*
X155245671Y-93480970D01*
X155222571Y-93489235D01*
X155198773Y-93495196D01*
X155174504Y-93498796D01*
X155150000Y-93500000D01*
X151250000Y-93500000D01*
X151225496Y-93498796D01*
X151201227Y-93495196D01*
X151177429Y-93489235D01*
X151154329Y-93480970D01*
X151132151Y-93470480D01*
X151111107Y-93457867D01*
X151091402Y-93443253D01*
X151073223Y-93426777D01*
X151056747Y-93408598D01*
X151042133Y-93388893D01*
X151029520Y-93367849D01*
X151019030Y-93345671D01*
X151010765Y-93322571D01*
X151004804Y-93298773D01*
X151001204Y-93274504D01*
X151000000Y-93250000D01*
X151000000Y-91250000D01*
X151001204Y-91225496D01*
X151004804Y-91201227D01*
X151010765Y-91177429D01*
X151019030Y-91154329D01*
X151029520Y-91132151D01*
X151042133Y-91111107D01*
X151056747Y-91091402D01*
X151073223Y-91073223D01*
X151091402Y-91056747D01*
X151111107Y-91042133D01*
X151132151Y-91029520D01*
X151154329Y-91019030D01*
X151177429Y-91010765D01*
X151201227Y-91004804D01*
X151225496Y-91001204D01*
X151250000Y-91000000D01*
X155150000Y-91000000D01*
X155174504Y-91001204D01*
X155174504Y-91001204D01*
G37*
D11*
X153200000Y-92250000D03*
D10*
G36*
X147774504Y-91001204D02*
G01*
X147798773Y-91004804D01*
X147822571Y-91010765D01*
X147845671Y-91019030D01*
X147867849Y-91029520D01*
X147888893Y-91042133D01*
X147908598Y-91056747D01*
X147926777Y-91073223D01*
X147943253Y-91091402D01*
X147957867Y-91111107D01*
X147970480Y-91132151D01*
X147980970Y-91154329D01*
X147989235Y-91177429D01*
X147995196Y-91201227D01*
X147998796Y-91225496D01*
X148000000Y-91250000D01*
X148000000Y-93250000D01*
X147998796Y-93274504D01*
X147995196Y-93298773D01*
X147989235Y-93322571D01*
X147980970Y-93345671D01*
X147970480Y-93367849D01*
X147957867Y-93388893D01*
X147943253Y-93408598D01*
X147926777Y-93426777D01*
X147908598Y-93443253D01*
X147888893Y-93457867D01*
X147867849Y-93470480D01*
X147845671Y-93480970D01*
X147822571Y-93489235D01*
X147798773Y-93495196D01*
X147774504Y-93498796D01*
X147750000Y-93500000D01*
X143850000Y-93500000D01*
X143825496Y-93498796D01*
X143801227Y-93495196D01*
X143777429Y-93489235D01*
X143754329Y-93480970D01*
X143732151Y-93470480D01*
X143711107Y-93457867D01*
X143691402Y-93443253D01*
X143673223Y-93426777D01*
X143656747Y-93408598D01*
X143642133Y-93388893D01*
X143629520Y-93367849D01*
X143619030Y-93345671D01*
X143610765Y-93322571D01*
X143604804Y-93298773D01*
X143601204Y-93274504D01*
X143600000Y-93250000D01*
X143600000Y-91250000D01*
X143601204Y-91225496D01*
X143604804Y-91201227D01*
X143610765Y-91177429D01*
X143619030Y-91154329D01*
X143629520Y-91132151D01*
X143642133Y-91111107D01*
X143656747Y-91091402D01*
X143673223Y-91073223D01*
X143691402Y-91056747D01*
X143711107Y-91042133D01*
X143732151Y-91029520D01*
X143754329Y-91019030D01*
X143777429Y-91010765D01*
X143801227Y-91004804D01*
X143825496Y-91001204D01*
X143850000Y-91000000D01*
X147750000Y-91000000D01*
X147774504Y-91001204D01*
X147774504Y-91001204D01*
G37*
D11*
X145800000Y-92250000D03*
D10*
G36*
X155674504Y-104001204D02*
G01*
X155698773Y-104004804D01*
X155722571Y-104010765D01*
X155745671Y-104019030D01*
X155767849Y-104029520D01*
X155788893Y-104042133D01*
X155808598Y-104056747D01*
X155826777Y-104073223D01*
X155843253Y-104091402D01*
X155857867Y-104111107D01*
X155870480Y-104132151D01*
X155880970Y-104154329D01*
X155889235Y-104177429D01*
X155895196Y-104201227D01*
X155898796Y-104225496D01*
X155900000Y-104250000D01*
X155900000Y-106250000D01*
X155898796Y-106274504D01*
X155895196Y-106298773D01*
X155889235Y-106322571D01*
X155880970Y-106345671D01*
X155870480Y-106367849D01*
X155857867Y-106388893D01*
X155843253Y-106408598D01*
X155826777Y-106426777D01*
X155808598Y-106443253D01*
X155788893Y-106457867D01*
X155767849Y-106470480D01*
X155745671Y-106480970D01*
X155722571Y-106489235D01*
X155698773Y-106495196D01*
X155674504Y-106498796D01*
X155650000Y-106500000D01*
X151750000Y-106500000D01*
X151725496Y-106498796D01*
X151701227Y-106495196D01*
X151677429Y-106489235D01*
X151654329Y-106480970D01*
X151632151Y-106470480D01*
X151611107Y-106457867D01*
X151591402Y-106443253D01*
X151573223Y-106426777D01*
X151556747Y-106408598D01*
X151542133Y-106388893D01*
X151529520Y-106367849D01*
X151519030Y-106345671D01*
X151510765Y-106322571D01*
X151504804Y-106298773D01*
X151501204Y-106274504D01*
X151500000Y-106250000D01*
X151500000Y-104250000D01*
X151501204Y-104225496D01*
X151504804Y-104201227D01*
X151510765Y-104177429D01*
X151519030Y-104154329D01*
X151529520Y-104132151D01*
X151542133Y-104111107D01*
X151556747Y-104091402D01*
X151573223Y-104073223D01*
X151591402Y-104056747D01*
X151611107Y-104042133D01*
X151632151Y-104029520D01*
X151654329Y-104019030D01*
X151677429Y-104010765D01*
X151701227Y-104004804D01*
X151725496Y-104001204D01*
X151750000Y-104000000D01*
X155650000Y-104000000D01*
X155674504Y-104001204D01*
X155674504Y-104001204D01*
G37*
D11*
X153700000Y-105250000D03*
D10*
G36*
X147274504Y-104001204D02*
G01*
X147298773Y-104004804D01*
X147322571Y-104010765D01*
X147345671Y-104019030D01*
X147367849Y-104029520D01*
X147388893Y-104042133D01*
X147408598Y-104056747D01*
X147426777Y-104073223D01*
X147443253Y-104091402D01*
X147457867Y-104111107D01*
X147470480Y-104132151D01*
X147480970Y-104154329D01*
X147489235Y-104177429D01*
X147495196Y-104201227D01*
X147498796Y-104225496D01*
X147500000Y-104250000D01*
X147500000Y-106250000D01*
X147498796Y-106274504D01*
X147495196Y-106298773D01*
X147489235Y-106322571D01*
X147480970Y-106345671D01*
X147470480Y-106367849D01*
X147457867Y-106388893D01*
X147443253Y-106408598D01*
X147426777Y-106426777D01*
X147408598Y-106443253D01*
X147388893Y-106457867D01*
X147367849Y-106470480D01*
X147345671Y-106480970D01*
X147322571Y-106489235D01*
X147298773Y-106495196D01*
X147274504Y-106498796D01*
X147250000Y-106500000D01*
X143350000Y-106500000D01*
X143325496Y-106498796D01*
X143301227Y-106495196D01*
X143277429Y-106489235D01*
X143254329Y-106480970D01*
X143232151Y-106470480D01*
X143211107Y-106457867D01*
X143191402Y-106443253D01*
X143173223Y-106426777D01*
X143156747Y-106408598D01*
X143142133Y-106388893D01*
X143129520Y-106367849D01*
X143119030Y-106345671D01*
X143110765Y-106322571D01*
X143104804Y-106298773D01*
X143101204Y-106274504D01*
X143100000Y-106250000D01*
X143100000Y-104250000D01*
X143101204Y-104225496D01*
X143104804Y-104201227D01*
X143110765Y-104177429D01*
X143119030Y-104154329D01*
X143129520Y-104132151D01*
X143142133Y-104111107D01*
X143156747Y-104091402D01*
X143173223Y-104073223D01*
X143191402Y-104056747D01*
X143211107Y-104042133D01*
X143232151Y-104029520D01*
X143254329Y-104019030D01*
X143277429Y-104010765D01*
X143301227Y-104004804D01*
X143325496Y-104001204D01*
X143350000Y-104000000D01*
X147250000Y-104000000D01*
X147274504Y-104001204D01*
X147274504Y-104001204D01*
G37*
D11*
X145300000Y-105250000D03*
D10*
G36*
X172260779Y-102476144D02*
G01*
X172283834Y-102479563D01*
X172306443Y-102485227D01*
X172328387Y-102493079D01*
X172349457Y-102503044D01*
X172369448Y-102515026D01*
X172388168Y-102528910D01*
X172405438Y-102544562D01*
X172421090Y-102561832D01*
X172434974Y-102580552D01*
X172446956Y-102600543D01*
X172456921Y-102621613D01*
X172464773Y-102643557D01*
X172470437Y-102666166D01*
X172473856Y-102689221D01*
X172475000Y-102712500D01*
X172475000Y-103287500D01*
X172473856Y-103310779D01*
X172470437Y-103333834D01*
X172464773Y-103356443D01*
X172456921Y-103378387D01*
X172446956Y-103399457D01*
X172434974Y-103419448D01*
X172421090Y-103438168D01*
X172405438Y-103455438D01*
X172388168Y-103471090D01*
X172369448Y-103484974D01*
X172349457Y-103496956D01*
X172328387Y-103506921D01*
X172306443Y-103514773D01*
X172283834Y-103520437D01*
X172260779Y-103523856D01*
X172237500Y-103525000D01*
X171762500Y-103525000D01*
X171739221Y-103523856D01*
X171716166Y-103520437D01*
X171693557Y-103514773D01*
X171671613Y-103506921D01*
X171650543Y-103496956D01*
X171630552Y-103484974D01*
X171611832Y-103471090D01*
X171594562Y-103455438D01*
X171578910Y-103438168D01*
X171565026Y-103419448D01*
X171553044Y-103399457D01*
X171543079Y-103378387D01*
X171535227Y-103356443D01*
X171529563Y-103333834D01*
X171526144Y-103310779D01*
X171525000Y-103287500D01*
X171525000Y-102712500D01*
X171526144Y-102689221D01*
X171529563Y-102666166D01*
X171535227Y-102643557D01*
X171543079Y-102621613D01*
X171553044Y-102600543D01*
X171565026Y-102580552D01*
X171578910Y-102561832D01*
X171594562Y-102544562D01*
X171611832Y-102528910D01*
X171630552Y-102515026D01*
X171650543Y-102503044D01*
X171671613Y-102493079D01*
X171693557Y-102485227D01*
X171716166Y-102479563D01*
X171739221Y-102476144D01*
X171762500Y-102475000D01*
X172237500Y-102475000D01*
X172260779Y-102476144D01*
X172260779Y-102476144D01*
G37*
D12*
X172000000Y-103000000D03*
D10*
G36*
X172260779Y-100726144D02*
G01*
X172283834Y-100729563D01*
X172306443Y-100735227D01*
X172328387Y-100743079D01*
X172349457Y-100753044D01*
X172369448Y-100765026D01*
X172388168Y-100778910D01*
X172405438Y-100794562D01*
X172421090Y-100811832D01*
X172434974Y-100830552D01*
X172446956Y-100850543D01*
X172456921Y-100871613D01*
X172464773Y-100893557D01*
X172470437Y-100916166D01*
X172473856Y-100939221D01*
X172475000Y-100962500D01*
X172475000Y-101537500D01*
X172473856Y-101560779D01*
X172470437Y-101583834D01*
X172464773Y-101606443D01*
X172456921Y-101628387D01*
X172446956Y-101649457D01*
X172434974Y-101669448D01*
X172421090Y-101688168D01*
X172405438Y-101705438D01*
X172388168Y-101721090D01*
X172369448Y-101734974D01*
X172349457Y-101746956D01*
X172328387Y-101756921D01*
X172306443Y-101764773D01*
X172283834Y-101770437D01*
X172260779Y-101773856D01*
X172237500Y-101775000D01*
X171762500Y-101775000D01*
X171739221Y-101773856D01*
X171716166Y-101770437D01*
X171693557Y-101764773D01*
X171671613Y-101756921D01*
X171650543Y-101746956D01*
X171630552Y-101734974D01*
X171611832Y-101721090D01*
X171594562Y-101705438D01*
X171578910Y-101688168D01*
X171565026Y-101669448D01*
X171553044Y-101649457D01*
X171543079Y-101628387D01*
X171535227Y-101606443D01*
X171529563Y-101583834D01*
X171526144Y-101560779D01*
X171525000Y-101537500D01*
X171525000Y-100962500D01*
X171526144Y-100939221D01*
X171529563Y-100916166D01*
X171535227Y-100893557D01*
X171543079Y-100871613D01*
X171553044Y-100850543D01*
X171565026Y-100830552D01*
X171578910Y-100811832D01*
X171594562Y-100794562D01*
X171611832Y-100778910D01*
X171630552Y-100765026D01*
X171650543Y-100753044D01*
X171671613Y-100743079D01*
X171693557Y-100735227D01*
X171716166Y-100729563D01*
X171739221Y-100726144D01*
X171762500Y-100725000D01*
X172237500Y-100725000D01*
X172260779Y-100726144D01*
X172260779Y-100726144D01*
G37*
D12*
X172000000Y-101250000D03*
D10*
G36*
X180124505Y-99301204D02*
G01*
X180148773Y-99304804D01*
X180172572Y-99310765D01*
X180195671Y-99319030D01*
X180217850Y-99329520D01*
X180238893Y-99342132D01*
X180258599Y-99356747D01*
X180276777Y-99373223D01*
X180293253Y-99391401D01*
X180307868Y-99411107D01*
X180320480Y-99432150D01*
X180330970Y-99454329D01*
X180339235Y-99477428D01*
X180345196Y-99501227D01*
X180348796Y-99525495D01*
X180350000Y-99549999D01*
X180350000Y-100450001D01*
X180348796Y-100474505D01*
X180345196Y-100498773D01*
X180339235Y-100522572D01*
X180330970Y-100545671D01*
X180320480Y-100567850D01*
X180307868Y-100588893D01*
X180293253Y-100608599D01*
X180276777Y-100626777D01*
X180258599Y-100643253D01*
X180238893Y-100657868D01*
X180217850Y-100670480D01*
X180195671Y-100680970D01*
X180172572Y-100689235D01*
X180148773Y-100695196D01*
X180124505Y-100698796D01*
X180100001Y-100700000D01*
X179449999Y-100700000D01*
X179425495Y-100698796D01*
X179401227Y-100695196D01*
X179377428Y-100689235D01*
X179354329Y-100680970D01*
X179332150Y-100670480D01*
X179311107Y-100657868D01*
X179291401Y-100643253D01*
X179273223Y-100626777D01*
X179256747Y-100608599D01*
X179242132Y-100588893D01*
X179229520Y-100567850D01*
X179219030Y-100545671D01*
X179210765Y-100522572D01*
X179204804Y-100498773D01*
X179201204Y-100474505D01*
X179200000Y-100450001D01*
X179200000Y-99549999D01*
X179201204Y-99525495D01*
X179204804Y-99501227D01*
X179210765Y-99477428D01*
X179219030Y-99454329D01*
X179229520Y-99432150D01*
X179242132Y-99411107D01*
X179256747Y-99391401D01*
X179273223Y-99373223D01*
X179291401Y-99356747D01*
X179311107Y-99342132D01*
X179332150Y-99329520D01*
X179354329Y-99319030D01*
X179377428Y-99310765D01*
X179401227Y-99304804D01*
X179425495Y-99301204D01*
X179449999Y-99300000D01*
X180100001Y-99300000D01*
X180124505Y-99301204D01*
X180124505Y-99301204D01*
G37*
D13*
X179775000Y-100000000D03*
D10*
G36*
X178074505Y-99301204D02*
G01*
X178098773Y-99304804D01*
X178122572Y-99310765D01*
X178145671Y-99319030D01*
X178167850Y-99329520D01*
X178188893Y-99342132D01*
X178208599Y-99356747D01*
X178226777Y-99373223D01*
X178243253Y-99391401D01*
X178257868Y-99411107D01*
X178270480Y-99432150D01*
X178280970Y-99454329D01*
X178289235Y-99477428D01*
X178295196Y-99501227D01*
X178298796Y-99525495D01*
X178300000Y-99549999D01*
X178300000Y-100450001D01*
X178298796Y-100474505D01*
X178295196Y-100498773D01*
X178289235Y-100522572D01*
X178280970Y-100545671D01*
X178270480Y-100567850D01*
X178257868Y-100588893D01*
X178243253Y-100608599D01*
X178226777Y-100626777D01*
X178208599Y-100643253D01*
X178188893Y-100657868D01*
X178167850Y-100670480D01*
X178145671Y-100680970D01*
X178122572Y-100689235D01*
X178098773Y-100695196D01*
X178074505Y-100698796D01*
X178050001Y-100700000D01*
X177399999Y-100700000D01*
X177375495Y-100698796D01*
X177351227Y-100695196D01*
X177327428Y-100689235D01*
X177304329Y-100680970D01*
X177282150Y-100670480D01*
X177261107Y-100657868D01*
X177241401Y-100643253D01*
X177223223Y-100626777D01*
X177206747Y-100608599D01*
X177192132Y-100588893D01*
X177179520Y-100567850D01*
X177169030Y-100545671D01*
X177160765Y-100522572D01*
X177154804Y-100498773D01*
X177151204Y-100474505D01*
X177150000Y-100450001D01*
X177150000Y-99549999D01*
X177151204Y-99525495D01*
X177154804Y-99501227D01*
X177160765Y-99477428D01*
X177169030Y-99454329D01*
X177179520Y-99432150D01*
X177192132Y-99411107D01*
X177206747Y-99391401D01*
X177223223Y-99373223D01*
X177241401Y-99356747D01*
X177261107Y-99342132D01*
X177282150Y-99329520D01*
X177304329Y-99319030D01*
X177327428Y-99310765D01*
X177351227Y-99304804D01*
X177375495Y-99301204D01*
X177399999Y-99300000D01*
X178050001Y-99300000D01*
X178074505Y-99301204D01*
X178074505Y-99301204D01*
G37*
D13*
X177725000Y-100000000D03*
D10*
G36*
X178074505Y-97301204D02*
G01*
X178098773Y-97304804D01*
X178122572Y-97310765D01*
X178145671Y-97319030D01*
X178167850Y-97329520D01*
X178188893Y-97342132D01*
X178208599Y-97356747D01*
X178226777Y-97373223D01*
X178243253Y-97391401D01*
X178257868Y-97411107D01*
X178270480Y-97432150D01*
X178280970Y-97454329D01*
X178289235Y-97477428D01*
X178295196Y-97501227D01*
X178298796Y-97525495D01*
X178300000Y-97549999D01*
X178300000Y-98450001D01*
X178298796Y-98474505D01*
X178295196Y-98498773D01*
X178289235Y-98522572D01*
X178280970Y-98545671D01*
X178270480Y-98567850D01*
X178257868Y-98588893D01*
X178243253Y-98608599D01*
X178226777Y-98626777D01*
X178208599Y-98643253D01*
X178188893Y-98657868D01*
X178167850Y-98670480D01*
X178145671Y-98680970D01*
X178122572Y-98689235D01*
X178098773Y-98695196D01*
X178074505Y-98698796D01*
X178050001Y-98700000D01*
X177399999Y-98700000D01*
X177375495Y-98698796D01*
X177351227Y-98695196D01*
X177327428Y-98689235D01*
X177304329Y-98680970D01*
X177282150Y-98670480D01*
X177261107Y-98657868D01*
X177241401Y-98643253D01*
X177223223Y-98626777D01*
X177206747Y-98608599D01*
X177192132Y-98588893D01*
X177179520Y-98567850D01*
X177169030Y-98545671D01*
X177160765Y-98522572D01*
X177154804Y-98498773D01*
X177151204Y-98474505D01*
X177150000Y-98450001D01*
X177150000Y-97549999D01*
X177151204Y-97525495D01*
X177154804Y-97501227D01*
X177160765Y-97477428D01*
X177169030Y-97454329D01*
X177179520Y-97432150D01*
X177192132Y-97411107D01*
X177206747Y-97391401D01*
X177223223Y-97373223D01*
X177241401Y-97356747D01*
X177261107Y-97342132D01*
X177282150Y-97329520D01*
X177304329Y-97319030D01*
X177327428Y-97310765D01*
X177351227Y-97304804D01*
X177375495Y-97301204D01*
X177399999Y-97300000D01*
X178050001Y-97300000D01*
X178074505Y-97301204D01*
X178074505Y-97301204D01*
G37*
D13*
X177725000Y-98000000D03*
D10*
G36*
X180124505Y-97301204D02*
G01*
X180148773Y-97304804D01*
X180172572Y-97310765D01*
X180195671Y-97319030D01*
X180217850Y-97329520D01*
X180238893Y-97342132D01*
X180258599Y-97356747D01*
X180276777Y-97373223D01*
X180293253Y-97391401D01*
X180307868Y-97411107D01*
X180320480Y-97432150D01*
X180330970Y-97454329D01*
X180339235Y-97477428D01*
X180345196Y-97501227D01*
X180348796Y-97525495D01*
X180350000Y-97549999D01*
X180350000Y-98450001D01*
X180348796Y-98474505D01*
X180345196Y-98498773D01*
X180339235Y-98522572D01*
X180330970Y-98545671D01*
X180320480Y-98567850D01*
X180307868Y-98588893D01*
X180293253Y-98608599D01*
X180276777Y-98626777D01*
X180258599Y-98643253D01*
X180238893Y-98657868D01*
X180217850Y-98670480D01*
X180195671Y-98680970D01*
X180172572Y-98689235D01*
X180148773Y-98695196D01*
X180124505Y-98698796D01*
X180100001Y-98700000D01*
X179449999Y-98700000D01*
X179425495Y-98698796D01*
X179401227Y-98695196D01*
X179377428Y-98689235D01*
X179354329Y-98680970D01*
X179332150Y-98670480D01*
X179311107Y-98657868D01*
X179291401Y-98643253D01*
X179273223Y-98626777D01*
X179256747Y-98608599D01*
X179242132Y-98588893D01*
X179229520Y-98567850D01*
X179219030Y-98545671D01*
X179210765Y-98522572D01*
X179204804Y-98498773D01*
X179201204Y-98474505D01*
X179200000Y-98450001D01*
X179200000Y-97549999D01*
X179201204Y-97525495D01*
X179204804Y-97501227D01*
X179210765Y-97477428D01*
X179219030Y-97454329D01*
X179229520Y-97432150D01*
X179242132Y-97411107D01*
X179256747Y-97391401D01*
X179273223Y-97373223D01*
X179291401Y-97356747D01*
X179311107Y-97342132D01*
X179332150Y-97329520D01*
X179354329Y-97319030D01*
X179377428Y-97310765D01*
X179401227Y-97304804D01*
X179425495Y-97301204D01*
X179449999Y-97300000D01*
X180100001Y-97300000D01*
X180124505Y-97301204D01*
X180124505Y-97301204D01*
G37*
D13*
X179775000Y-98000000D03*
D10*
G36*
X180124505Y-95301204D02*
G01*
X180148773Y-95304804D01*
X180172572Y-95310765D01*
X180195671Y-95319030D01*
X180217850Y-95329520D01*
X180238893Y-95342132D01*
X180258599Y-95356747D01*
X180276777Y-95373223D01*
X180293253Y-95391401D01*
X180307868Y-95411107D01*
X180320480Y-95432150D01*
X180330970Y-95454329D01*
X180339235Y-95477428D01*
X180345196Y-95501227D01*
X180348796Y-95525495D01*
X180350000Y-95549999D01*
X180350000Y-96450001D01*
X180348796Y-96474505D01*
X180345196Y-96498773D01*
X180339235Y-96522572D01*
X180330970Y-96545671D01*
X180320480Y-96567850D01*
X180307868Y-96588893D01*
X180293253Y-96608599D01*
X180276777Y-96626777D01*
X180258599Y-96643253D01*
X180238893Y-96657868D01*
X180217850Y-96670480D01*
X180195671Y-96680970D01*
X180172572Y-96689235D01*
X180148773Y-96695196D01*
X180124505Y-96698796D01*
X180100001Y-96700000D01*
X179449999Y-96700000D01*
X179425495Y-96698796D01*
X179401227Y-96695196D01*
X179377428Y-96689235D01*
X179354329Y-96680970D01*
X179332150Y-96670480D01*
X179311107Y-96657868D01*
X179291401Y-96643253D01*
X179273223Y-96626777D01*
X179256747Y-96608599D01*
X179242132Y-96588893D01*
X179229520Y-96567850D01*
X179219030Y-96545671D01*
X179210765Y-96522572D01*
X179204804Y-96498773D01*
X179201204Y-96474505D01*
X179200000Y-96450001D01*
X179200000Y-95549999D01*
X179201204Y-95525495D01*
X179204804Y-95501227D01*
X179210765Y-95477428D01*
X179219030Y-95454329D01*
X179229520Y-95432150D01*
X179242132Y-95411107D01*
X179256747Y-95391401D01*
X179273223Y-95373223D01*
X179291401Y-95356747D01*
X179311107Y-95342132D01*
X179332150Y-95329520D01*
X179354329Y-95319030D01*
X179377428Y-95310765D01*
X179401227Y-95304804D01*
X179425495Y-95301204D01*
X179449999Y-95300000D01*
X180100001Y-95300000D01*
X180124505Y-95301204D01*
X180124505Y-95301204D01*
G37*
D13*
X179775000Y-96000000D03*
D10*
G36*
X178074505Y-95301204D02*
G01*
X178098773Y-95304804D01*
X178122572Y-95310765D01*
X178145671Y-95319030D01*
X178167850Y-95329520D01*
X178188893Y-95342132D01*
X178208599Y-95356747D01*
X178226777Y-95373223D01*
X178243253Y-95391401D01*
X178257868Y-95411107D01*
X178270480Y-95432150D01*
X178280970Y-95454329D01*
X178289235Y-95477428D01*
X178295196Y-95501227D01*
X178298796Y-95525495D01*
X178300000Y-95549999D01*
X178300000Y-96450001D01*
X178298796Y-96474505D01*
X178295196Y-96498773D01*
X178289235Y-96522572D01*
X178280970Y-96545671D01*
X178270480Y-96567850D01*
X178257868Y-96588893D01*
X178243253Y-96608599D01*
X178226777Y-96626777D01*
X178208599Y-96643253D01*
X178188893Y-96657868D01*
X178167850Y-96670480D01*
X178145671Y-96680970D01*
X178122572Y-96689235D01*
X178098773Y-96695196D01*
X178074505Y-96698796D01*
X178050001Y-96700000D01*
X177399999Y-96700000D01*
X177375495Y-96698796D01*
X177351227Y-96695196D01*
X177327428Y-96689235D01*
X177304329Y-96680970D01*
X177282150Y-96670480D01*
X177261107Y-96657868D01*
X177241401Y-96643253D01*
X177223223Y-96626777D01*
X177206747Y-96608599D01*
X177192132Y-96588893D01*
X177179520Y-96567850D01*
X177169030Y-96545671D01*
X177160765Y-96522572D01*
X177154804Y-96498773D01*
X177151204Y-96474505D01*
X177150000Y-96450001D01*
X177150000Y-95549999D01*
X177151204Y-95525495D01*
X177154804Y-95501227D01*
X177160765Y-95477428D01*
X177169030Y-95454329D01*
X177179520Y-95432150D01*
X177192132Y-95411107D01*
X177206747Y-95391401D01*
X177223223Y-95373223D01*
X177241401Y-95356747D01*
X177261107Y-95342132D01*
X177282150Y-95329520D01*
X177304329Y-95319030D01*
X177327428Y-95310765D01*
X177351227Y-95304804D01*
X177375495Y-95301204D01*
X177399999Y-95300000D01*
X178050001Y-95300000D01*
X178074505Y-95301204D01*
X178074505Y-95301204D01*
G37*
D13*
X177725000Y-96000000D03*
D10*
G36*
X214899504Y-95788704D02*
G01*
X214923773Y-95792304D01*
X214947571Y-95798265D01*
X214970671Y-95806530D01*
X214992849Y-95817020D01*
X215013893Y-95829633D01*
X215033598Y-95844247D01*
X215051777Y-95860723D01*
X215068253Y-95878902D01*
X215082867Y-95898607D01*
X215095480Y-95919651D01*
X215105970Y-95941829D01*
X215114235Y-95964929D01*
X215120196Y-95988727D01*
X215123796Y-96012996D01*
X215125000Y-96037500D01*
X215125000Y-96962500D01*
X215123796Y-96987004D01*
X215120196Y-97011273D01*
X215114235Y-97035071D01*
X215105970Y-97058171D01*
X215095480Y-97080349D01*
X215082867Y-97101393D01*
X215068253Y-97121098D01*
X215051777Y-97139277D01*
X215033598Y-97155753D01*
X215013893Y-97170367D01*
X214992849Y-97182980D01*
X214970671Y-97193470D01*
X214947571Y-97201735D01*
X214923773Y-97207696D01*
X214899504Y-97211296D01*
X214875000Y-97212500D01*
X213625000Y-97212500D01*
X213600496Y-97211296D01*
X213576227Y-97207696D01*
X213552429Y-97201735D01*
X213529329Y-97193470D01*
X213507151Y-97182980D01*
X213486107Y-97170367D01*
X213466402Y-97155753D01*
X213448223Y-97139277D01*
X213431747Y-97121098D01*
X213417133Y-97101393D01*
X213404520Y-97080349D01*
X213394030Y-97058171D01*
X213385765Y-97035071D01*
X213379804Y-97011273D01*
X213376204Y-96987004D01*
X213375000Y-96962500D01*
X213375000Y-96037500D01*
X213376204Y-96012996D01*
X213379804Y-95988727D01*
X213385765Y-95964929D01*
X213394030Y-95941829D01*
X213404520Y-95919651D01*
X213417133Y-95898607D01*
X213431747Y-95878902D01*
X213448223Y-95860723D01*
X213466402Y-95844247D01*
X213486107Y-95829633D01*
X213507151Y-95817020D01*
X213529329Y-95806530D01*
X213552429Y-95798265D01*
X213576227Y-95792304D01*
X213600496Y-95788704D01*
X213625000Y-95787500D01*
X214875000Y-95787500D01*
X214899504Y-95788704D01*
X214899504Y-95788704D01*
G37*
D14*
X214250000Y-96500000D03*
D10*
G36*
X214899504Y-92813704D02*
G01*
X214923773Y-92817304D01*
X214947571Y-92823265D01*
X214970671Y-92831530D01*
X214992849Y-92842020D01*
X215013893Y-92854633D01*
X215033598Y-92869247D01*
X215051777Y-92885723D01*
X215068253Y-92903902D01*
X215082867Y-92923607D01*
X215095480Y-92944651D01*
X215105970Y-92966829D01*
X215114235Y-92989929D01*
X215120196Y-93013727D01*
X215123796Y-93037996D01*
X215125000Y-93062500D01*
X215125000Y-93987500D01*
X215123796Y-94012004D01*
X215120196Y-94036273D01*
X215114235Y-94060071D01*
X215105970Y-94083171D01*
X215095480Y-94105349D01*
X215082867Y-94126393D01*
X215068253Y-94146098D01*
X215051777Y-94164277D01*
X215033598Y-94180753D01*
X215013893Y-94195367D01*
X214992849Y-94207980D01*
X214970671Y-94218470D01*
X214947571Y-94226735D01*
X214923773Y-94232696D01*
X214899504Y-94236296D01*
X214875000Y-94237500D01*
X213625000Y-94237500D01*
X213600496Y-94236296D01*
X213576227Y-94232696D01*
X213552429Y-94226735D01*
X213529329Y-94218470D01*
X213507151Y-94207980D01*
X213486107Y-94195367D01*
X213466402Y-94180753D01*
X213448223Y-94164277D01*
X213431747Y-94146098D01*
X213417133Y-94126393D01*
X213404520Y-94105349D01*
X213394030Y-94083171D01*
X213385765Y-94060071D01*
X213379804Y-94036273D01*
X213376204Y-94012004D01*
X213375000Y-93987500D01*
X213375000Y-93062500D01*
X213376204Y-93037996D01*
X213379804Y-93013727D01*
X213385765Y-92989929D01*
X213394030Y-92966829D01*
X213404520Y-92944651D01*
X213417133Y-92923607D01*
X213431747Y-92903902D01*
X213448223Y-92885723D01*
X213466402Y-92869247D01*
X213486107Y-92854633D01*
X213507151Y-92842020D01*
X213529329Y-92831530D01*
X213552429Y-92823265D01*
X213576227Y-92817304D01*
X213600496Y-92813704D01*
X213625000Y-92812500D01*
X214875000Y-92812500D01*
X214899504Y-92813704D01*
X214899504Y-92813704D01*
G37*
D14*
X214250000Y-93525000D03*
D10*
G36*
X214899504Y-101788704D02*
G01*
X214923773Y-101792304D01*
X214947571Y-101798265D01*
X214970671Y-101806530D01*
X214992849Y-101817020D01*
X215013893Y-101829633D01*
X215033598Y-101844247D01*
X215051777Y-101860723D01*
X215068253Y-101878902D01*
X215082867Y-101898607D01*
X215095480Y-101919651D01*
X215105970Y-101941829D01*
X215114235Y-101964929D01*
X215120196Y-101988727D01*
X215123796Y-102012996D01*
X215125000Y-102037500D01*
X215125000Y-102962500D01*
X215123796Y-102987004D01*
X215120196Y-103011273D01*
X215114235Y-103035071D01*
X215105970Y-103058171D01*
X215095480Y-103080349D01*
X215082867Y-103101393D01*
X215068253Y-103121098D01*
X215051777Y-103139277D01*
X215033598Y-103155753D01*
X215013893Y-103170367D01*
X214992849Y-103182980D01*
X214970671Y-103193470D01*
X214947571Y-103201735D01*
X214923773Y-103207696D01*
X214899504Y-103211296D01*
X214875000Y-103212500D01*
X213625000Y-103212500D01*
X213600496Y-103211296D01*
X213576227Y-103207696D01*
X213552429Y-103201735D01*
X213529329Y-103193470D01*
X213507151Y-103182980D01*
X213486107Y-103170367D01*
X213466402Y-103155753D01*
X213448223Y-103139277D01*
X213431747Y-103121098D01*
X213417133Y-103101393D01*
X213404520Y-103080349D01*
X213394030Y-103058171D01*
X213385765Y-103035071D01*
X213379804Y-103011273D01*
X213376204Y-102987004D01*
X213375000Y-102962500D01*
X213375000Y-102037500D01*
X213376204Y-102012996D01*
X213379804Y-101988727D01*
X213385765Y-101964929D01*
X213394030Y-101941829D01*
X213404520Y-101919651D01*
X213417133Y-101898607D01*
X213431747Y-101878902D01*
X213448223Y-101860723D01*
X213466402Y-101844247D01*
X213486107Y-101829633D01*
X213507151Y-101817020D01*
X213529329Y-101806530D01*
X213552429Y-101798265D01*
X213576227Y-101792304D01*
X213600496Y-101788704D01*
X213625000Y-101787500D01*
X214875000Y-101787500D01*
X214899504Y-101788704D01*
X214899504Y-101788704D01*
G37*
D14*
X214250000Y-102500000D03*
D10*
G36*
X214899504Y-104763704D02*
G01*
X214923773Y-104767304D01*
X214947571Y-104773265D01*
X214970671Y-104781530D01*
X214992849Y-104792020D01*
X215013893Y-104804633D01*
X215033598Y-104819247D01*
X215051777Y-104835723D01*
X215068253Y-104853902D01*
X215082867Y-104873607D01*
X215095480Y-104894651D01*
X215105970Y-104916829D01*
X215114235Y-104939929D01*
X215120196Y-104963727D01*
X215123796Y-104987996D01*
X215125000Y-105012500D01*
X215125000Y-105937500D01*
X215123796Y-105962004D01*
X215120196Y-105986273D01*
X215114235Y-106010071D01*
X215105970Y-106033171D01*
X215095480Y-106055349D01*
X215082867Y-106076393D01*
X215068253Y-106096098D01*
X215051777Y-106114277D01*
X215033598Y-106130753D01*
X215013893Y-106145367D01*
X214992849Y-106157980D01*
X214970671Y-106168470D01*
X214947571Y-106176735D01*
X214923773Y-106182696D01*
X214899504Y-106186296D01*
X214875000Y-106187500D01*
X213625000Y-106187500D01*
X213600496Y-106186296D01*
X213576227Y-106182696D01*
X213552429Y-106176735D01*
X213529329Y-106168470D01*
X213507151Y-106157980D01*
X213486107Y-106145367D01*
X213466402Y-106130753D01*
X213448223Y-106114277D01*
X213431747Y-106096098D01*
X213417133Y-106076393D01*
X213404520Y-106055349D01*
X213394030Y-106033171D01*
X213385765Y-106010071D01*
X213379804Y-105986273D01*
X213376204Y-105962004D01*
X213375000Y-105937500D01*
X213375000Y-105012500D01*
X213376204Y-104987996D01*
X213379804Y-104963727D01*
X213385765Y-104939929D01*
X213394030Y-104916829D01*
X213404520Y-104894651D01*
X213417133Y-104873607D01*
X213431747Y-104853902D01*
X213448223Y-104835723D01*
X213466402Y-104819247D01*
X213486107Y-104804633D01*
X213507151Y-104792020D01*
X213529329Y-104781530D01*
X213552429Y-104773265D01*
X213576227Y-104767304D01*
X213600496Y-104763704D01*
X213625000Y-104762500D01*
X214875000Y-104762500D01*
X214899504Y-104763704D01*
X214899504Y-104763704D01*
G37*
D14*
X214250000Y-105475000D03*
D10*
G36*
X219649504Y-97301204D02*
G01*
X219673773Y-97304804D01*
X219697571Y-97310765D01*
X219720671Y-97319030D01*
X219742849Y-97329520D01*
X219763893Y-97342133D01*
X219783598Y-97356747D01*
X219801777Y-97373223D01*
X219818253Y-97391402D01*
X219832867Y-97411107D01*
X219845480Y-97432151D01*
X219855970Y-97454329D01*
X219864235Y-97477429D01*
X219870196Y-97501227D01*
X219873796Y-97525496D01*
X219875000Y-97550000D01*
X219875000Y-98475000D01*
X219873796Y-98499504D01*
X219870196Y-98523773D01*
X219864235Y-98547571D01*
X219855970Y-98570671D01*
X219845480Y-98592849D01*
X219832867Y-98613893D01*
X219818253Y-98633598D01*
X219801777Y-98651777D01*
X219783598Y-98668253D01*
X219763893Y-98682867D01*
X219742849Y-98695480D01*
X219720671Y-98705970D01*
X219697571Y-98714235D01*
X219673773Y-98720196D01*
X219649504Y-98723796D01*
X219625000Y-98725000D01*
X218375000Y-98725000D01*
X218350496Y-98723796D01*
X218326227Y-98720196D01*
X218302429Y-98714235D01*
X218279329Y-98705970D01*
X218257151Y-98695480D01*
X218236107Y-98682867D01*
X218216402Y-98668253D01*
X218198223Y-98651777D01*
X218181747Y-98633598D01*
X218167133Y-98613893D01*
X218154520Y-98592849D01*
X218144030Y-98570671D01*
X218135765Y-98547571D01*
X218129804Y-98523773D01*
X218126204Y-98499504D01*
X218125000Y-98475000D01*
X218125000Y-97550000D01*
X218126204Y-97525496D01*
X218129804Y-97501227D01*
X218135765Y-97477429D01*
X218144030Y-97454329D01*
X218154520Y-97432151D01*
X218167133Y-97411107D01*
X218181747Y-97391402D01*
X218198223Y-97373223D01*
X218216402Y-97356747D01*
X218236107Y-97342133D01*
X218257151Y-97329520D01*
X218279329Y-97319030D01*
X218302429Y-97310765D01*
X218326227Y-97304804D01*
X218350496Y-97301204D01*
X218375000Y-97300000D01*
X219625000Y-97300000D01*
X219649504Y-97301204D01*
X219649504Y-97301204D01*
G37*
D14*
X219000000Y-98012500D03*
D10*
G36*
X219649504Y-100276204D02*
G01*
X219673773Y-100279804D01*
X219697571Y-100285765D01*
X219720671Y-100294030D01*
X219742849Y-100304520D01*
X219763893Y-100317133D01*
X219783598Y-100331747D01*
X219801777Y-100348223D01*
X219818253Y-100366402D01*
X219832867Y-100386107D01*
X219845480Y-100407151D01*
X219855970Y-100429329D01*
X219864235Y-100452429D01*
X219870196Y-100476227D01*
X219873796Y-100500496D01*
X219875000Y-100525000D01*
X219875000Y-101450000D01*
X219873796Y-101474504D01*
X219870196Y-101498773D01*
X219864235Y-101522571D01*
X219855970Y-101545671D01*
X219845480Y-101567849D01*
X219832867Y-101588893D01*
X219818253Y-101608598D01*
X219801777Y-101626777D01*
X219783598Y-101643253D01*
X219763893Y-101657867D01*
X219742849Y-101670480D01*
X219720671Y-101680970D01*
X219697571Y-101689235D01*
X219673773Y-101695196D01*
X219649504Y-101698796D01*
X219625000Y-101700000D01*
X218375000Y-101700000D01*
X218350496Y-101698796D01*
X218326227Y-101695196D01*
X218302429Y-101689235D01*
X218279329Y-101680970D01*
X218257151Y-101670480D01*
X218236107Y-101657867D01*
X218216402Y-101643253D01*
X218198223Y-101626777D01*
X218181747Y-101608598D01*
X218167133Y-101588893D01*
X218154520Y-101567849D01*
X218144030Y-101545671D01*
X218135765Y-101522571D01*
X218129804Y-101498773D01*
X218126204Y-101474504D01*
X218125000Y-101450000D01*
X218125000Y-100525000D01*
X218126204Y-100500496D01*
X218129804Y-100476227D01*
X218135765Y-100452429D01*
X218144030Y-100429329D01*
X218154520Y-100407151D01*
X218167133Y-100386107D01*
X218181747Y-100366402D01*
X218198223Y-100348223D01*
X218216402Y-100331747D01*
X218236107Y-100317133D01*
X218257151Y-100304520D01*
X218279329Y-100294030D01*
X218302429Y-100285765D01*
X218326227Y-100279804D01*
X218350496Y-100276204D01*
X218375000Y-100275000D01*
X219625000Y-100275000D01*
X219649504Y-100276204D01*
X219649504Y-100276204D01*
G37*
D14*
X219000000Y-100987500D03*
D15*
X141250000Y-90000000D03*
X141250000Y-94200000D03*
D16*
X159750000Y-109000000D03*
X163950000Y-109000000D03*
D10*
G36*
X135074505Y-103551204D02*
G01*
X135098773Y-103554804D01*
X135122572Y-103560765D01*
X135145671Y-103569030D01*
X135167850Y-103579520D01*
X135188893Y-103592132D01*
X135208599Y-103606747D01*
X135226777Y-103623223D01*
X135243253Y-103641401D01*
X135257868Y-103661107D01*
X135270480Y-103682150D01*
X135280970Y-103704329D01*
X135289235Y-103727428D01*
X135295196Y-103751227D01*
X135298796Y-103775495D01*
X135300000Y-103799999D01*
X135300000Y-104700001D01*
X135298796Y-104724505D01*
X135295196Y-104748773D01*
X135289235Y-104772572D01*
X135280970Y-104795671D01*
X135270480Y-104817850D01*
X135257868Y-104838893D01*
X135243253Y-104858599D01*
X135226777Y-104876777D01*
X135208599Y-104893253D01*
X135188893Y-104907868D01*
X135167850Y-104920480D01*
X135145671Y-104930970D01*
X135122572Y-104939235D01*
X135098773Y-104945196D01*
X135074505Y-104948796D01*
X135050001Y-104950000D01*
X134399999Y-104950000D01*
X134375495Y-104948796D01*
X134351227Y-104945196D01*
X134327428Y-104939235D01*
X134304329Y-104930970D01*
X134282150Y-104920480D01*
X134261107Y-104907868D01*
X134241401Y-104893253D01*
X134223223Y-104876777D01*
X134206747Y-104858599D01*
X134192132Y-104838893D01*
X134179520Y-104817850D01*
X134169030Y-104795671D01*
X134160765Y-104772572D01*
X134154804Y-104748773D01*
X134151204Y-104724505D01*
X134150000Y-104700001D01*
X134150000Y-103799999D01*
X134151204Y-103775495D01*
X134154804Y-103751227D01*
X134160765Y-103727428D01*
X134169030Y-103704329D01*
X134179520Y-103682150D01*
X134192132Y-103661107D01*
X134206747Y-103641401D01*
X134223223Y-103623223D01*
X134241401Y-103606747D01*
X134261107Y-103592132D01*
X134282150Y-103579520D01*
X134304329Y-103569030D01*
X134327428Y-103560765D01*
X134351227Y-103554804D01*
X134375495Y-103551204D01*
X134399999Y-103550000D01*
X135050001Y-103550000D01*
X135074505Y-103551204D01*
X135074505Y-103551204D01*
G37*
D13*
X134725000Y-104250000D03*
D10*
G36*
X137124505Y-103551204D02*
G01*
X137148773Y-103554804D01*
X137172572Y-103560765D01*
X137195671Y-103569030D01*
X137217850Y-103579520D01*
X137238893Y-103592132D01*
X137258599Y-103606747D01*
X137276777Y-103623223D01*
X137293253Y-103641401D01*
X137307868Y-103661107D01*
X137320480Y-103682150D01*
X137330970Y-103704329D01*
X137339235Y-103727428D01*
X137345196Y-103751227D01*
X137348796Y-103775495D01*
X137350000Y-103799999D01*
X137350000Y-104700001D01*
X137348796Y-104724505D01*
X137345196Y-104748773D01*
X137339235Y-104772572D01*
X137330970Y-104795671D01*
X137320480Y-104817850D01*
X137307868Y-104838893D01*
X137293253Y-104858599D01*
X137276777Y-104876777D01*
X137258599Y-104893253D01*
X137238893Y-104907868D01*
X137217850Y-104920480D01*
X137195671Y-104930970D01*
X137172572Y-104939235D01*
X137148773Y-104945196D01*
X137124505Y-104948796D01*
X137100001Y-104950000D01*
X136449999Y-104950000D01*
X136425495Y-104948796D01*
X136401227Y-104945196D01*
X136377428Y-104939235D01*
X136354329Y-104930970D01*
X136332150Y-104920480D01*
X136311107Y-104907868D01*
X136291401Y-104893253D01*
X136273223Y-104876777D01*
X136256747Y-104858599D01*
X136242132Y-104838893D01*
X136229520Y-104817850D01*
X136219030Y-104795671D01*
X136210765Y-104772572D01*
X136204804Y-104748773D01*
X136201204Y-104724505D01*
X136200000Y-104700001D01*
X136200000Y-103799999D01*
X136201204Y-103775495D01*
X136204804Y-103751227D01*
X136210765Y-103727428D01*
X136219030Y-103704329D01*
X136229520Y-103682150D01*
X136242132Y-103661107D01*
X136256747Y-103641401D01*
X136273223Y-103623223D01*
X136291401Y-103606747D01*
X136311107Y-103592132D01*
X136332150Y-103579520D01*
X136354329Y-103569030D01*
X136377428Y-103560765D01*
X136401227Y-103554804D01*
X136425495Y-103551204D01*
X136449999Y-103550000D01*
X137100001Y-103550000D01*
X137124505Y-103551204D01*
X137124505Y-103551204D01*
G37*
D13*
X136775000Y-104250000D03*
D10*
G36*
X137124505Y-105801204D02*
G01*
X137148773Y-105804804D01*
X137172572Y-105810765D01*
X137195671Y-105819030D01*
X137217850Y-105829520D01*
X137238893Y-105842132D01*
X137258599Y-105856747D01*
X137276777Y-105873223D01*
X137293253Y-105891401D01*
X137307868Y-105911107D01*
X137320480Y-105932150D01*
X137330970Y-105954329D01*
X137339235Y-105977428D01*
X137345196Y-106001227D01*
X137348796Y-106025495D01*
X137350000Y-106049999D01*
X137350000Y-106950001D01*
X137348796Y-106974505D01*
X137345196Y-106998773D01*
X137339235Y-107022572D01*
X137330970Y-107045671D01*
X137320480Y-107067850D01*
X137307868Y-107088893D01*
X137293253Y-107108599D01*
X137276777Y-107126777D01*
X137258599Y-107143253D01*
X137238893Y-107157868D01*
X137217850Y-107170480D01*
X137195671Y-107180970D01*
X137172572Y-107189235D01*
X137148773Y-107195196D01*
X137124505Y-107198796D01*
X137100001Y-107200000D01*
X136449999Y-107200000D01*
X136425495Y-107198796D01*
X136401227Y-107195196D01*
X136377428Y-107189235D01*
X136354329Y-107180970D01*
X136332150Y-107170480D01*
X136311107Y-107157868D01*
X136291401Y-107143253D01*
X136273223Y-107126777D01*
X136256747Y-107108599D01*
X136242132Y-107088893D01*
X136229520Y-107067850D01*
X136219030Y-107045671D01*
X136210765Y-107022572D01*
X136204804Y-106998773D01*
X136201204Y-106974505D01*
X136200000Y-106950001D01*
X136200000Y-106049999D01*
X136201204Y-106025495D01*
X136204804Y-106001227D01*
X136210765Y-105977428D01*
X136219030Y-105954329D01*
X136229520Y-105932150D01*
X136242132Y-105911107D01*
X136256747Y-105891401D01*
X136273223Y-105873223D01*
X136291401Y-105856747D01*
X136311107Y-105842132D01*
X136332150Y-105829520D01*
X136354329Y-105819030D01*
X136377428Y-105810765D01*
X136401227Y-105804804D01*
X136425495Y-105801204D01*
X136449999Y-105800000D01*
X137100001Y-105800000D01*
X137124505Y-105801204D01*
X137124505Y-105801204D01*
G37*
D13*
X136775000Y-106500000D03*
D10*
G36*
X135074505Y-105801204D02*
G01*
X135098773Y-105804804D01*
X135122572Y-105810765D01*
X135145671Y-105819030D01*
X135167850Y-105829520D01*
X135188893Y-105842132D01*
X135208599Y-105856747D01*
X135226777Y-105873223D01*
X135243253Y-105891401D01*
X135257868Y-105911107D01*
X135270480Y-105932150D01*
X135280970Y-105954329D01*
X135289235Y-105977428D01*
X135295196Y-106001227D01*
X135298796Y-106025495D01*
X135300000Y-106049999D01*
X135300000Y-106950001D01*
X135298796Y-106974505D01*
X135295196Y-106998773D01*
X135289235Y-107022572D01*
X135280970Y-107045671D01*
X135270480Y-107067850D01*
X135257868Y-107088893D01*
X135243253Y-107108599D01*
X135226777Y-107126777D01*
X135208599Y-107143253D01*
X135188893Y-107157868D01*
X135167850Y-107170480D01*
X135145671Y-107180970D01*
X135122572Y-107189235D01*
X135098773Y-107195196D01*
X135074505Y-107198796D01*
X135050001Y-107200000D01*
X134399999Y-107200000D01*
X134375495Y-107198796D01*
X134351227Y-107195196D01*
X134327428Y-107189235D01*
X134304329Y-107180970D01*
X134282150Y-107170480D01*
X134261107Y-107157868D01*
X134241401Y-107143253D01*
X134223223Y-107126777D01*
X134206747Y-107108599D01*
X134192132Y-107088893D01*
X134179520Y-107067850D01*
X134169030Y-107045671D01*
X134160765Y-107022572D01*
X134154804Y-106998773D01*
X134151204Y-106974505D01*
X134150000Y-106950001D01*
X134150000Y-106049999D01*
X134151204Y-106025495D01*
X134154804Y-106001227D01*
X134160765Y-105977428D01*
X134169030Y-105954329D01*
X134179520Y-105932150D01*
X134192132Y-105911107D01*
X134206747Y-105891401D01*
X134223223Y-105873223D01*
X134241401Y-105856747D01*
X134261107Y-105842132D01*
X134282150Y-105829520D01*
X134304329Y-105819030D01*
X134327428Y-105810765D01*
X134351227Y-105804804D01*
X134375495Y-105801204D01*
X134399999Y-105800000D01*
X135050001Y-105800000D01*
X135074505Y-105801204D01*
X135074505Y-105801204D01*
G37*
D13*
X134725000Y-106500000D03*
D17*
X180250000Y-103975000D03*
X180250000Y-103325000D03*
X180250000Y-102675000D03*
X180250000Y-102025000D03*
X177250000Y-102025000D03*
X177250000Y-102675000D03*
X177250000Y-103325000D03*
X177250000Y-103975000D03*
D18*
X178750000Y-103000000D03*
D19*
X130850000Y-103650000D03*
X130850000Y-104450000D03*
X130850000Y-105250000D03*
X130850000Y-106050000D03*
X130850000Y-106850000D03*
D20*
X130750000Y-100800000D03*
X130750000Y-109700000D03*
X125250000Y-109700000D03*
X125250000Y-100800000D03*
D10*
G36*
X158049505Y-105051204D02*
G01*
X158073773Y-105054804D01*
X158097572Y-105060765D01*
X158120671Y-105069030D01*
X158142850Y-105079520D01*
X158163893Y-105092132D01*
X158183599Y-105106747D01*
X158201777Y-105123223D01*
X158218253Y-105141401D01*
X158232868Y-105161107D01*
X158245480Y-105182150D01*
X158255970Y-105204329D01*
X158264235Y-105227428D01*
X158270196Y-105251227D01*
X158273796Y-105275495D01*
X158275000Y-105299999D01*
X158275000Y-106200001D01*
X158273796Y-106224505D01*
X158270196Y-106248773D01*
X158264235Y-106272572D01*
X158255970Y-106295671D01*
X158245480Y-106317850D01*
X158232868Y-106338893D01*
X158218253Y-106358599D01*
X158201777Y-106376777D01*
X158183599Y-106393253D01*
X158163893Y-106407868D01*
X158142850Y-106420480D01*
X158120671Y-106430970D01*
X158097572Y-106439235D01*
X158073773Y-106445196D01*
X158049505Y-106448796D01*
X158025001Y-106450000D01*
X157374999Y-106450000D01*
X157350495Y-106448796D01*
X157326227Y-106445196D01*
X157302428Y-106439235D01*
X157279329Y-106430970D01*
X157257150Y-106420480D01*
X157236107Y-106407868D01*
X157216401Y-106393253D01*
X157198223Y-106376777D01*
X157181747Y-106358599D01*
X157167132Y-106338893D01*
X157154520Y-106317850D01*
X157144030Y-106295671D01*
X157135765Y-106272572D01*
X157129804Y-106248773D01*
X157126204Y-106224505D01*
X157125000Y-106200001D01*
X157125000Y-105299999D01*
X157126204Y-105275495D01*
X157129804Y-105251227D01*
X157135765Y-105227428D01*
X157144030Y-105204329D01*
X157154520Y-105182150D01*
X157167132Y-105161107D01*
X157181747Y-105141401D01*
X157198223Y-105123223D01*
X157216401Y-105106747D01*
X157236107Y-105092132D01*
X157257150Y-105079520D01*
X157279329Y-105069030D01*
X157302428Y-105060765D01*
X157326227Y-105054804D01*
X157350495Y-105051204D01*
X157374999Y-105050000D01*
X158025001Y-105050000D01*
X158049505Y-105051204D01*
X158049505Y-105051204D01*
G37*
D13*
X157700000Y-105750000D03*
D10*
G36*
X160099505Y-105051204D02*
G01*
X160123773Y-105054804D01*
X160147572Y-105060765D01*
X160170671Y-105069030D01*
X160192850Y-105079520D01*
X160213893Y-105092132D01*
X160233599Y-105106747D01*
X160251777Y-105123223D01*
X160268253Y-105141401D01*
X160282868Y-105161107D01*
X160295480Y-105182150D01*
X160305970Y-105204329D01*
X160314235Y-105227428D01*
X160320196Y-105251227D01*
X160323796Y-105275495D01*
X160325000Y-105299999D01*
X160325000Y-106200001D01*
X160323796Y-106224505D01*
X160320196Y-106248773D01*
X160314235Y-106272572D01*
X160305970Y-106295671D01*
X160295480Y-106317850D01*
X160282868Y-106338893D01*
X160268253Y-106358599D01*
X160251777Y-106376777D01*
X160233599Y-106393253D01*
X160213893Y-106407868D01*
X160192850Y-106420480D01*
X160170671Y-106430970D01*
X160147572Y-106439235D01*
X160123773Y-106445196D01*
X160099505Y-106448796D01*
X160075001Y-106450000D01*
X159424999Y-106450000D01*
X159400495Y-106448796D01*
X159376227Y-106445196D01*
X159352428Y-106439235D01*
X159329329Y-106430970D01*
X159307150Y-106420480D01*
X159286107Y-106407868D01*
X159266401Y-106393253D01*
X159248223Y-106376777D01*
X159231747Y-106358599D01*
X159217132Y-106338893D01*
X159204520Y-106317850D01*
X159194030Y-106295671D01*
X159185765Y-106272572D01*
X159179804Y-106248773D01*
X159176204Y-106224505D01*
X159175000Y-106200001D01*
X159175000Y-105299999D01*
X159176204Y-105275495D01*
X159179804Y-105251227D01*
X159185765Y-105227428D01*
X159194030Y-105204329D01*
X159204520Y-105182150D01*
X159217132Y-105161107D01*
X159231747Y-105141401D01*
X159248223Y-105123223D01*
X159266401Y-105106747D01*
X159286107Y-105092132D01*
X159307150Y-105079520D01*
X159329329Y-105069030D01*
X159352428Y-105060765D01*
X159376227Y-105054804D01*
X159400495Y-105051204D01*
X159424999Y-105050000D01*
X160075001Y-105050000D01*
X160099505Y-105051204D01*
X160099505Y-105051204D01*
G37*
D13*
X159750000Y-105750000D03*
D10*
G36*
X137124505Y-99051204D02*
G01*
X137148773Y-99054804D01*
X137172572Y-99060765D01*
X137195671Y-99069030D01*
X137217850Y-99079520D01*
X137238893Y-99092132D01*
X137258599Y-99106747D01*
X137276777Y-99123223D01*
X137293253Y-99141401D01*
X137307868Y-99161107D01*
X137320480Y-99182150D01*
X137330970Y-99204329D01*
X137339235Y-99227428D01*
X137345196Y-99251227D01*
X137348796Y-99275495D01*
X137350000Y-99299999D01*
X137350000Y-100200001D01*
X137348796Y-100224505D01*
X137345196Y-100248773D01*
X137339235Y-100272572D01*
X137330970Y-100295671D01*
X137320480Y-100317850D01*
X137307868Y-100338893D01*
X137293253Y-100358599D01*
X137276777Y-100376777D01*
X137258599Y-100393253D01*
X137238893Y-100407868D01*
X137217850Y-100420480D01*
X137195671Y-100430970D01*
X137172572Y-100439235D01*
X137148773Y-100445196D01*
X137124505Y-100448796D01*
X137100001Y-100450000D01*
X136449999Y-100450000D01*
X136425495Y-100448796D01*
X136401227Y-100445196D01*
X136377428Y-100439235D01*
X136354329Y-100430970D01*
X136332150Y-100420480D01*
X136311107Y-100407868D01*
X136291401Y-100393253D01*
X136273223Y-100376777D01*
X136256747Y-100358599D01*
X136242132Y-100338893D01*
X136229520Y-100317850D01*
X136219030Y-100295671D01*
X136210765Y-100272572D01*
X136204804Y-100248773D01*
X136201204Y-100224505D01*
X136200000Y-100200001D01*
X136200000Y-99299999D01*
X136201204Y-99275495D01*
X136204804Y-99251227D01*
X136210765Y-99227428D01*
X136219030Y-99204329D01*
X136229520Y-99182150D01*
X136242132Y-99161107D01*
X136256747Y-99141401D01*
X136273223Y-99123223D01*
X136291401Y-99106747D01*
X136311107Y-99092132D01*
X136332150Y-99079520D01*
X136354329Y-99069030D01*
X136377428Y-99060765D01*
X136401227Y-99054804D01*
X136425495Y-99051204D01*
X136449999Y-99050000D01*
X137100001Y-99050000D01*
X137124505Y-99051204D01*
X137124505Y-99051204D01*
G37*
D13*
X136775000Y-99750000D03*
D10*
G36*
X135074505Y-99051204D02*
G01*
X135098773Y-99054804D01*
X135122572Y-99060765D01*
X135145671Y-99069030D01*
X135167850Y-99079520D01*
X135188893Y-99092132D01*
X135208599Y-99106747D01*
X135226777Y-99123223D01*
X135243253Y-99141401D01*
X135257868Y-99161107D01*
X135270480Y-99182150D01*
X135280970Y-99204329D01*
X135289235Y-99227428D01*
X135295196Y-99251227D01*
X135298796Y-99275495D01*
X135300000Y-99299999D01*
X135300000Y-100200001D01*
X135298796Y-100224505D01*
X135295196Y-100248773D01*
X135289235Y-100272572D01*
X135280970Y-100295671D01*
X135270480Y-100317850D01*
X135257868Y-100338893D01*
X135243253Y-100358599D01*
X135226777Y-100376777D01*
X135208599Y-100393253D01*
X135188893Y-100407868D01*
X135167850Y-100420480D01*
X135145671Y-100430970D01*
X135122572Y-100439235D01*
X135098773Y-100445196D01*
X135074505Y-100448796D01*
X135050001Y-100450000D01*
X134399999Y-100450000D01*
X134375495Y-100448796D01*
X134351227Y-100445196D01*
X134327428Y-100439235D01*
X134304329Y-100430970D01*
X134282150Y-100420480D01*
X134261107Y-100407868D01*
X134241401Y-100393253D01*
X134223223Y-100376777D01*
X134206747Y-100358599D01*
X134192132Y-100338893D01*
X134179520Y-100317850D01*
X134169030Y-100295671D01*
X134160765Y-100272572D01*
X134154804Y-100248773D01*
X134151204Y-100224505D01*
X134150000Y-100200001D01*
X134150000Y-99299999D01*
X134151204Y-99275495D01*
X134154804Y-99251227D01*
X134160765Y-99227428D01*
X134169030Y-99204329D01*
X134179520Y-99182150D01*
X134192132Y-99161107D01*
X134206747Y-99141401D01*
X134223223Y-99123223D01*
X134241401Y-99106747D01*
X134261107Y-99092132D01*
X134282150Y-99079520D01*
X134304329Y-99069030D01*
X134327428Y-99060765D01*
X134351227Y-99054804D01*
X134375495Y-99051204D01*
X134399999Y-99050000D01*
X135050001Y-99050000D01*
X135074505Y-99051204D01*
X135074505Y-99051204D01*
G37*
D13*
X134725000Y-99750000D03*
D10*
G36*
X184799505Y-103301204D02*
G01*
X184823773Y-103304804D01*
X184847572Y-103310765D01*
X184870671Y-103319030D01*
X184892850Y-103329520D01*
X184913893Y-103342132D01*
X184933599Y-103356747D01*
X184951777Y-103373223D01*
X184968253Y-103391401D01*
X184982868Y-103411107D01*
X184995480Y-103432150D01*
X185005970Y-103454329D01*
X185014235Y-103477428D01*
X185020196Y-103501227D01*
X185023796Y-103525495D01*
X185025000Y-103549999D01*
X185025000Y-104450001D01*
X185023796Y-104474505D01*
X185020196Y-104498773D01*
X185014235Y-104522572D01*
X185005970Y-104545671D01*
X184995480Y-104567850D01*
X184982868Y-104588893D01*
X184968253Y-104608599D01*
X184951777Y-104626777D01*
X184933599Y-104643253D01*
X184913893Y-104657868D01*
X184892850Y-104670480D01*
X184870671Y-104680970D01*
X184847572Y-104689235D01*
X184823773Y-104695196D01*
X184799505Y-104698796D01*
X184775001Y-104700000D01*
X184124999Y-104700000D01*
X184100495Y-104698796D01*
X184076227Y-104695196D01*
X184052428Y-104689235D01*
X184029329Y-104680970D01*
X184007150Y-104670480D01*
X183986107Y-104657868D01*
X183966401Y-104643253D01*
X183948223Y-104626777D01*
X183931747Y-104608599D01*
X183917132Y-104588893D01*
X183904520Y-104567850D01*
X183894030Y-104545671D01*
X183885765Y-104522572D01*
X183879804Y-104498773D01*
X183876204Y-104474505D01*
X183875000Y-104450001D01*
X183875000Y-103549999D01*
X183876204Y-103525495D01*
X183879804Y-103501227D01*
X183885765Y-103477428D01*
X183894030Y-103454329D01*
X183904520Y-103432150D01*
X183917132Y-103411107D01*
X183931747Y-103391401D01*
X183948223Y-103373223D01*
X183966401Y-103356747D01*
X183986107Y-103342132D01*
X184007150Y-103329520D01*
X184029329Y-103319030D01*
X184052428Y-103310765D01*
X184076227Y-103304804D01*
X184100495Y-103301204D01*
X184124999Y-103300000D01*
X184775001Y-103300000D01*
X184799505Y-103301204D01*
X184799505Y-103301204D01*
G37*
D13*
X184450000Y-104000000D03*
D10*
G36*
X186849505Y-103301204D02*
G01*
X186873773Y-103304804D01*
X186897572Y-103310765D01*
X186920671Y-103319030D01*
X186942850Y-103329520D01*
X186963893Y-103342132D01*
X186983599Y-103356747D01*
X187001777Y-103373223D01*
X187018253Y-103391401D01*
X187032868Y-103411107D01*
X187045480Y-103432150D01*
X187055970Y-103454329D01*
X187064235Y-103477428D01*
X187070196Y-103501227D01*
X187073796Y-103525495D01*
X187075000Y-103549999D01*
X187075000Y-104450001D01*
X187073796Y-104474505D01*
X187070196Y-104498773D01*
X187064235Y-104522572D01*
X187055970Y-104545671D01*
X187045480Y-104567850D01*
X187032868Y-104588893D01*
X187018253Y-104608599D01*
X187001777Y-104626777D01*
X186983599Y-104643253D01*
X186963893Y-104657868D01*
X186942850Y-104670480D01*
X186920671Y-104680970D01*
X186897572Y-104689235D01*
X186873773Y-104695196D01*
X186849505Y-104698796D01*
X186825001Y-104700000D01*
X186174999Y-104700000D01*
X186150495Y-104698796D01*
X186126227Y-104695196D01*
X186102428Y-104689235D01*
X186079329Y-104680970D01*
X186057150Y-104670480D01*
X186036107Y-104657868D01*
X186016401Y-104643253D01*
X185998223Y-104626777D01*
X185981747Y-104608599D01*
X185967132Y-104588893D01*
X185954520Y-104567850D01*
X185944030Y-104545671D01*
X185935765Y-104522572D01*
X185929804Y-104498773D01*
X185926204Y-104474505D01*
X185925000Y-104450001D01*
X185925000Y-103549999D01*
X185926204Y-103525495D01*
X185929804Y-103501227D01*
X185935765Y-103477428D01*
X185944030Y-103454329D01*
X185954520Y-103432150D01*
X185967132Y-103411107D01*
X185981747Y-103391401D01*
X185998223Y-103373223D01*
X186016401Y-103356747D01*
X186036107Y-103342132D01*
X186057150Y-103329520D01*
X186079329Y-103319030D01*
X186102428Y-103310765D01*
X186126227Y-103304804D01*
X186150495Y-103301204D01*
X186174999Y-103300000D01*
X186825001Y-103300000D01*
X186849505Y-103301204D01*
X186849505Y-103301204D01*
G37*
D13*
X186500000Y-104000000D03*
D10*
G36*
X186849505Y-101301204D02*
G01*
X186873773Y-101304804D01*
X186897572Y-101310765D01*
X186920671Y-101319030D01*
X186942850Y-101329520D01*
X186963893Y-101342132D01*
X186983599Y-101356747D01*
X187001777Y-101373223D01*
X187018253Y-101391401D01*
X187032868Y-101411107D01*
X187045480Y-101432150D01*
X187055970Y-101454329D01*
X187064235Y-101477428D01*
X187070196Y-101501227D01*
X187073796Y-101525495D01*
X187075000Y-101549999D01*
X187075000Y-102450001D01*
X187073796Y-102474505D01*
X187070196Y-102498773D01*
X187064235Y-102522572D01*
X187055970Y-102545671D01*
X187045480Y-102567850D01*
X187032868Y-102588893D01*
X187018253Y-102608599D01*
X187001777Y-102626777D01*
X186983599Y-102643253D01*
X186963893Y-102657868D01*
X186942850Y-102670480D01*
X186920671Y-102680970D01*
X186897572Y-102689235D01*
X186873773Y-102695196D01*
X186849505Y-102698796D01*
X186825001Y-102700000D01*
X186174999Y-102700000D01*
X186150495Y-102698796D01*
X186126227Y-102695196D01*
X186102428Y-102689235D01*
X186079329Y-102680970D01*
X186057150Y-102670480D01*
X186036107Y-102657868D01*
X186016401Y-102643253D01*
X185998223Y-102626777D01*
X185981747Y-102608599D01*
X185967132Y-102588893D01*
X185954520Y-102567850D01*
X185944030Y-102545671D01*
X185935765Y-102522572D01*
X185929804Y-102498773D01*
X185926204Y-102474505D01*
X185925000Y-102450001D01*
X185925000Y-101549999D01*
X185926204Y-101525495D01*
X185929804Y-101501227D01*
X185935765Y-101477428D01*
X185944030Y-101454329D01*
X185954520Y-101432150D01*
X185967132Y-101411107D01*
X185981747Y-101391401D01*
X185998223Y-101373223D01*
X186016401Y-101356747D01*
X186036107Y-101342132D01*
X186057150Y-101329520D01*
X186079329Y-101319030D01*
X186102428Y-101310765D01*
X186126227Y-101304804D01*
X186150495Y-101301204D01*
X186174999Y-101300000D01*
X186825001Y-101300000D01*
X186849505Y-101301204D01*
X186849505Y-101301204D01*
G37*
D13*
X186500000Y-102000000D03*
D10*
G36*
X184799505Y-101301204D02*
G01*
X184823773Y-101304804D01*
X184847572Y-101310765D01*
X184870671Y-101319030D01*
X184892850Y-101329520D01*
X184913893Y-101342132D01*
X184933599Y-101356747D01*
X184951777Y-101373223D01*
X184968253Y-101391401D01*
X184982868Y-101411107D01*
X184995480Y-101432150D01*
X185005970Y-101454329D01*
X185014235Y-101477428D01*
X185020196Y-101501227D01*
X185023796Y-101525495D01*
X185025000Y-101549999D01*
X185025000Y-102450001D01*
X185023796Y-102474505D01*
X185020196Y-102498773D01*
X185014235Y-102522572D01*
X185005970Y-102545671D01*
X184995480Y-102567850D01*
X184982868Y-102588893D01*
X184968253Y-102608599D01*
X184951777Y-102626777D01*
X184933599Y-102643253D01*
X184913893Y-102657868D01*
X184892850Y-102670480D01*
X184870671Y-102680970D01*
X184847572Y-102689235D01*
X184823773Y-102695196D01*
X184799505Y-102698796D01*
X184775001Y-102700000D01*
X184124999Y-102700000D01*
X184100495Y-102698796D01*
X184076227Y-102695196D01*
X184052428Y-102689235D01*
X184029329Y-102680970D01*
X184007150Y-102670480D01*
X183986107Y-102657868D01*
X183966401Y-102643253D01*
X183948223Y-102626777D01*
X183931747Y-102608599D01*
X183917132Y-102588893D01*
X183904520Y-102567850D01*
X183894030Y-102545671D01*
X183885765Y-102522572D01*
X183879804Y-102498773D01*
X183876204Y-102474505D01*
X183875000Y-102450001D01*
X183875000Y-101549999D01*
X183876204Y-101525495D01*
X183879804Y-101501227D01*
X183885765Y-101477428D01*
X183894030Y-101454329D01*
X183904520Y-101432150D01*
X183917132Y-101411107D01*
X183931747Y-101391401D01*
X183948223Y-101373223D01*
X183966401Y-101356747D01*
X183986107Y-101342132D01*
X184007150Y-101329520D01*
X184029329Y-101319030D01*
X184052428Y-101310765D01*
X184076227Y-101304804D01*
X184100495Y-101301204D01*
X184124999Y-101300000D01*
X184775001Y-101300000D01*
X184799505Y-101301204D01*
X184799505Y-101301204D01*
G37*
D13*
X184450000Y-102000000D03*
D10*
G36*
X184799505Y-99301204D02*
G01*
X184823773Y-99304804D01*
X184847572Y-99310765D01*
X184870671Y-99319030D01*
X184892850Y-99329520D01*
X184913893Y-99342132D01*
X184933599Y-99356747D01*
X184951777Y-99373223D01*
X184968253Y-99391401D01*
X184982868Y-99411107D01*
X184995480Y-99432150D01*
X185005970Y-99454329D01*
X185014235Y-99477428D01*
X185020196Y-99501227D01*
X185023796Y-99525495D01*
X185025000Y-99549999D01*
X185025000Y-100450001D01*
X185023796Y-100474505D01*
X185020196Y-100498773D01*
X185014235Y-100522572D01*
X185005970Y-100545671D01*
X184995480Y-100567850D01*
X184982868Y-100588893D01*
X184968253Y-100608599D01*
X184951777Y-100626777D01*
X184933599Y-100643253D01*
X184913893Y-100657868D01*
X184892850Y-100670480D01*
X184870671Y-100680970D01*
X184847572Y-100689235D01*
X184823773Y-100695196D01*
X184799505Y-100698796D01*
X184775001Y-100700000D01*
X184124999Y-100700000D01*
X184100495Y-100698796D01*
X184076227Y-100695196D01*
X184052428Y-100689235D01*
X184029329Y-100680970D01*
X184007150Y-100670480D01*
X183986107Y-100657868D01*
X183966401Y-100643253D01*
X183948223Y-100626777D01*
X183931747Y-100608599D01*
X183917132Y-100588893D01*
X183904520Y-100567850D01*
X183894030Y-100545671D01*
X183885765Y-100522572D01*
X183879804Y-100498773D01*
X183876204Y-100474505D01*
X183875000Y-100450001D01*
X183875000Y-99549999D01*
X183876204Y-99525495D01*
X183879804Y-99501227D01*
X183885765Y-99477428D01*
X183894030Y-99454329D01*
X183904520Y-99432150D01*
X183917132Y-99411107D01*
X183931747Y-99391401D01*
X183948223Y-99373223D01*
X183966401Y-99356747D01*
X183986107Y-99342132D01*
X184007150Y-99329520D01*
X184029329Y-99319030D01*
X184052428Y-99310765D01*
X184076227Y-99304804D01*
X184100495Y-99301204D01*
X184124999Y-99300000D01*
X184775001Y-99300000D01*
X184799505Y-99301204D01*
X184799505Y-99301204D01*
G37*
D13*
X184450000Y-100000000D03*
D10*
G36*
X186849505Y-99301204D02*
G01*
X186873773Y-99304804D01*
X186897572Y-99310765D01*
X186920671Y-99319030D01*
X186942850Y-99329520D01*
X186963893Y-99342132D01*
X186983599Y-99356747D01*
X187001777Y-99373223D01*
X187018253Y-99391401D01*
X187032868Y-99411107D01*
X187045480Y-99432150D01*
X187055970Y-99454329D01*
X187064235Y-99477428D01*
X187070196Y-99501227D01*
X187073796Y-99525495D01*
X187075000Y-99549999D01*
X187075000Y-100450001D01*
X187073796Y-100474505D01*
X187070196Y-100498773D01*
X187064235Y-100522572D01*
X187055970Y-100545671D01*
X187045480Y-100567850D01*
X187032868Y-100588893D01*
X187018253Y-100608599D01*
X187001777Y-100626777D01*
X186983599Y-100643253D01*
X186963893Y-100657868D01*
X186942850Y-100670480D01*
X186920671Y-100680970D01*
X186897572Y-100689235D01*
X186873773Y-100695196D01*
X186849505Y-100698796D01*
X186825001Y-100700000D01*
X186174999Y-100700000D01*
X186150495Y-100698796D01*
X186126227Y-100695196D01*
X186102428Y-100689235D01*
X186079329Y-100680970D01*
X186057150Y-100670480D01*
X186036107Y-100657868D01*
X186016401Y-100643253D01*
X185998223Y-100626777D01*
X185981747Y-100608599D01*
X185967132Y-100588893D01*
X185954520Y-100567850D01*
X185944030Y-100545671D01*
X185935765Y-100522572D01*
X185929804Y-100498773D01*
X185926204Y-100474505D01*
X185925000Y-100450001D01*
X185925000Y-99549999D01*
X185926204Y-99525495D01*
X185929804Y-99501227D01*
X185935765Y-99477428D01*
X185944030Y-99454329D01*
X185954520Y-99432150D01*
X185967132Y-99411107D01*
X185981747Y-99391401D01*
X185998223Y-99373223D01*
X186016401Y-99356747D01*
X186036107Y-99342132D01*
X186057150Y-99329520D01*
X186079329Y-99319030D01*
X186102428Y-99310765D01*
X186126227Y-99304804D01*
X186150495Y-99301204D01*
X186174999Y-99300000D01*
X186825001Y-99300000D01*
X186849505Y-99301204D01*
X186849505Y-99301204D01*
G37*
D13*
X186500000Y-100000000D03*
D10*
G36*
X184799505Y-97301204D02*
G01*
X184823773Y-97304804D01*
X184847572Y-97310765D01*
X184870671Y-97319030D01*
X184892850Y-97329520D01*
X184913893Y-97342132D01*
X184933599Y-97356747D01*
X184951777Y-97373223D01*
X184968253Y-97391401D01*
X184982868Y-97411107D01*
X184995480Y-97432150D01*
X185005970Y-97454329D01*
X185014235Y-97477428D01*
X185020196Y-97501227D01*
X185023796Y-97525495D01*
X185025000Y-97549999D01*
X185025000Y-98450001D01*
X185023796Y-98474505D01*
X185020196Y-98498773D01*
X185014235Y-98522572D01*
X185005970Y-98545671D01*
X184995480Y-98567850D01*
X184982868Y-98588893D01*
X184968253Y-98608599D01*
X184951777Y-98626777D01*
X184933599Y-98643253D01*
X184913893Y-98657868D01*
X184892850Y-98670480D01*
X184870671Y-98680970D01*
X184847572Y-98689235D01*
X184823773Y-98695196D01*
X184799505Y-98698796D01*
X184775001Y-98700000D01*
X184124999Y-98700000D01*
X184100495Y-98698796D01*
X184076227Y-98695196D01*
X184052428Y-98689235D01*
X184029329Y-98680970D01*
X184007150Y-98670480D01*
X183986107Y-98657868D01*
X183966401Y-98643253D01*
X183948223Y-98626777D01*
X183931747Y-98608599D01*
X183917132Y-98588893D01*
X183904520Y-98567850D01*
X183894030Y-98545671D01*
X183885765Y-98522572D01*
X183879804Y-98498773D01*
X183876204Y-98474505D01*
X183875000Y-98450001D01*
X183875000Y-97549999D01*
X183876204Y-97525495D01*
X183879804Y-97501227D01*
X183885765Y-97477428D01*
X183894030Y-97454329D01*
X183904520Y-97432150D01*
X183917132Y-97411107D01*
X183931747Y-97391401D01*
X183948223Y-97373223D01*
X183966401Y-97356747D01*
X183986107Y-97342132D01*
X184007150Y-97329520D01*
X184029329Y-97319030D01*
X184052428Y-97310765D01*
X184076227Y-97304804D01*
X184100495Y-97301204D01*
X184124999Y-97300000D01*
X184775001Y-97300000D01*
X184799505Y-97301204D01*
X184799505Y-97301204D01*
G37*
D13*
X184450000Y-98000000D03*
D10*
G36*
X186849505Y-97301204D02*
G01*
X186873773Y-97304804D01*
X186897572Y-97310765D01*
X186920671Y-97319030D01*
X186942850Y-97329520D01*
X186963893Y-97342132D01*
X186983599Y-97356747D01*
X187001777Y-97373223D01*
X187018253Y-97391401D01*
X187032868Y-97411107D01*
X187045480Y-97432150D01*
X187055970Y-97454329D01*
X187064235Y-97477428D01*
X187070196Y-97501227D01*
X187073796Y-97525495D01*
X187075000Y-97549999D01*
X187075000Y-98450001D01*
X187073796Y-98474505D01*
X187070196Y-98498773D01*
X187064235Y-98522572D01*
X187055970Y-98545671D01*
X187045480Y-98567850D01*
X187032868Y-98588893D01*
X187018253Y-98608599D01*
X187001777Y-98626777D01*
X186983599Y-98643253D01*
X186963893Y-98657868D01*
X186942850Y-98670480D01*
X186920671Y-98680970D01*
X186897572Y-98689235D01*
X186873773Y-98695196D01*
X186849505Y-98698796D01*
X186825001Y-98700000D01*
X186174999Y-98700000D01*
X186150495Y-98698796D01*
X186126227Y-98695196D01*
X186102428Y-98689235D01*
X186079329Y-98680970D01*
X186057150Y-98670480D01*
X186036107Y-98657868D01*
X186016401Y-98643253D01*
X185998223Y-98626777D01*
X185981747Y-98608599D01*
X185967132Y-98588893D01*
X185954520Y-98567850D01*
X185944030Y-98545671D01*
X185935765Y-98522572D01*
X185929804Y-98498773D01*
X185926204Y-98474505D01*
X185925000Y-98450001D01*
X185925000Y-97549999D01*
X185926204Y-97525495D01*
X185929804Y-97501227D01*
X185935765Y-97477428D01*
X185944030Y-97454329D01*
X185954520Y-97432150D01*
X185967132Y-97411107D01*
X185981747Y-97391401D01*
X185998223Y-97373223D01*
X186016401Y-97356747D01*
X186036107Y-97342132D01*
X186057150Y-97329520D01*
X186079329Y-97319030D01*
X186102428Y-97310765D01*
X186126227Y-97304804D01*
X186150495Y-97301204D01*
X186174999Y-97300000D01*
X186825001Y-97300000D01*
X186849505Y-97301204D01*
X186849505Y-97301204D01*
G37*
D13*
X186500000Y-98000000D03*
D10*
G36*
X186849505Y-95301204D02*
G01*
X186873773Y-95304804D01*
X186897572Y-95310765D01*
X186920671Y-95319030D01*
X186942850Y-95329520D01*
X186963893Y-95342132D01*
X186983599Y-95356747D01*
X187001777Y-95373223D01*
X187018253Y-95391401D01*
X187032868Y-95411107D01*
X187045480Y-95432150D01*
X187055970Y-95454329D01*
X187064235Y-95477428D01*
X187070196Y-95501227D01*
X187073796Y-95525495D01*
X187075000Y-95549999D01*
X187075000Y-96450001D01*
X187073796Y-96474505D01*
X187070196Y-96498773D01*
X187064235Y-96522572D01*
X187055970Y-96545671D01*
X187045480Y-96567850D01*
X187032868Y-96588893D01*
X187018253Y-96608599D01*
X187001777Y-96626777D01*
X186983599Y-96643253D01*
X186963893Y-96657868D01*
X186942850Y-96670480D01*
X186920671Y-96680970D01*
X186897572Y-96689235D01*
X186873773Y-96695196D01*
X186849505Y-96698796D01*
X186825001Y-96700000D01*
X186174999Y-96700000D01*
X186150495Y-96698796D01*
X186126227Y-96695196D01*
X186102428Y-96689235D01*
X186079329Y-96680970D01*
X186057150Y-96670480D01*
X186036107Y-96657868D01*
X186016401Y-96643253D01*
X185998223Y-96626777D01*
X185981747Y-96608599D01*
X185967132Y-96588893D01*
X185954520Y-96567850D01*
X185944030Y-96545671D01*
X185935765Y-96522572D01*
X185929804Y-96498773D01*
X185926204Y-96474505D01*
X185925000Y-96450001D01*
X185925000Y-95549999D01*
X185926204Y-95525495D01*
X185929804Y-95501227D01*
X185935765Y-95477428D01*
X185944030Y-95454329D01*
X185954520Y-95432150D01*
X185967132Y-95411107D01*
X185981747Y-95391401D01*
X185998223Y-95373223D01*
X186016401Y-95356747D01*
X186036107Y-95342132D01*
X186057150Y-95329520D01*
X186079329Y-95319030D01*
X186102428Y-95310765D01*
X186126227Y-95304804D01*
X186150495Y-95301204D01*
X186174999Y-95300000D01*
X186825001Y-95300000D01*
X186849505Y-95301204D01*
X186849505Y-95301204D01*
G37*
D13*
X186500000Y-96000000D03*
D10*
G36*
X184799505Y-95301204D02*
G01*
X184823773Y-95304804D01*
X184847572Y-95310765D01*
X184870671Y-95319030D01*
X184892850Y-95329520D01*
X184913893Y-95342132D01*
X184933599Y-95356747D01*
X184951777Y-95373223D01*
X184968253Y-95391401D01*
X184982868Y-95411107D01*
X184995480Y-95432150D01*
X185005970Y-95454329D01*
X185014235Y-95477428D01*
X185020196Y-95501227D01*
X185023796Y-95525495D01*
X185025000Y-95549999D01*
X185025000Y-96450001D01*
X185023796Y-96474505D01*
X185020196Y-96498773D01*
X185014235Y-96522572D01*
X185005970Y-96545671D01*
X184995480Y-96567850D01*
X184982868Y-96588893D01*
X184968253Y-96608599D01*
X184951777Y-96626777D01*
X184933599Y-96643253D01*
X184913893Y-96657868D01*
X184892850Y-96670480D01*
X184870671Y-96680970D01*
X184847572Y-96689235D01*
X184823773Y-96695196D01*
X184799505Y-96698796D01*
X184775001Y-96700000D01*
X184124999Y-96700000D01*
X184100495Y-96698796D01*
X184076227Y-96695196D01*
X184052428Y-96689235D01*
X184029329Y-96680970D01*
X184007150Y-96670480D01*
X183986107Y-96657868D01*
X183966401Y-96643253D01*
X183948223Y-96626777D01*
X183931747Y-96608599D01*
X183917132Y-96588893D01*
X183904520Y-96567850D01*
X183894030Y-96545671D01*
X183885765Y-96522572D01*
X183879804Y-96498773D01*
X183876204Y-96474505D01*
X183875000Y-96450001D01*
X183875000Y-95549999D01*
X183876204Y-95525495D01*
X183879804Y-95501227D01*
X183885765Y-95477428D01*
X183894030Y-95454329D01*
X183904520Y-95432150D01*
X183917132Y-95411107D01*
X183931747Y-95391401D01*
X183948223Y-95373223D01*
X183966401Y-95356747D01*
X183986107Y-95342132D01*
X184007150Y-95329520D01*
X184029329Y-95319030D01*
X184052428Y-95310765D01*
X184076227Y-95304804D01*
X184100495Y-95301204D01*
X184124999Y-95300000D01*
X184775001Y-95300000D01*
X184799505Y-95301204D01*
X184799505Y-95301204D01*
G37*
D13*
X184450000Y-96000000D03*
D10*
G36*
X219049505Y-92801204D02*
G01*
X219073773Y-92804804D01*
X219097572Y-92810765D01*
X219120671Y-92819030D01*
X219142850Y-92829520D01*
X219163893Y-92842132D01*
X219183599Y-92856747D01*
X219201777Y-92873223D01*
X219218253Y-92891401D01*
X219232868Y-92911107D01*
X219245480Y-92932150D01*
X219255970Y-92954329D01*
X219264235Y-92977428D01*
X219270196Y-93001227D01*
X219273796Y-93025495D01*
X219275000Y-93049999D01*
X219275000Y-93950001D01*
X219273796Y-93974505D01*
X219270196Y-93998773D01*
X219264235Y-94022572D01*
X219255970Y-94045671D01*
X219245480Y-94067850D01*
X219232868Y-94088893D01*
X219218253Y-94108599D01*
X219201777Y-94126777D01*
X219183599Y-94143253D01*
X219163893Y-94157868D01*
X219142850Y-94170480D01*
X219120671Y-94180970D01*
X219097572Y-94189235D01*
X219073773Y-94195196D01*
X219049505Y-94198796D01*
X219025001Y-94200000D01*
X218374999Y-94200000D01*
X218350495Y-94198796D01*
X218326227Y-94195196D01*
X218302428Y-94189235D01*
X218279329Y-94180970D01*
X218257150Y-94170480D01*
X218236107Y-94157868D01*
X218216401Y-94143253D01*
X218198223Y-94126777D01*
X218181747Y-94108599D01*
X218167132Y-94088893D01*
X218154520Y-94067850D01*
X218144030Y-94045671D01*
X218135765Y-94022572D01*
X218129804Y-93998773D01*
X218126204Y-93974505D01*
X218125000Y-93950001D01*
X218125000Y-93049999D01*
X218126204Y-93025495D01*
X218129804Y-93001227D01*
X218135765Y-92977428D01*
X218144030Y-92954329D01*
X218154520Y-92932150D01*
X218167132Y-92911107D01*
X218181747Y-92891401D01*
X218198223Y-92873223D01*
X218216401Y-92856747D01*
X218236107Y-92842132D01*
X218257150Y-92829520D01*
X218279329Y-92819030D01*
X218302428Y-92810765D01*
X218326227Y-92804804D01*
X218350495Y-92801204D01*
X218374999Y-92800000D01*
X219025001Y-92800000D01*
X219049505Y-92801204D01*
X219049505Y-92801204D01*
G37*
D13*
X218700000Y-93500000D03*
D10*
G36*
X221099505Y-92801204D02*
G01*
X221123773Y-92804804D01*
X221147572Y-92810765D01*
X221170671Y-92819030D01*
X221192850Y-92829520D01*
X221213893Y-92842132D01*
X221233599Y-92856747D01*
X221251777Y-92873223D01*
X221268253Y-92891401D01*
X221282868Y-92911107D01*
X221295480Y-92932150D01*
X221305970Y-92954329D01*
X221314235Y-92977428D01*
X221320196Y-93001227D01*
X221323796Y-93025495D01*
X221325000Y-93049999D01*
X221325000Y-93950001D01*
X221323796Y-93974505D01*
X221320196Y-93998773D01*
X221314235Y-94022572D01*
X221305970Y-94045671D01*
X221295480Y-94067850D01*
X221282868Y-94088893D01*
X221268253Y-94108599D01*
X221251777Y-94126777D01*
X221233599Y-94143253D01*
X221213893Y-94157868D01*
X221192850Y-94170480D01*
X221170671Y-94180970D01*
X221147572Y-94189235D01*
X221123773Y-94195196D01*
X221099505Y-94198796D01*
X221075001Y-94200000D01*
X220424999Y-94200000D01*
X220400495Y-94198796D01*
X220376227Y-94195196D01*
X220352428Y-94189235D01*
X220329329Y-94180970D01*
X220307150Y-94170480D01*
X220286107Y-94157868D01*
X220266401Y-94143253D01*
X220248223Y-94126777D01*
X220231747Y-94108599D01*
X220217132Y-94088893D01*
X220204520Y-94067850D01*
X220194030Y-94045671D01*
X220185765Y-94022572D01*
X220179804Y-93998773D01*
X220176204Y-93974505D01*
X220175000Y-93950001D01*
X220175000Y-93049999D01*
X220176204Y-93025495D01*
X220179804Y-93001227D01*
X220185765Y-92977428D01*
X220194030Y-92954329D01*
X220204520Y-92932150D01*
X220217132Y-92911107D01*
X220231747Y-92891401D01*
X220248223Y-92873223D01*
X220266401Y-92856747D01*
X220286107Y-92842132D01*
X220307150Y-92829520D01*
X220329329Y-92819030D01*
X220352428Y-92810765D01*
X220376227Y-92804804D01*
X220400495Y-92801204D01*
X220424999Y-92800000D01*
X221075001Y-92800000D01*
X221099505Y-92801204D01*
X221099505Y-92801204D01*
G37*
D13*
X220750000Y-93500000D03*
D10*
G36*
X219049505Y-104801204D02*
G01*
X219073773Y-104804804D01*
X219097572Y-104810765D01*
X219120671Y-104819030D01*
X219142850Y-104829520D01*
X219163893Y-104842132D01*
X219183599Y-104856747D01*
X219201777Y-104873223D01*
X219218253Y-104891401D01*
X219232868Y-104911107D01*
X219245480Y-104932150D01*
X219255970Y-104954329D01*
X219264235Y-104977428D01*
X219270196Y-105001227D01*
X219273796Y-105025495D01*
X219275000Y-105049999D01*
X219275000Y-105950001D01*
X219273796Y-105974505D01*
X219270196Y-105998773D01*
X219264235Y-106022572D01*
X219255970Y-106045671D01*
X219245480Y-106067850D01*
X219232868Y-106088893D01*
X219218253Y-106108599D01*
X219201777Y-106126777D01*
X219183599Y-106143253D01*
X219163893Y-106157868D01*
X219142850Y-106170480D01*
X219120671Y-106180970D01*
X219097572Y-106189235D01*
X219073773Y-106195196D01*
X219049505Y-106198796D01*
X219025001Y-106200000D01*
X218374999Y-106200000D01*
X218350495Y-106198796D01*
X218326227Y-106195196D01*
X218302428Y-106189235D01*
X218279329Y-106180970D01*
X218257150Y-106170480D01*
X218236107Y-106157868D01*
X218216401Y-106143253D01*
X218198223Y-106126777D01*
X218181747Y-106108599D01*
X218167132Y-106088893D01*
X218154520Y-106067850D01*
X218144030Y-106045671D01*
X218135765Y-106022572D01*
X218129804Y-105998773D01*
X218126204Y-105974505D01*
X218125000Y-105950001D01*
X218125000Y-105049999D01*
X218126204Y-105025495D01*
X218129804Y-105001227D01*
X218135765Y-104977428D01*
X218144030Y-104954329D01*
X218154520Y-104932150D01*
X218167132Y-104911107D01*
X218181747Y-104891401D01*
X218198223Y-104873223D01*
X218216401Y-104856747D01*
X218236107Y-104842132D01*
X218257150Y-104829520D01*
X218279329Y-104819030D01*
X218302428Y-104810765D01*
X218326227Y-104804804D01*
X218350495Y-104801204D01*
X218374999Y-104800000D01*
X219025001Y-104800000D01*
X219049505Y-104801204D01*
X219049505Y-104801204D01*
G37*
D13*
X218700000Y-105500000D03*
D10*
G36*
X221099505Y-104801204D02*
G01*
X221123773Y-104804804D01*
X221147572Y-104810765D01*
X221170671Y-104819030D01*
X221192850Y-104829520D01*
X221213893Y-104842132D01*
X221233599Y-104856747D01*
X221251777Y-104873223D01*
X221268253Y-104891401D01*
X221282868Y-104911107D01*
X221295480Y-104932150D01*
X221305970Y-104954329D01*
X221314235Y-104977428D01*
X221320196Y-105001227D01*
X221323796Y-105025495D01*
X221325000Y-105049999D01*
X221325000Y-105950001D01*
X221323796Y-105974505D01*
X221320196Y-105998773D01*
X221314235Y-106022572D01*
X221305970Y-106045671D01*
X221295480Y-106067850D01*
X221282868Y-106088893D01*
X221268253Y-106108599D01*
X221251777Y-106126777D01*
X221233599Y-106143253D01*
X221213893Y-106157868D01*
X221192850Y-106170480D01*
X221170671Y-106180970D01*
X221147572Y-106189235D01*
X221123773Y-106195196D01*
X221099505Y-106198796D01*
X221075001Y-106200000D01*
X220424999Y-106200000D01*
X220400495Y-106198796D01*
X220376227Y-106195196D01*
X220352428Y-106189235D01*
X220329329Y-106180970D01*
X220307150Y-106170480D01*
X220286107Y-106157868D01*
X220266401Y-106143253D01*
X220248223Y-106126777D01*
X220231747Y-106108599D01*
X220217132Y-106088893D01*
X220204520Y-106067850D01*
X220194030Y-106045671D01*
X220185765Y-106022572D01*
X220179804Y-105998773D01*
X220176204Y-105974505D01*
X220175000Y-105950001D01*
X220175000Y-105049999D01*
X220176204Y-105025495D01*
X220179804Y-105001227D01*
X220185765Y-104977428D01*
X220194030Y-104954329D01*
X220204520Y-104932150D01*
X220217132Y-104911107D01*
X220231747Y-104891401D01*
X220248223Y-104873223D01*
X220266401Y-104856747D01*
X220286107Y-104842132D01*
X220307150Y-104829520D01*
X220329329Y-104819030D01*
X220352428Y-104810765D01*
X220376227Y-104804804D01*
X220400495Y-104801204D01*
X220424999Y-104800000D01*
X221075001Y-104800000D01*
X221099505Y-104801204D01*
X221099505Y-104801204D01*
G37*
D13*
X220750000Y-105500000D03*
D10*
G36*
X219049505Y-94801204D02*
G01*
X219073773Y-94804804D01*
X219097572Y-94810765D01*
X219120671Y-94819030D01*
X219142850Y-94829520D01*
X219163893Y-94842132D01*
X219183599Y-94856747D01*
X219201777Y-94873223D01*
X219218253Y-94891401D01*
X219232868Y-94911107D01*
X219245480Y-94932150D01*
X219255970Y-94954329D01*
X219264235Y-94977428D01*
X219270196Y-95001227D01*
X219273796Y-95025495D01*
X219275000Y-95049999D01*
X219275000Y-95950001D01*
X219273796Y-95974505D01*
X219270196Y-95998773D01*
X219264235Y-96022572D01*
X219255970Y-96045671D01*
X219245480Y-96067850D01*
X219232868Y-96088893D01*
X219218253Y-96108599D01*
X219201777Y-96126777D01*
X219183599Y-96143253D01*
X219163893Y-96157868D01*
X219142850Y-96170480D01*
X219120671Y-96180970D01*
X219097572Y-96189235D01*
X219073773Y-96195196D01*
X219049505Y-96198796D01*
X219025001Y-96200000D01*
X218374999Y-96200000D01*
X218350495Y-96198796D01*
X218326227Y-96195196D01*
X218302428Y-96189235D01*
X218279329Y-96180970D01*
X218257150Y-96170480D01*
X218236107Y-96157868D01*
X218216401Y-96143253D01*
X218198223Y-96126777D01*
X218181747Y-96108599D01*
X218167132Y-96088893D01*
X218154520Y-96067850D01*
X218144030Y-96045671D01*
X218135765Y-96022572D01*
X218129804Y-95998773D01*
X218126204Y-95974505D01*
X218125000Y-95950001D01*
X218125000Y-95049999D01*
X218126204Y-95025495D01*
X218129804Y-95001227D01*
X218135765Y-94977428D01*
X218144030Y-94954329D01*
X218154520Y-94932150D01*
X218167132Y-94911107D01*
X218181747Y-94891401D01*
X218198223Y-94873223D01*
X218216401Y-94856747D01*
X218236107Y-94842132D01*
X218257150Y-94829520D01*
X218279329Y-94819030D01*
X218302428Y-94810765D01*
X218326227Y-94804804D01*
X218350495Y-94801204D01*
X218374999Y-94800000D01*
X219025001Y-94800000D01*
X219049505Y-94801204D01*
X219049505Y-94801204D01*
G37*
D13*
X218700000Y-95500000D03*
D10*
G36*
X221099505Y-94801204D02*
G01*
X221123773Y-94804804D01*
X221147572Y-94810765D01*
X221170671Y-94819030D01*
X221192850Y-94829520D01*
X221213893Y-94842132D01*
X221233599Y-94856747D01*
X221251777Y-94873223D01*
X221268253Y-94891401D01*
X221282868Y-94911107D01*
X221295480Y-94932150D01*
X221305970Y-94954329D01*
X221314235Y-94977428D01*
X221320196Y-95001227D01*
X221323796Y-95025495D01*
X221325000Y-95049999D01*
X221325000Y-95950001D01*
X221323796Y-95974505D01*
X221320196Y-95998773D01*
X221314235Y-96022572D01*
X221305970Y-96045671D01*
X221295480Y-96067850D01*
X221282868Y-96088893D01*
X221268253Y-96108599D01*
X221251777Y-96126777D01*
X221233599Y-96143253D01*
X221213893Y-96157868D01*
X221192850Y-96170480D01*
X221170671Y-96180970D01*
X221147572Y-96189235D01*
X221123773Y-96195196D01*
X221099505Y-96198796D01*
X221075001Y-96200000D01*
X220424999Y-96200000D01*
X220400495Y-96198796D01*
X220376227Y-96195196D01*
X220352428Y-96189235D01*
X220329329Y-96180970D01*
X220307150Y-96170480D01*
X220286107Y-96157868D01*
X220266401Y-96143253D01*
X220248223Y-96126777D01*
X220231747Y-96108599D01*
X220217132Y-96088893D01*
X220204520Y-96067850D01*
X220194030Y-96045671D01*
X220185765Y-96022572D01*
X220179804Y-95998773D01*
X220176204Y-95974505D01*
X220175000Y-95950001D01*
X220175000Y-95049999D01*
X220176204Y-95025495D01*
X220179804Y-95001227D01*
X220185765Y-94977428D01*
X220194030Y-94954329D01*
X220204520Y-94932150D01*
X220217132Y-94911107D01*
X220231747Y-94891401D01*
X220248223Y-94873223D01*
X220266401Y-94856747D01*
X220286107Y-94842132D01*
X220307150Y-94829520D01*
X220329329Y-94819030D01*
X220352428Y-94810765D01*
X220376227Y-94804804D01*
X220400495Y-94801204D01*
X220424999Y-94800000D01*
X221075001Y-94800000D01*
X221099505Y-94801204D01*
X221099505Y-94801204D01*
G37*
D13*
X220750000Y-95500000D03*
D10*
G36*
X221099505Y-102801204D02*
G01*
X221123773Y-102804804D01*
X221147572Y-102810765D01*
X221170671Y-102819030D01*
X221192850Y-102829520D01*
X221213893Y-102842132D01*
X221233599Y-102856747D01*
X221251777Y-102873223D01*
X221268253Y-102891401D01*
X221282868Y-102911107D01*
X221295480Y-102932150D01*
X221305970Y-102954329D01*
X221314235Y-102977428D01*
X221320196Y-103001227D01*
X221323796Y-103025495D01*
X221325000Y-103049999D01*
X221325000Y-103950001D01*
X221323796Y-103974505D01*
X221320196Y-103998773D01*
X221314235Y-104022572D01*
X221305970Y-104045671D01*
X221295480Y-104067850D01*
X221282868Y-104088893D01*
X221268253Y-104108599D01*
X221251777Y-104126777D01*
X221233599Y-104143253D01*
X221213893Y-104157868D01*
X221192850Y-104170480D01*
X221170671Y-104180970D01*
X221147572Y-104189235D01*
X221123773Y-104195196D01*
X221099505Y-104198796D01*
X221075001Y-104200000D01*
X220424999Y-104200000D01*
X220400495Y-104198796D01*
X220376227Y-104195196D01*
X220352428Y-104189235D01*
X220329329Y-104180970D01*
X220307150Y-104170480D01*
X220286107Y-104157868D01*
X220266401Y-104143253D01*
X220248223Y-104126777D01*
X220231747Y-104108599D01*
X220217132Y-104088893D01*
X220204520Y-104067850D01*
X220194030Y-104045671D01*
X220185765Y-104022572D01*
X220179804Y-103998773D01*
X220176204Y-103974505D01*
X220175000Y-103950001D01*
X220175000Y-103049999D01*
X220176204Y-103025495D01*
X220179804Y-103001227D01*
X220185765Y-102977428D01*
X220194030Y-102954329D01*
X220204520Y-102932150D01*
X220217132Y-102911107D01*
X220231747Y-102891401D01*
X220248223Y-102873223D01*
X220266401Y-102856747D01*
X220286107Y-102842132D01*
X220307150Y-102829520D01*
X220329329Y-102819030D01*
X220352428Y-102810765D01*
X220376227Y-102804804D01*
X220400495Y-102801204D01*
X220424999Y-102800000D01*
X221075001Y-102800000D01*
X221099505Y-102801204D01*
X221099505Y-102801204D01*
G37*
D13*
X220750000Y-103500000D03*
D10*
G36*
X219049505Y-102801204D02*
G01*
X219073773Y-102804804D01*
X219097572Y-102810765D01*
X219120671Y-102819030D01*
X219142850Y-102829520D01*
X219163893Y-102842132D01*
X219183599Y-102856747D01*
X219201777Y-102873223D01*
X219218253Y-102891401D01*
X219232868Y-102911107D01*
X219245480Y-102932150D01*
X219255970Y-102954329D01*
X219264235Y-102977428D01*
X219270196Y-103001227D01*
X219273796Y-103025495D01*
X219275000Y-103049999D01*
X219275000Y-103950001D01*
X219273796Y-103974505D01*
X219270196Y-103998773D01*
X219264235Y-104022572D01*
X219255970Y-104045671D01*
X219245480Y-104067850D01*
X219232868Y-104088893D01*
X219218253Y-104108599D01*
X219201777Y-104126777D01*
X219183599Y-104143253D01*
X219163893Y-104157868D01*
X219142850Y-104170480D01*
X219120671Y-104180970D01*
X219097572Y-104189235D01*
X219073773Y-104195196D01*
X219049505Y-104198796D01*
X219025001Y-104200000D01*
X218374999Y-104200000D01*
X218350495Y-104198796D01*
X218326227Y-104195196D01*
X218302428Y-104189235D01*
X218279329Y-104180970D01*
X218257150Y-104170480D01*
X218236107Y-104157868D01*
X218216401Y-104143253D01*
X218198223Y-104126777D01*
X218181747Y-104108599D01*
X218167132Y-104088893D01*
X218154520Y-104067850D01*
X218144030Y-104045671D01*
X218135765Y-104022572D01*
X218129804Y-103998773D01*
X218126204Y-103974505D01*
X218125000Y-103950001D01*
X218125000Y-103049999D01*
X218126204Y-103025495D01*
X218129804Y-103001227D01*
X218135765Y-102977428D01*
X218144030Y-102954329D01*
X218154520Y-102932150D01*
X218167132Y-102911107D01*
X218181747Y-102891401D01*
X218198223Y-102873223D01*
X218216401Y-102856747D01*
X218236107Y-102842132D01*
X218257150Y-102829520D01*
X218279329Y-102819030D01*
X218302428Y-102810765D01*
X218326227Y-102804804D01*
X218350495Y-102801204D01*
X218374999Y-102800000D01*
X219025001Y-102800000D01*
X219049505Y-102801204D01*
X219049505Y-102801204D01*
G37*
D13*
X218700000Y-103500000D03*
D10*
G36*
X135074505Y-101301204D02*
G01*
X135098773Y-101304804D01*
X135122572Y-101310765D01*
X135145671Y-101319030D01*
X135167850Y-101329520D01*
X135188893Y-101342132D01*
X135208599Y-101356747D01*
X135226777Y-101373223D01*
X135243253Y-101391401D01*
X135257868Y-101411107D01*
X135270480Y-101432150D01*
X135280970Y-101454329D01*
X135289235Y-101477428D01*
X135295196Y-101501227D01*
X135298796Y-101525495D01*
X135300000Y-101549999D01*
X135300000Y-102450001D01*
X135298796Y-102474505D01*
X135295196Y-102498773D01*
X135289235Y-102522572D01*
X135280970Y-102545671D01*
X135270480Y-102567850D01*
X135257868Y-102588893D01*
X135243253Y-102608599D01*
X135226777Y-102626777D01*
X135208599Y-102643253D01*
X135188893Y-102657868D01*
X135167850Y-102670480D01*
X135145671Y-102680970D01*
X135122572Y-102689235D01*
X135098773Y-102695196D01*
X135074505Y-102698796D01*
X135050001Y-102700000D01*
X134399999Y-102700000D01*
X134375495Y-102698796D01*
X134351227Y-102695196D01*
X134327428Y-102689235D01*
X134304329Y-102680970D01*
X134282150Y-102670480D01*
X134261107Y-102657868D01*
X134241401Y-102643253D01*
X134223223Y-102626777D01*
X134206747Y-102608599D01*
X134192132Y-102588893D01*
X134179520Y-102567850D01*
X134169030Y-102545671D01*
X134160765Y-102522572D01*
X134154804Y-102498773D01*
X134151204Y-102474505D01*
X134150000Y-102450001D01*
X134150000Y-101549999D01*
X134151204Y-101525495D01*
X134154804Y-101501227D01*
X134160765Y-101477428D01*
X134169030Y-101454329D01*
X134179520Y-101432150D01*
X134192132Y-101411107D01*
X134206747Y-101391401D01*
X134223223Y-101373223D01*
X134241401Y-101356747D01*
X134261107Y-101342132D01*
X134282150Y-101329520D01*
X134304329Y-101319030D01*
X134327428Y-101310765D01*
X134351227Y-101304804D01*
X134375495Y-101301204D01*
X134399999Y-101300000D01*
X135050001Y-101300000D01*
X135074505Y-101301204D01*
X135074505Y-101301204D01*
G37*
D13*
X134725000Y-102000000D03*
D10*
G36*
X137124505Y-101301204D02*
G01*
X137148773Y-101304804D01*
X137172572Y-101310765D01*
X137195671Y-101319030D01*
X137217850Y-101329520D01*
X137238893Y-101342132D01*
X137258599Y-101356747D01*
X137276777Y-101373223D01*
X137293253Y-101391401D01*
X137307868Y-101411107D01*
X137320480Y-101432150D01*
X137330970Y-101454329D01*
X137339235Y-101477428D01*
X137345196Y-101501227D01*
X137348796Y-101525495D01*
X137350000Y-101549999D01*
X137350000Y-102450001D01*
X137348796Y-102474505D01*
X137345196Y-102498773D01*
X137339235Y-102522572D01*
X137330970Y-102545671D01*
X137320480Y-102567850D01*
X137307868Y-102588893D01*
X137293253Y-102608599D01*
X137276777Y-102626777D01*
X137258599Y-102643253D01*
X137238893Y-102657868D01*
X137217850Y-102670480D01*
X137195671Y-102680970D01*
X137172572Y-102689235D01*
X137148773Y-102695196D01*
X137124505Y-102698796D01*
X137100001Y-102700000D01*
X136449999Y-102700000D01*
X136425495Y-102698796D01*
X136401227Y-102695196D01*
X136377428Y-102689235D01*
X136354329Y-102680970D01*
X136332150Y-102670480D01*
X136311107Y-102657868D01*
X136291401Y-102643253D01*
X136273223Y-102626777D01*
X136256747Y-102608599D01*
X136242132Y-102588893D01*
X136229520Y-102567850D01*
X136219030Y-102545671D01*
X136210765Y-102522572D01*
X136204804Y-102498773D01*
X136201204Y-102474505D01*
X136200000Y-102450001D01*
X136200000Y-101549999D01*
X136201204Y-101525495D01*
X136204804Y-101501227D01*
X136210765Y-101477428D01*
X136219030Y-101454329D01*
X136229520Y-101432150D01*
X136242132Y-101411107D01*
X136256747Y-101391401D01*
X136273223Y-101373223D01*
X136291401Y-101356747D01*
X136311107Y-101342132D01*
X136332150Y-101329520D01*
X136354329Y-101319030D01*
X136377428Y-101310765D01*
X136401227Y-101304804D01*
X136425495Y-101301204D01*
X136449999Y-101300000D01*
X137100001Y-101300000D01*
X137124505Y-101301204D01*
X137124505Y-101301204D01*
G37*
D13*
X136775000Y-102000000D03*
D21*
X158096000Y-102305000D03*
X159798000Y-102305000D03*
X161500000Y-102305000D03*
X163202000Y-102305000D03*
X164904000Y-102305000D03*
D22*
X161500000Y-92000000D03*
D23*
X167540000Y-103100000D03*
X169460000Y-103100000D03*
X168500000Y-100900000D03*
M02*
