M48
; DRILL file {KiCad (5.1.0)-1} date 08/11/2022 16:59:06
; FORMAT={-:-/ absolute / inch / decimal}
; #@! TF.CreationDate,2022-11-08T16:59:06+01:00
; #@! TF.GenerationSoftware,Kicad,Pcbnew,(5.1.0)-1
; #@! TF.FileFunction,Plated,1,2,PTH
FMAT,2
INCH
T1C0.0157
T2C0.0472
T3C0.0591
T4C0.0710
T5C0.1063
%
G90
G05
T1
X5.5315Y-4.0354
X5.5495Y-3.9986
X5.5709Y-3.9656
X5.7402Y-3.6319
X5.9941Y-3.7303
X6.0335Y-4.2913
X6.122Y-3.7402
X6.2087Y-4.1634
X6.4253Y-4.0551
X6.5961Y-4.0591
X6.7323Y-4.1142
X6.8597Y-4.0359
X6.9291Y-4.065
X7.0778Y-3.7795
X7.0778Y-3.8583
X7.0778Y-3.937
X7.1457Y-4.065
X7.2618Y-4.0157
X7.2618Y-4.0945
X7.3425Y-3.7795
X7.3425Y-3.8583
X7.3425Y-3.937
X7.3425Y-4.0157
X7.3425Y-4.0945
X7.4606Y-3.8106
X7.4783Y-4.2142
X7.4882Y-3.6008
X7.4882Y-4.0142
X7.8957Y-3.8008
X8.061Y-4.3041
X8.0733Y-3.9394
X8.1526Y-3.9498
X8.189Y-3.8681
X8.2185Y-4.1142
X8.2283Y-3.8386
X8.2382Y-3.8976
X8.3071Y-4.2126
X8.435Y-3.6821
X8.435Y-3.7992
X8.435Y-4.0354
T2
X7.1752Y-4.2717
X6.8602Y-3.5728
X7.0177Y-4.2717
X6.8602Y-4.2717
X7.1752Y-3.5728
X7.0177Y-3.5728
T3
X8.9469Y-3.7618
X8.9469Y-4.0728
T4
X5.1378Y-3.7106
X5.3465Y-3.5433
X5.3465Y-3.7598
T5
X9.3504Y-3.9173
T0
M30
