G04 #@! TF.GenerationSoftware,KiCad,Pcbnew,(5.1.0)-1*
G04 #@! TF.CreationDate,2022-11-08T16:58:41+01:00*
G04 #@! TF.ProjectId,DualPressure_V1,4475616c-5072-4657-9373-7572655f5631,rev?*
G04 #@! TF.SameCoordinates,Original*
G04 #@! TF.FileFunction,Legend,Bot*
G04 #@! TF.FilePolarity,Positive*
%FSLAX46Y46*%
G04 Gerber Fmt 4.6, Leading zero omitted, Abs format (unit mm)*
G04 Created by KiCad (PCBNEW (5.1.0)-1) date 2022-11-08 16:58:41*
%MOMM*%
%LPD*%
G04 APERTURE LIST*
%ADD10C,0.150000*%
%ADD11C,0.010000*%
%ADD12C,0.120000*%
%ADD13C,0.200000*%
%ADD14C,0.100000*%
%ADD15C,0.254000*%
G04 APERTURE END LIST*
D10*
X235842976Y-108782142D02*
X235890595Y-108829761D01*
X236033452Y-108877380D01*
X236128690Y-108877380D01*
X236271547Y-108829761D01*
X236366785Y-108734523D01*
X236414404Y-108639285D01*
X236462023Y-108448809D01*
X236462023Y-108305952D01*
X236414404Y-108115476D01*
X236366785Y-108020238D01*
X236271547Y-107925000D01*
X236128690Y-107877380D01*
X236033452Y-107877380D01*
X235890595Y-107925000D01*
X235842976Y-107972619D01*
X235271547Y-108877380D02*
X235366785Y-108829761D01*
X235414404Y-108782142D01*
X235462023Y-108686904D01*
X235462023Y-108401190D01*
X235414404Y-108305952D01*
X235366785Y-108258333D01*
X235271547Y-108210714D01*
X235128690Y-108210714D01*
X235033452Y-108258333D01*
X234985833Y-108305952D01*
X234938214Y-108401190D01*
X234938214Y-108686904D01*
X234985833Y-108782142D01*
X235033452Y-108829761D01*
X235128690Y-108877380D01*
X235271547Y-108877380D01*
X234509642Y-108877380D02*
X234509642Y-108210714D01*
X234509642Y-108401190D02*
X234462023Y-108305952D01*
X234414404Y-108258333D01*
X234319166Y-108210714D01*
X234223928Y-108210714D01*
X233509642Y-108829761D02*
X233604880Y-108877380D01*
X233795357Y-108877380D01*
X233890595Y-108829761D01*
X233938214Y-108734523D01*
X233938214Y-108353571D01*
X233890595Y-108258333D01*
X233795357Y-108210714D01*
X233604880Y-108210714D01*
X233509642Y-108258333D01*
X233462023Y-108353571D01*
X233462023Y-108448809D01*
X233938214Y-108544047D01*
X233033452Y-108210714D02*
X233033452Y-108877380D01*
X233033452Y-108305952D02*
X232985833Y-108258333D01*
X232890595Y-108210714D01*
X232747738Y-108210714D01*
X232652500Y-108258333D01*
X232604880Y-108353571D01*
X232604880Y-108877380D01*
X232271547Y-108210714D02*
X231890595Y-108210714D01*
X232128690Y-107877380D02*
X232128690Y-108734523D01*
X232081071Y-108829761D01*
X231985833Y-108877380D01*
X231890595Y-108877380D01*
X231557261Y-108877380D02*
X231557261Y-108210714D01*
X231557261Y-107877380D02*
X231604880Y-107925000D01*
X231557261Y-107972619D01*
X231509642Y-107925000D01*
X231557261Y-107877380D01*
X231557261Y-107972619D01*
X231081071Y-108210714D02*
X231081071Y-108877380D01*
X231081071Y-108305952D02*
X231033452Y-108258333D01*
X230938214Y-108210714D01*
X230795357Y-108210714D01*
X230700119Y-108258333D01*
X230652500Y-108353571D01*
X230652500Y-108877380D01*
X235842976Y-110432142D02*
X235890595Y-110479761D01*
X236033452Y-110527380D01*
X236128690Y-110527380D01*
X236271547Y-110479761D01*
X236366785Y-110384523D01*
X236414404Y-110289285D01*
X236462023Y-110098809D01*
X236462023Y-109955952D01*
X236414404Y-109765476D01*
X236366785Y-109670238D01*
X236271547Y-109575000D01*
X236128690Y-109527380D01*
X236033452Y-109527380D01*
X235890595Y-109575000D01*
X235842976Y-109622619D01*
X235223928Y-109527380D02*
X235033452Y-109527380D01*
X234938214Y-109575000D01*
X234842976Y-109670238D01*
X234795357Y-109860714D01*
X234795357Y-110194047D01*
X234842976Y-110384523D01*
X234938214Y-110479761D01*
X235033452Y-110527380D01*
X235223928Y-110527380D01*
X235319166Y-110479761D01*
X235414404Y-110384523D01*
X235462023Y-110194047D01*
X235462023Y-109860714D01*
X235414404Y-109670238D01*
X235319166Y-109575000D01*
X235223928Y-109527380D01*
X234366785Y-109527380D02*
X234366785Y-110336904D01*
X234319166Y-110432142D01*
X234271547Y-110479761D01*
X234176309Y-110527380D01*
X233985833Y-110527380D01*
X233890595Y-110479761D01*
X233842976Y-110432142D01*
X233795357Y-110336904D01*
X233795357Y-109527380D01*
X233462023Y-109527380D02*
X232890595Y-109527380D01*
X233176309Y-110527380D02*
X233176309Y-109527380D01*
X232557261Y-110003571D02*
X232223928Y-110003571D01*
X232081071Y-110527380D02*
X232557261Y-110527380D01*
X232557261Y-109527380D01*
X232081071Y-109527380D01*
X231176309Y-110527380D02*
X231652500Y-110527380D01*
X231652500Y-109527380D01*
X230366785Y-110527380D02*
X230842976Y-110527380D01*
X230842976Y-109527380D01*
X230033452Y-110527380D02*
X230033452Y-109527380D01*
X229557261Y-110003571D02*
X229223928Y-110003571D01*
X229081071Y-110527380D02*
X229557261Y-110527380D01*
X229557261Y-109527380D01*
X229081071Y-109527380D01*
X228081071Y-110527380D02*
X228414404Y-110051190D01*
X228652499Y-110527380D02*
X228652499Y-109527380D01*
X228271547Y-109527380D01*
X228176309Y-109575000D01*
X228128690Y-109622619D01*
X228081071Y-109717857D01*
X228081071Y-109860714D01*
X228128690Y-109955952D01*
X228176309Y-110003571D01*
X228271547Y-110051190D01*
X228652499Y-110051190D01*
X243315476Y-89565476D02*
X243315476Y-88315476D01*
X243017857Y-88315476D01*
X242839285Y-88375000D01*
X242720238Y-88494047D01*
X242660714Y-88613095D01*
X242601190Y-88851190D01*
X242601190Y-89029761D01*
X242660714Y-89267857D01*
X242720238Y-89386904D01*
X242839285Y-89505952D01*
X243017857Y-89565476D01*
X243315476Y-89565476D01*
X241529761Y-88732142D02*
X241529761Y-89565476D01*
X242065476Y-88732142D02*
X242065476Y-89386904D01*
X242005952Y-89505952D01*
X241886904Y-89565476D01*
X241708333Y-89565476D01*
X241589285Y-89505952D01*
X241529761Y-89446428D01*
X240398809Y-89565476D02*
X240398809Y-88910714D01*
X240458333Y-88791666D01*
X240577380Y-88732142D01*
X240815476Y-88732142D01*
X240934523Y-88791666D01*
X240398809Y-89505952D02*
X240517857Y-89565476D01*
X240815476Y-89565476D01*
X240934523Y-89505952D01*
X240994047Y-89386904D01*
X240994047Y-89267857D01*
X240934523Y-89148809D01*
X240815476Y-89089285D01*
X240517857Y-89089285D01*
X240398809Y-89029761D01*
X239625000Y-89565476D02*
X239744047Y-89505952D01*
X239803571Y-89386904D01*
X239803571Y-88315476D01*
X238196428Y-89565476D02*
X238196428Y-88315476D01*
X237720238Y-88315476D01*
X237601190Y-88375000D01*
X237541666Y-88434523D01*
X237482142Y-88553571D01*
X237482142Y-88732142D01*
X237541666Y-88851190D01*
X237601190Y-88910714D01*
X237720238Y-88970238D01*
X238196428Y-88970238D01*
X236946428Y-89565476D02*
X236946428Y-88732142D01*
X236946428Y-88970238D02*
X236886904Y-88851190D01*
X236827380Y-88791666D01*
X236708333Y-88732142D01*
X236589285Y-88732142D01*
X235696428Y-89505952D02*
X235815476Y-89565476D01*
X236053571Y-89565476D01*
X236172619Y-89505952D01*
X236232142Y-89386904D01*
X236232142Y-88910714D01*
X236172619Y-88791666D01*
X236053571Y-88732142D01*
X235815476Y-88732142D01*
X235696428Y-88791666D01*
X235636904Y-88910714D01*
X235636904Y-89029761D01*
X236232142Y-89148809D01*
X235160714Y-89505952D02*
X235041666Y-89565476D01*
X234803571Y-89565476D01*
X234684523Y-89505952D01*
X234625000Y-89386904D01*
X234625000Y-89327380D01*
X234684523Y-89208333D01*
X234803571Y-89148809D01*
X234982142Y-89148809D01*
X235101190Y-89089285D01*
X235160714Y-88970238D01*
X235160714Y-88910714D01*
X235101190Y-88791666D01*
X234982142Y-88732142D01*
X234803571Y-88732142D01*
X234684523Y-88791666D01*
X234148809Y-89505952D02*
X234029761Y-89565476D01*
X233791666Y-89565476D01*
X233672619Y-89505952D01*
X233613095Y-89386904D01*
X233613095Y-89327380D01*
X233672619Y-89208333D01*
X233791666Y-89148809D01*
X233970238Y-89148809D01*
X234089285Y-89089285D01*
X234148809Y-88970238D01*
X234148809Y-88910714D01*
X234089285Y-88791666D01*
X233970238Y-88732142D01*
X233791666Y-88732142D01*
X233672619Y-88791666D01*
X232541666Y-88732142D02*
X232541666Y-89565476D01*
X233077380Y-88732142D02*
X233077380Y-89386904D01*
X233017857Y-89505952D01*
X232898809Y-89565476D01*
X232720238Y-89565476D01*
X232601190Y-89505952D01*
X232541666Y-89446428D01*
X231946428Y-89565476D02*
X231946428Y-88732142D01*
X231946428Y-88970238D02*
X231886904Y-88851190D01*
X231827380Y-88791666D01*
X231708333Y-88732142D01*
X231589285Y-88732142D01*
X230696428Y-89505952D02*
X230815476Y-89565476D01*
X231053571Y-89565476D01*
X231172619Y-89505952D01*
X231232142Y-89386904D01*
X231232142Y-88910714D01*
X231172619Y-88791666D01*
X231053571Y-88732142D01*
X230815476Y-88732142D01*
X230696428Y-88791666D01*
X230636904Y-88910714D01*
X230636904Y-89029761D01*
X231232142Y-89148809D01*
X229267857Y-88315476D02*
X228434523Y-89565476D01*
X228434523Y-88315476D02*
X229267857Y-89565476D01*
X227184523Y-88315476D02*
X226470238Y-88315476D01*
X226827380Y-89565476D02*
X226827380Y-88315476D01*
X226053571Y-89565476D02*
X226053571Y-88315476D01*
X225517857Y-89565476D02*
X225517857Y-88910714D01*
X225577380Y-88791666D01*
X225696428Y-88732142D01*
X225875000Y-88732142D01*
X225994047Y-88791666D01*
X226053571Y-88851190D01*
X224446428Y-89505952D02*
X224565476Y-89565476D01*
X224803571Y-89565476D01*
X224922619Y-89505952D01*
X224982142Y-89386904D01*
X224982142Y-88910714D01*
X224922619Y-88791666D01*
X224803571Y-88732142D01*
X224565476Y-88732142D01*
X224446428Y-88791666D01*
X224386904Y-88910714D01*
X224386904Y-89029761D01*
X224982142Y-89148809D01*
X223851190Y-89565476D02*
X223851190Y-88732142D01*
X223851190Y-88970238D02*
X223791666Y-88851190D01*
X223732142Y-88791666D01*
X223613095Y-88732142D01*
X223494047Y-88732142D01*
X223077380Y-89565476D02*
X223077380Y-88732142D01*
X223077380Y-88851190D02*
X223017857Y-88791666D01*
X222898809Y-88732142D01*
X222720238Y-88732142D01*
X222601190Y-88791666D01*
X222541666Y-88910714D01*
X222541666Y-89565476D01*
X222541666Y-88910714D02*
X222482142Y-88791666D01*
X222363095Y-88732142D01*
X222184523Y-88732142D01*
X222065476Y-88791666D01*
X222005952Y-88910714D01*
X222005952Y-89565476D01*
X221232142Y-89565476D02*
X221351190Y-89505952D01*
X221410714Y-89446428D01*
X221470238Y-89327380D01*
X221470238Y-88970238D01*
X221410714Y-88851190D01*
X221351190Y-88791666D01*
X221232142Y-88732142D01*
X221053571Y-88732142D01*
X220934523Y-88791666D01*
X220875000Y-88851190D01*
X220815476Y-88970238D01*
X220815476Y-89327380D01*
X220875000Y-89446428D01*
X220934523Y-89505952D01*
X221053571Y-89565476D01*
X221232142Y-89565476D01*
X219744047Y-89505952D02*
X219863095Y-89565476D01*
X220101190Y-89565476D01*
X220220238Y-89505952D01*
X220279761Y-89446428D01*
X220339285Y-89327380D01*
X220339285Y-88970238D01*
X220279761Y-88851190D01*
X220220238Y-88791666D01*
X220101190Y-88732142D01*
X219863095Y-88732142D01*
X219744047Y-88791666D01*
X219029761Y-89565476D02*
X219148809Y-89505952D01*
X219208333Y-89446428D01*
X219267857Y-89327380D01*
X219267857Y-88970238D01*
X219208333Y-88851190D01*
X219148809Y-88791666D01*
X219029761Y-88732142D01*
X218851190Y-88732142D01*
X218732142Y-88791666D01*
X218672619Y-88851190D01*
X218613095Y-88970238D01*
X218613095Y-89327380D01*
X218672619Y-89446428D01*
X218732142Y-89505952D01*
X218851190Y-89565476D01*
X219029761Y-89565476D01*
X217541666Y-88732142D02*
X217541666Y-89565476D01*
X218077380Y-88732142D02*
X218077380Y-89386904D01*
X218017857Y-89505952D01*
X217898809Y-89565476D01*
X217720238Y-89565476D01*
X217601190Y-89505952D01*
X217541666Y-89446428D01*
X216946428Y-88732142D02*
X216946428Y-89982142D01*
X216946428Y-88791666D02*
X216827380Y-88732142D01*
X216589285Y-88732142D01*
X216470238Y-88791666D01*
X216410714Y-88851190D01*
X216351190Y-88970238D01*
X216351190Y-89327380D01*
X216410714Y-89446428D01*
X216470238Y-89505952D01*
X216589285Y-89565476D01*
X216827380Y-89565476D01*
X216946428Y-89505952D01*
X215636904Y-89565476D02*
X215755952Y-89505952D01*
X215815476Y-89386904D01*
X215815476Y-88315476D01*
X214684523Y-89505952D02*
X214803571Y-89565476D01*
X215041666Y-89565476D01*
X215160714Y-89505952D01*
X215220238Y-89386904D01*
X215220238Y-88910714D01*
X215160714Y-88791666D01*
X215041666Y-88732142D01*
X214803571Y-88732142D01*
X214684523Y-88791666D01*
X214625000Y-88910714D01*
X214625000Y-89029761D01*
X215220238Y-89148809D01*
D11*
G36*
X240546372Y-104368101D02*
G01*
X240466071Y-104375593D01*
X240368662Y-104388863D01*
X240260168Y-104406881D01*
X240146616Y-104428617D01*
X240034032Y-104453040D01*
X239928440Y-104479119D01*
X239835865Y-104505826D01*
X239805812Y-104515766D01*
X239559620Y-104618325D01*
X239314389Y-104754635D01*
X239073715Y-104922255D01*
X238841191Y-105118747D01*
X238673387Y-105284565D01*
X238504675Y-105479542D01*
X238367406Y-105677034D01*
X238257065Y-105884445D01*
X238169142Y-106109180D01*
X238167190Y-106115091D01*
X238150881Y-106170229D01*
X238129422Y-106250675D01*
X238104653Y-106348646D01*
X238078418Y-106456355D01*
X238052559Y-106566020D01*
X238028919Y-106669855D01*
X238009341Y-106760077D01*
X237995667Y-106828900D01*
X237990351Y-106862162D01*
X238001542Y-106885622D01*
X238028961Y-106897123D01*
X238053754Y-106889669D01*
X238056048Y-106886540D01*
X238067777Y-106865181D01*
X238092409Y-106819318D01*
X238125887Y-106756525D01*
X238150970Y-106709275D01*
X238233318Y-106556960D01*
X238318378Y-106405157D01*
X238402360Y-106260297D01*
X238481470Y-106128807D01*
X238551916Y-106017116D01*
X238608619Y-105933446D01*
X238663198Y-105864453D01*
X238740163Y-105777110D01*
X238834267Y-105676585D01*
X238940261Y-105568044D01*
X239052899Y-105456655D01*
X239166933Y-105347585D01*
X239277117Y-105246002D01*
X239378202Y-105157074D01*
X239464942Y-105085966D01*
X239484000Y-105071407D01*
X239597372Y-104990768D01*
X239723695Y-104909629D01*
X239866994Y-104825755D01*
X240031292Y-104736910D01*
X240220614Y-104640858D01*
X240438981Y-104535363D01*
X240502789Y-104505278D01*
X240556492Y-104475719D01*
X240350481Y-104475719D01*
X240337044Y-104485300D01*
X240296312Y-104508329D01*
X240233446Y-104542030D01*
X240153607Y-104583624D01*
X240083861Y-104619256D01*
X239904352Y-104712475D01*
X239748552Y-104799146D01*
X239609691Y-104884187D01*
X239480997Y-104972514D01*
X239355701Y-105069046D01*
X239227033Y-105178698D01*
X239088224Y-105306389D01*
X238938412Y-105451224D01*
X238805077Y-105585107D01*
X238693774Y-105704227D01*
X238598281Y-105816591D01*
X238512374Y-105930201D01*
X238429830Y-106053063D01*
X238344426Y-106193181D01*
X238294795Y-106279072D01*
X238245960Y-106364188D01*
X238203718Y-106436700D01*
X238171142Y-106491417D01*
X238151310Y-106523149D01*
X238146697Y-106528981D01*
X238148500Y-106511082D01*
X238156896Y-106467407D01*
X238169820Y-106408507D01*
X238217591Y-106230965D01*
X238277628Y-106055251D01*
X238344515Y-105896841D01*
X238360038Y-105865000D01*
X238480080Y-105660200D01*
X238630917Y-105458470D01*
X238807100Y-105264544D01*
X239003176Y-105083155D01*
X239213694Y-104919034D01*
X239433204Y-104776916D01*
X239656252Y-104661532D01*
X239822248Y-104595502D01*
X239874678Y-104579456D01*
X239945844Y-104560312D01*
X240028290Y-104539762D01*
X240114559Y-104519496D01*
X240197197Y-104501203D01*
X240268746Y-104486577D01*
X240321751Y-104477306D01*
X240348756Y-104475082D01*
X240350481Y-104475719D01*
X240556492Y-104475719D01*
X240574940Y-104465565D01*
X240621471Y-104427389D01*
X240639082Y-104394099D01*
X240631545Y-104374573D01*
X240603538Y-104367418D01*
X240546372Y-104368101D01*
X240546372Y-104368101D01*
G37*
X240546372Y-104368101D02*
X240466071Y-104375593D01*
X240368662Y-104388863D01*
X240260168Y-104406881D01*
X240146616Y-104428617D01*
X240034032Y-104453040D01*
X239928440Y-104479119D01*
X239835865Y-104505826D01*
X239805812Y-104515766D01*
X239559620Y-104618325D01*
X239314389Y-104754635D01*
X239073715Y-104922255D01*
X238841191Y-105118747D01*
X238673387Y-105284565D01*
X238504675Y-105479542D01*
X238367406Y-105677034D01*
X238257065Y-105884445D01*
X238169142Y-106109180D01*
X238167190Y-106115091D01*
X238150881Y-106170229D01*
X238129422Y-106250675D01*
X238104653Y-106348646D01*
X238078418Y-106456355D01*
X238052559Y-106566020D01*
X238028919Y-106669855D01*
X238009341Y-106760077D01*
X237995667Y-106828900D01*
X237990351Y-106862162D01*
X238001542Y-106885622D01*
X238028961Y-106897123D01*
X238053754Y-106889669D01*
X238056048Y-106886540D01*
X238067777Y-106865181D01*
X238092409Y-106819318D01*
X238125887Y-106756525D01*
X238150970Y-106709275D01*
X238233318Y-106556960D01*
X238318378Y-106405157D01*
X238402360Y-106260297D01*
X238481470Y-106128807D01*
X238551916Y-106017116D01*
X238608619Y-105933446D01*
X238663198Y-105864453D01*
X238740163Y-105777110D01*
X238834267Y-105676585D01*
X238940261Y-105568044D01*
X239052899Y-105456655D01*
X239166933Y-105347585D01*
X239277117Y-105246002D01*
X239378202Y-105157074D01*
X239464942Y-105085966D01*
X239484000Y-105071407D01*
X239597372Y-104990768D01*
X239723695Y-104909629D01*
X239866994Y-104825755D01*
X240031292Y-104736910D01*
X240220614Y-104640858D01*
X240438981Y-104535363D01*
X240502789Y-104505278D01*
X240556492Y-104475719D01*
X240350481Y-104475719D01*
X240337044Y-104485300D01*
X240296312Y-104508329D01*
X240233446Y-104542030D01*
X240153607Y-104583624D01*
X240083861Y-104619256D01*
X239904352Y-104712475D01*
X239748552Y-104799146D01*
X239609691Y-104884187D01*
X239480997Y-104972514D01*
X239355701Y-105069046D01*
X239227033Y-105178698D01*
X239088224Y-105306389D01*
X238938412Y-105451224D01*
X238805077Y-105585107D01*
X238693774Y-105704227D01*
X238598281Y-105816591D01*
X238512374Y-105930201D01*
X238429830Y-106053063D01*
X238344426Y-106193181D01*
X238294795Y-106279072D01*
X238245960Y-106364188D01*
X238203718Y-106436700D01*
X238171142Y-106491417D01*
X238151310Y-106523149D01*
X238146697Y-106528981D01*
X238148500Y-106511082D01*
X238156896Y-106467407D01*
X238169820Y-106408507D01*
X238217591Y-106230965D01*
X238277628Y-106055251D01*
X238344515Y-105896841D01*
X238360038Y-105865000D01*
X238480080Y-105660200D01*
X238630917Y-105458470D01*
X238807100Y-105264544D01*
X239003176Y-105083155D01*
X239213694Y-104919034D01*
X239433204Y-104776916D01*
X239656252Y-104661532D01*
X239822248Y-104595502D01*
X239874678Y-104579456D01*
X239945844Y-104560312D01*
X240028290Y-104539762D01*
X240114559Y-104519496D01*
X240197197Y-104501203D01*
X240268746Y-104486577D01*
X240321751Y-104477306D01*
X240348756Y-104475082D01*
X240350481Y-104475719D01*
X240556492Y-104475719D01*
X240574940Y-104465565D01*
X240621471Y-104427389D01*
X240639082Y-104394099D01*
X240631545Y-104374573D01*
X240603538Y-104367418D01*
X240546372Y-104368101D01*
G36*
X238558130Y-106485290D02*
G01*
X238543873Y-106493996D01*
X238543679Y-106511758D01*
X238545854Y-106521800D01*
X238552136Y-106551356D01*
X238564306Y-106610707D01*
X238581192Y-106694055D01*
X238601620Y-106795603D01*
X238624419Y-106909554D01*
X238634099Y-106958107D01*
X238712686Y-107352714D01*
X238789915Y-107352714D01*
X238837059Y-107349560D01*
X238864391Y-107341624D01*
X238867143Y-107337643D01*
X238863709Y-107315762D01*
X238854180Y-107264341D01*
X238839715Y-107189398D01*
X238821473Y-107096945D01*
X238803459Y-107007088D01*
X238783162Y-106904278D01*
X238766140Y-106813675D01*
X238753456Y-106741305D01*
X238746172Y-106693197D01*
X238745052Y-106675772D01*
X238753138Y-106686888D01*
X238772720Y-106726987D01*
X238801714Y-106791403D01*
X238838034Y-106875470D01*
X238879597Y-106974521D01*
X238892721Y-107006327D01*
X239035112Y-107352714D01*
X239114413Y-107352714D01*
X239164429Y-107350328D01*
X239188266Y-107339853D01*
X239195894Y-107316312D01*
X239196224Y-107311893D01*
X239197726Y-107280459D01*
X239200260Y-107219873D01*
X239203542Y-107137242D01*
X239207287Y-107039678D01*
X239209831Y-106971714D01*
X239220929Y-106672357D01*
X239292012Y-107012536D01*
X239363096Y-107352714D01*
X239443658Y-107352714D01*
X239493002Y-107351068D01*
X239514582Y-107342871D01*
X239516883Y-107323234D01*
X239514500Y-107311893D01*
X239508181Y-107282467D01*
X239496017Y-107223312D01*
X239479195Y-107140294D01*
X239458902Y-107039284D01*
X239436326Y-106926147D01*
X239428256Y-106885536D01*
X239351730Y-106500000D01*
X239107633Y-106500000D01*
X239094379Y-106827729D01*
X239089726Y-106931501D01*
X239084847Y-107020819D01*
X239080117Y-107090168D01*
X239075908Y-107134030D01*
X239072724Y-107147057D01*
X239063172Y-107128578D01*
X239041516Y-107082047D01*
X239010118Y-107012689D01*
X238971341Y-106925730D01*
X238927548Y-106826394D01*
X238922464Y-106814793D01*
X238780604Y-106490929D01*
X238658400Y-106485514D01*
X238593843Y-106483257D01*
X238558130Y-106485290D01*
X238558130Y-106485290D01*
G37*
X238558130Y-106485290D02*
X238543873Y-106493996D01*
X238543679Y-106511758D01*
X238545854Y-106521800D01*
X238552136Y-106551356D01*
X238564306Y-106610707D01*
X238581192Y-106694055D01*
X238601620Y-106795603D01*
X238624419Y-106909554D01*
X238634099Y-106958107D01*
X238712686Y-107352714D01*
X238789915Y-107352714D01*
X238837059Y-107349560D01*
X238864391Y-107341624D01*
X238867143Y-107337643D01*
X238863709Y-107315762D01*
X238854180Y-107264341D01*
X238839715Y-107189398D01*
X238821473Y-107096945D01*
X238803459Y-107007088D01*
X238783162Y-106904278D01*
X238766140Y-106813675D01*
X238753456Y-106741305D01*
X238746172Y-106693197D01*
X238745052Y-106675772D01*
X238753138Y-106686888D01*
X238772720Y-106726987D01*
X238801714Y-106791403D01*
X238838034Y-106875470D01*
X238879597Y-106974521D01*
X238892721Y-107006327D01*
X239035112Y-107352714D01*
X239114413Y-107352714D01*
X239164429Y-107350328D01*
X239188266Y-107339853D01*
X239195894Y-107316312D01*
X239196224Y-107311893D01*
X239197726Y-107280459D01*
X239200260Y-107219873D01*
X239203542Y-107137242D01*
X239207287Y-107039678D01*
X239209831Y-106971714D01*
X239220929Y-106672357D01*
X239292012Y-107012536D01*
X239363096Y-107352714D01*
X239443658Y-107352714D01*
X239493002Y-107351068D01*
X239514582Y-107342871D01*
X239516883Y-107323234D01*
X239514500Y-107311893D01*
X239508181Y-107282467D01*
X239496017Y-107223312D01*
X239479195Y-107140294D01*
X239458902Y-107039284D01*
X239436326Y-106926147D01*
X239428256Y-106885536D01*
X239351730Y-106500000D01*
X239107633Y-106500000D01*
X239094379Y-106827729D01*
X239089726Y-106931501D01*
X239084847Y-107020819D01*
X239080117Y-107090168D01*
X239075908Y-107134030D01*
X239072724Y-107147057D01*
X239063172Y-107128578D01*
X239041516Y-107082047D01*
X239010118Y-107012689D01*
X238971341Y-106925730D01*
X238927548Y-106826394D01*
X238922464Y-106814793D01*
X238780604Y-106490929D01*
X238658400Y-106485514D01*
X238593843Y-106483257D01*
X238558130Y-106485290D01*
G36*
X239591462Y-106553033D02*
G01*
X239550654Y-106617215D01*
X239540164Y-106692261D01*
X239558835Y-106770977D01*
X239605512Y-106846170D01*
X239644819Y-106885212D01*
X239685008Y-106921807D01*
X239698767Y-106947396D01*
X239688722Y-106972704D01*
X239671312Y-106993380D01*
X239656164Y-107014824D01*
X239649657Y-107042112D01*
X239651257Y-107084809D01*
X239660431Y-107152480D01*
X239661905Y-107162021D01*
X239670758Y-107231224D01*
X239674648Y-107288578D01*
X239672862Y-107322840D01*
X239672223Y-107324891D01*
X239672158Y-107341512D01*
X239693090Y-107349982D01*
X239741979Y-107352664D01*
X239754202Y-107352714D01*
X239801619Y-107351989D01*
X239830595Y-107345404D01*
X239843852Y-107326341D01*
X239844112Y-107288184D01*
X239834097Y-107224318D01*
X239825744Y-107178815D01*
X239814669Y-107101771D01*
X239819017Y-107052004D01*
X239843945Y-107023679D01*
X239894609Y-107010956D01*
X239976167Y-107008000D01*
X239976648Y-107008000D01*
X240034858Y-107008118D01*
X240074537Y-107012424D01*
X240100774Y-107026851D01*
X240118652Y-107057329D01*
X240133260Y-107109791D01*
X240149682Y-107190167D01*
X240154742Y-107215688D01*
X240183852Y-107361786D01*
X240260283Y-107367365D01*
X240307014Y-107367123D01*
X240334041Y-107359912D01*
X240336714Y-107355556D01*
X240333392Y-107333776D01*
X240324232Y-107282681D01*
X240310447Y-107208547D01*
X240293249Y-107117652D01*
X240273849Y-107016276D01*
X240253460Y-106910694D01*
X240245024Y-106867393D01*
X240081923Y-106867393D01*
X240065612Y-106873740D01*
X240021592Y-106878507D01*
X239958435Y-106880877D01*
X239939184Y-106881000D01*
X239866586Y-106880210D01*
X239820204Y-106875874D01*
X239789974Y-106865043D01*
X239765834Y-106844767D01*
X239748684Y-106825179D01*
X239714483Y-106767785D01*
X239702587Y-106709630D01*
X239714306Y-106661616D01*
X239727209Y-106646570D01*
X239761416Y-106635219D01*
X239825933Y-106630079D01*
X239894339Y-106630742D01*
X240035976Y-106636072D01*
X240058553Y-106744929D01*
X240070617Y-106804585D01*
X240079114Y-106849430D01*
X240081923Y-106867393D01*
X240245024Y-106867393D01*
X240233294Y-106807187D01*
X240214562Y-106712031D01*
X240198477Y-106631505D01*
X240186250Y-106571887D01*
X240179432Y-106540822D01*
X240174255Y-106524903D01*
X240163967Y-106513774D01*
X240142849Y-106506579D01*
X240105182Y-106502461D01*
X240045246Y-106500562D01*
X239957322Y-106500025D01*
X239906995Y-106500000D01*
X239644495Y-106500000D01*
X239591462Y-106553033D01*
X239591462Y-106553033D01*
G37*
X239591462Y-106553033D02*
X239550654Y-106617215D01*
X239540164Y-106692261D01*
X239558835Y-106770977D01*
X239605512Y-106846170D01*
X239644819Y-106885212D01*
X239685008Y-106921807D01*
X239698767Y-106947396D01*
X239688722Y-106972704D01*
X239671312Y-106993380D01*
X239656164Y-107014824D01*
X239649657Y-107042112D01*
X239651257Y-107084809D01*
X239660431Y-107152480D01*
X239661905Y-107162021D01*
X239670758Y-107231224D01*
X239674648Y-107288578D01*
X239672862Y-107322840D01*
X239672223Y-107324891D01*
X239672158Y-107341512D01*
X239693090Y-107349982D01*
X239741979Y-107352664D01*
X239754202Y-107352714D01*
X239801619Y-107351989D01*
X239830595Y-107345404D01*
X239843852Y-107326341D01*
X239844112Y-107288184D01*
X239834097Y-107224318D01*
X239825744Y-107178815D01*
X239814669Y-107101771D01*
X239819017Y-107052004D01*
X239843945Y-107023679D01*
X239894609Y-107010956D01*
X239976167Y-107008000D01*
X239976648Y-107008000D01*
X240034858Y-107008118D01*
X240074537Y-107012424D01*
X240100774Y-107026851D01*
X240118652Y-107057329D01*
X240133260Y-107109791D01*
X240149682Y-107190167D01*
X240154742Y-107215688D01*
X240183852Y-107361786D01*
X240260283Y-107367365D01*
X240307014Y-107367123D01*
X240334041Y-107359912D01*
X240336714Y-107355556D01*
X240333392Y-107333776D01*
X240324232Y-107282681D01*
X240310447Y-107208547D01*
X240293249Y-107117652D01*
X240273849Y-107016276D01*
X240253460Y-106910694D01*
X240245024Y-106867393D01*
X240081923Y-106867393D01*
X240065612Y-106873740D01*
X240021592Y-106878507D01*
X239958435Y-106880877D01*
X239939184Y-106881000D01*
X239866586Y-106880210D01*
X239820204Y-106875874D01*
X239789974Y-106865043D01*
X239765834Y-106844767D01*
X239748684Y-106825179D01*
X239714483Y-106767785D01*
X239702587Y-106709630D01*
X239714306Y-106661616D01*
X239727209Y-106646570D01*
X239761416Y-106635219D01*
X239825933Y-106630079D01*
X239894339Y-106630742D01*
X240035976Y-106636072D01*
X240058553Y-106744929D01*
X240070617Y-106804585D01*
X240079114Y-106849430D01*
X240081923Y-106867393D01*
X240245024Y-106867393D01*
X240233294Y-106807187D01*
X240214562Y-106712031D01*
X240198477Y-106631505D01*
X240186250Y-106571887D01*
X240179432Y-106540822D01*
X240174255Y-106524903D01*
X240163967Y-106513774D01*
X240142849Y-106506579D01*
X240105182Y-106502461D01*
X240045246Y-106500562D01*
X239957322Y-106500025D01*
X239906995Y-106500000D01*
X239644495Y-106500000D01*
X239591462Y-106553033D01*
G36*
X240679620Y-106502320D02*
G01*
X240592939Y-106510852D01*
X240529792Y-106527957D01*
X240483905Y-106555994D01*
X240449007Y-106597325D01*
X240425870Y-106639292D01*
X240398306Y-106734790D01*
X240396839Y-106844257D01*
X240418529Y-106959899D01*
X240460438Y-107073923D01*
X240519624Y-107178536D01*
X240593151Y-107265943D01*
X240678077Y-107328351D01*
X240687550Y-107333144D01*
X240729954Y-107350622D01*
X240776530Y-107361868D01*
X240836520Y-107368121D01*
X240919165Y-107370624D01*
X240968371Y-107370857D01*
X241049290Y-107369887D01*
X241114884Y-107367254D01*
X241157890Y-107363374D01*
X241171286Y-107359230D01*
X241168007Y-107335345D01*
X241159007Y-107282505D01*
X241145536Y-107207368D01*
X241145374Y-107206484D01*
X240987135Y-107206484D01*
X240978481Y-107218704D01*
X240950748Y-107224212D01*
X240896575Y-107225669D01*
X240871086Y-107225714D01*
X240804582Y-107224572D01*
X240761599Y-107217996D01*
X240729380Y-107201266D01*
X240695167Y-107169659D01*
X240681706Y-107155624D01*
X240628566Y-107082415D01*
X240589732Y-106994479D01*
X240566665Y-106900742D01*
X240560824Y-106810129D01*
X240573671Y-106731565D01*
X240603462Y-106677367D01*
X240630332Y-106658583D01*
X240673943Y-106648499D01*
X240743360Y-106645179D01*
X240754231Y-106645143D01*
X240875838Y-106645143D01*
X240925097Y-106894607D01*
X240943778Y-106988630D01*
X240960685Y-107072655D01*
X240974228Y-107138849D01*
X240982814Y-107179377D01*
X240984073Y-107184893D01*
X240987135Y-107206484D01*
X241145374Y-107206484D01*
X241128847Y-107116587D01*
X241110192Y-107016820D01*
X241090822Y-106914721D01*
X241071990Y-106816945D01*
X241054947Y-106730148D01*
X241040946Y-106660986D01*
X241032695Y-106622464D01*
X241005092Y-106500000D01*
X240796109Y-106500000D01*
X240679620Y-106502320D01*
X240679620Y-106502320D01*
G37*
X240679620Y-106502320D02*
X240592939Y-106510852D01*
X240529792Y-106527957D01*
X240483905Y-106555994D01*
X240449007Y-106597325D01*
X240425870Y-106639292D01*
X240398306Y-106734790D01*
X240396839Y-106844257D01*
X240418529Y-106959899D01*
X240460438Y-107073923D01*
X240519624Y-107178536D01*
X240593151Y-107265943D01*
X240678077Y-107328351D01*
X240687550Y-107333144D01*
X240729954Y-107350622D01*
X240776530Y-107361868D01*
X240836520Y-107368121D01*
X240919165Y-107370624D01*
X240968371Y-107370857D01*
X241049290Y-107369887D01*
X241114884Y-107367254D01*
X241157890Y-107363374D01*
X241171286Y-107359230D01*
X241168007Y-107335345D01*
X241159007Y-107282505D01*
X241145536Y-107207368D01*
X241145374Y-107206484D01*
X240987135Y-107206484D01*
X240978481Y-107218704D01*
X240950748Y-107224212D01*
X240896575Y-107225669D01*
X240871086Y-107225714D01*
X240804582Y-107224572D01*
X240761599Y-107217996D01*
X240729380Y-107201266D01*
X240695167Y-107169659D01*
X240681706Y-107155624D01*
X240628566Y-107082415D01*
X240589732Y-106994479D01*
X240566665Y-106900742D01*
X240560824Y-106810129D01*
X240573671Y-106731565D01*
X240603462Y-106677367D01*
X240630332Y-106658583D01*
X240673943Y-106648499D01*
X240743360Y-106645179D01*
X240754231Y-106645143D01*
X240875838Y-106645143D01*
X240925097Y-106894607D01*
X240943778Y-106988630D01*
X240960685Y-107072655D01*
X240974228Y-107138849D01*
X240982814Y-107179377D01*
X240984073Y-107184893D01*
X240987135Y-107206484D01*
X241145374Y-107206484D01*
X241128847Y-107116587D01*
X241110192Y-107016820D01*
X241090822Y-106914721D01*
X241071990Y-106816945D01*
X241054947Y-106730148D01*
X241040946Y-106660986D01*
X241032695Y-106622464D01*
X241005092Y-106500000D01*
X240796109Y-106500000D01*
X240679620Y-106502320D01*
G36*
X241386777Y-106520871D02*
G01*
X241305669Y-106549576D01*
X241253270Y-106598569D01*
X241228322Y-106668758D01*
X241225714Y-106707450D01*
X241228081Y-106749765D01*
X241242373Y-106767741D01*
X241279381Y-106771528D01*
X241293750Y-106771444D01*
X241344857Y-106764892D01*
X241378994Y-106739872D01*
X241398338Y-106712480D01*
X241425281Y-106676660D01*
X241456644Y-106658203D01*
X241506307Y-106650212D01*
X241526376Y-106648852D01*
X241606273Y-106655114D01*
X241668431Y-106681509D01*
X241706548Y-106724210D01*
X241715572Y-106763750D01*
X241709623Y-106794569D01*
X241688112Y-106818514D01*
X241645544Y-106838406D01*
X241576423Y-106857066D01*
X241505283Y-106871675D01*
X241407176Y-106894104D01*
X241339821Y-106919275D01*
X241297688Y-106950204D01*
X241275245Y-106989912D01*
X241272784Y-106998567D01*
X241270553Y-107063443D01*
X241288062Y-107139501D01*
X241320977Y-107210769D01*
X241336348Y-107232923D01*
X241402602Y-107291078D01*
X241492282Y-107334345D01*
X241594806Y-107360486D01*
X241699590Y-107367263D01*
X241796052Y-107352438D01*
X241833870Y-107338148D01*
X241903285Y-107288220D01*
X241942852Y-107219646D01*
X241951429Y-107161361D01*
X241947234Y-107132486D01*
X241927830Y-107119780D01*
X241882986Y-107116861D01*
X241880080Y-107116857D01*
X241829697Y-107121449D01*
X241804111Y-107138378D01*
X241797061Y-107153626D01*
X241764992Y-107200297D01*
X241710024Y-107230471D01*
X241641993Y-107243313D01*
X241570731Y-107237987D01*
X241506075Y-107213657D01*
X241467175Y-107181675D01*
X241432818Y-107126023D01*
X241433115Y-107078862D01*
X241468297Y-107039899D01*
X241538595Y-107008840D01*
X241617789Y-106989943D01*
X241729557Y-106963254D01*
X241807757Y-106929482D01*
X241854796Y-106886280D01*
X241873081Y-106831305D01*
X241865020Y-106762210D01*
X241862119Y-106751921D01*
X241815827Y-106654300D01*
X241743443Y-106580910D01*
X241647063Y-106533136D01*
X241528788Y-106512360D01*
X241497857Y-106511546D01*
X241386777Y-106520871D01*
X241386777Y-106520871D01*
G37*
X241386777Y-106520871D02*
X241305669Y-106549576D01*
X241253270Y-106598569D01*
X241228322Y-106668758D01*
X241225714Y-106707450D01*
X241228081Y-106749765D01*
X241242373Y-106767741D01*
X241279381Y-106771528D01*
X241293750Y-106771444D01*
X241344857Y-106764892D01*
X241378994Y-106739872D01*
X241398338Y-106712480D01*
X241425281Y-106676660D01*
X241456644Y-106658203D01*
X241506307Y-106650212D01*
X241526376Y-106648852D01*
X241606273Y-106655114D01*
X241668431Y-106681509D01*
X241706548Y-106724210D01*
X241715572Y-106763750D01*
X241709623Y-106794569D01*
X241688112Y-106818514D01*
X241645544Y-106838406D01*
X241576423Y-106857066D01*
X241505283Y-106871675D01*
X241407176Y-106894104D01*
X241339821Y-106919275D01*
X241297688Y-106950204D01*
X241275245Y-106989912D01*
X241272784Y-106998567D01*
X241270553Y-107063443D01*
X241288062Y-107139501D01*
X241320977Y-107210769D01*
X241336348Y-107232923D01*
X241402602Y-107291078D01*
X241492282Y-107334345D01*
X241594806Y-107360486D01*
X241699590Y-107367263D01*
X241796052Y-107352438D01*
X241833870Y-107338148D01*
X241903285Y-107288220D01*
X241942852Y-107219646D01*
X241951429Y-107161361D01*
X241947234Y-107132486D01*
X241927830Y-107119780D01*
X241882986Y-107116861D01*
X241880080Y-107116857D01*
X241829697Y-107121449D01*
X241804111Y-107138378D01*
X241797061Y-107153626D01*
X241764992Y-107200297D01*
X241710024Y-107230471D01*
X241641993Y-107243313D01*
X241570731Y-107237987D01*
X241506075Y-107213657D01*
X241467175Y-107181675D01*
X241432818Y-107126023D01*
X241433115Y-107078862D01*
X241468297Y-107039899D01*
X241538595Y-107008840D01*
X241617789Y-106989943D01*
X241729557Y-106963254D01*
X241807757Y-106929482D01*
X241854796Y-106886280D01*
X241873081Y-106831305D01*
X241865020Y-106762210D01*
X241862119Y-106751921D01*
X241815827Y-106654300D01*
X241743443Y-106580910D01*
X241647063Y-106533136D01*
X241528788Y-106512360D01*
X241497857Y-106511546D01*
X241386777Y-106520871D01*
G36*
X242364052Y-106519364D02*
G01*
X242335694Y-106522445D01*
X242332429Y-106524143D01*
X242335819Y-106543378D01*
X242345086Y-106591405D01*
X242358871Y-106661455D01*
X242375819Y-106746764D01*
X242394571Y-106840564D01*
X242413771Y-106936088D01*
X242432062Y-107026571D01*
X242448087Y-107105244D01*
X242460488Y-107165343D01*
X242467909Y-107200100D01*
X242468585Y-107203036D01*
X242471587Y-107220843D01*
X242466496Y-107232533D01*
X242447311Y-107239391D01*
X242408031Y-107242707D01*
X242342655Y-107243767D01*
X242278346Y-107243857D01*
X242188298Y-107244314D01*
X242129075Y-107247349D01*
X242095219Y-107255459D01*
X242081269Y-107271140D01*
X242081765Y-107296888D01*
X242089864Y-107330036D01*
X242095274Y-107345597D01*
X242105517Y-107356597D01*
X242126171Y-107363828D01*
X242162811Y-107368078D01*
X242221014Y-107370139D01*
X242306358Y-107370802D01*
X242377794Y-107370857D01*
X242654785Y-107370857D01*
X242629728Y-107239322D01*
X242617412Y-107174774D01*
X242600161Y-107084509D01*
X242579871Y-106978445D01*
X242558441Y-106866502D01*
X242548186Y-106812964D01*
X242491700Y-106518143D01*
X242412064Y-106518143D01*
X242364052Y-106519364D01*
X242364052Y-106519364D01*
G37*
X242364052Y-106519364D02*
X242335694Y-106522445D01*
X242332429Y-106524143D01*
X242335819Y-106543378D01*
X242345086Y-106591405D01*
X242358871Y-106661455D01*
X242375819Y-106746764D01*
X242394571Y-106840564D01*
X242413771Y-106936088D01*
X242432062Y-107026571D01*
X242448087Y-107105244D01*
X242460488Y-107165343D01*
X242467909Y-107200100D01*
X242468585Y-107203036D01*
X242471587Y-107220843D01*
X242466496Y-107232533D01*
X242447311Y-107239391D01*
X242408031Y-107242707D01*
X242342655Y-107243767D01*
X242278346Y-107243857D01*
X242188298Y-107244314D01*
X242129075Y-107247349D01*
X242095219Y-107255459D01*
X242081269Y-107271140D01*
X242081765Y-107296888D01*
X242089864Y-107330036D01*
X242095274Y-107345597D01*
X242105517Y-107356597D01*
X242126171Y-107363828D01*
X242162811Y-107368078D01*
X242221014Y-107370139D01*
X242306358Y-107370802D01*
X242377794Y-107370857D01*
X242654785Y-107370857D01*
X242629728Y-107239322D01*
X242617412Y-107174774D01*
X242600161Y-107084509D01*
X242579871Y-106978445D01*
X242558441Y-106866502D01*
X242548186Y-106812964D01*
X242491700Y-106518143D01*
X242412064Y-106518143D01*
X242364052Y-106519364D01*
G36*
X242746743Y-102196954D02*
G01*
X242714778Y-102230550D01*
X242668582Y-102281971D01*
X242612712Y-102346237D01*
X242602557Y-102358108D01*
X242544866Y-102425558D01*
X242495744Y-102482709D01*
X242459947Y-102524048D01*
X242442233Y-102544060D01*
X242441455Y-102544857D01*
X242426320Y-102561820D01*
X242393755Y-102599548D01*
X242349711Y-102651055D01*
X242300137Y-102709357D01*
X242250983Y-102767468D01*
X242208199Y-102818403D01*
X242196357Y-102832608D01*
X242164531Y-102870408D01*
X242141929Y-102896521D01*
X242122345Y-102919132D01*
X242086108Y-102961567D01*
X242039963Y-103015919D01*
X242024056Y-103034714D01*
X241968966Y-103099077D01*
X241914427Y-103161508D01*
X241870886Y-103210068D01*
X241865276Y-103216143D01*
X241806226Y-103279643D01*
X241898392Y-103320734D01*
X241947699Y-103345712D01*
X241978668Y-103367253D01*
X241984601Y-103377547D01*
X241975557Y-103397467D01*
X241953015Y-103445814D01*
X241919026Y-103518228D01*
X241875640Y-103610351D01*
X241824908Y-103717822D01*
X241768879Y-103836283D01*
X241763147Y-103848390D01*
X241698980Y-103983337D01*
X241648086Y-104088668D01*
X241608570Y-104167733D01*
X241578537Y-104223877D01*
X241556090Y-104260448D01*
X241539335Y-104280795D01*
X241526375Y-104288264D01*
X241515314Y-104286204D01*
X241515244Y-104286167D01*
X241483144Y-104272771D01*
X241427080Y-104252800D01*
X241357855Y-104230060D01*
X241340669Y-104224671D01*
X241042565Y-104150200D01*
X240736056Y-104108279D01*
X240427149Y-104099182D01*
X240121850Y-104123185D01*
X239915048Y-104159491D01*
X239611025Y-104243775D01*
X239319195Y-104360889D01*
X239043366Y-104509032D01*
X238787344Y-104686407D01*
X238768070Y-104701617D01*
X238652749Y-104800458D01*
X238533233Y-104915175D01*
X238417093Y-105037605D01*
X238311903Y-105159586D01*
X238225234Y-105272954D01*
X238192066Y-105322500D01*
X238029502Y-105611995D01*
X237902318Y-105908260D01*
X237810647Y-106210323D01*
X237754625Y-106517211D01*
X237734384Y-106827950D01*
X237750058Y-107141568D01*
X237801783Y-107457090D01*
X237865244Y-107697429D01*
X237908094Y-107816558D01*
X237967732Y-107954347D01*
X238038924Y-108100618D01*
X238116433Y-108245193D01*
X238195023Y-108377896D01*
X238269459Y-108488548D01*
X238278491Y-108500695D01*
X238429251Y-108682941D01*
X238598103Y-108855941D01*
X238777730Y-109013258D01*
X238960811Y-109148452D01*
X239130449Y-109250102D01*
X239192163Y-109283980D01*
X239239197Y-109312610D01*
X239264032Y-109331303D01*
X239266090Y-109334686D01*
X239258608Y-109353478D01*
X239237163Y-109401512D01*
X239203392Y-109475264D01*
X239158928Y-109571214D01*
X239105407Y-109685839D01*
X239044464Y-109815618D01*
X238977734Y-109957028D01*
X238948786Y-110018175D01*
X238880111Y-110163475D01*
X238816541Y-110298698D01*
X238759714Y-110420305D01*
X238711268Y-110524761D01*
X238672840Y-110608526D01*
X238646068Y-110668064D01*
X238632589Y-110699837D01*
X238631286Y-110704023D01*
X238646590Y-110715878D01*
X238686683Y-110737616D01*
X238742834Y-110765219D01*
X238806313Y-110794672D01*
X238868390Y-110821958D01*
X238920336Y-110843061D01*
X238953420Y-110853965D01*
X238958681Y-110854642D01*
X238968294Y-110838710D01*
X238991674Y-110793341D01*
X239027162Y-110721942D01*
X239073098Y-110627920D01*
X239127824Y-110514682D01*
X239189680Y-110385634D01*
X239257007Y-110244182D01*
X239292429Y-110169393D01*
X239361808Y-110022777D01*
X239426346Y-109886603D01*
X239484404Y-109764314D01*
X239534343Y-109659350D01*
X239574525Y-109575155D01*
X239603311Y-109515170D01*
X239618690Y-109483600D01*
X239519858Y-109483600D01*
X239512489Y-109504025D01*
X239491512Y-109552660D01*
X239458984Y-109624982D01*
X239416961Y-109716470D01*
X239367499Y-109822601D01*
X239317754Y-109928100D01*
X239256591Y-110057181D01*
X239194618Y-110188065D01*
X239135385Y-110313249D01*
X239082442Y-110425229D01*
X239039338Y-110516501D01*
X239019410Y-110558766D01*
X238923597Y-110762174D01*
X238832298Y-110722052D01*
X238781854Y-110697034D01*
X238748511Y-110675041D01*
X238740571Y-110664686D01*
X238747940Y-110644260D01*
X238768917Y-110595626D01*
X238801445Y-110523304D01*
X238843467Y-110431816D01*
X238892930Y-110325685D01*
X238942675Y-110220186D01*
X239003838Y-110091105D01*
X239065810Y-109960221D01*
X239125043Y-109835037D01*
X239177987Y-109723057D01*
X239221091Y-109631785D01*
X239241019Y-109589520D01*
X239336832Y-109386111D01*
X239428131Y-109426234D01*
X239478574Y-109451252D01*
X239511917Y-109473245D01*
X239519858Y-109483600D01*
X239618690Y-109483600D01*
X239619062Y-109482837D01*
X239621537Y-109478116D01*
X239640204Y-109479492D01*
X239682189Y-109490003D01*
X239714146Y-109499677D01*
X239890585Y-109545790D01*
X240089968Y-109580281D01*
X240300475Y-109601925D01*
X240510288Y-109609495D01*
X240702515Y-109602188D01*
X241024299Y-109558566D01*
X241332955Y-109481606D01*
X241627255Y-109371788D01*
X241905968Y-109229590D01*
X242167865Y-109055493D01*
X242231931Y-109005955D01*
X242347251Y-108907113D01*
X242466767Y-108792396D01*
X242582907Y-108669967D01*
X242688097Y-108547986D01*
X242774766Y-108434617D01*
X242807934Y-108385072D01*
X242968808Y-108098351D01*
X243095250Y-107804149D01*
X243187135Y-107504338D01*
X243244333Y-107200792D01*
X243266716Y-106895386D01*
X243266696Y-106894881D01*
X243184272Y-106894881D01*
X243162227Y-107199930D01*
X243105328Y-107505660D01*
X243068091Y-107643000D01*
X243033957Y-107740715D01*
X242985182Y-107858043D01*
X242926245Y-107985994D01*
X242861628Y-108115577D01*
X242795811Y-108237802D01*
X242733275Y-108343676D01*
X242679310Y-108423143D01*
X242515296Y-108625508D01*
X242350636Y-108798362D01*
X242177942Y-108947848D01*
X241989827Y-109080109D01*
X241778902Y-109201288D01*
X241688357Y-109247118D01*
X241529956Y-109321465D01*
X241389314Y-109379324D01*
X241254287Y-109424760D01*
X241112731Y-109461838D01*
X240952501Y-109494622D01*
X240944500Y-109496090D01*
X240813088Y-109513243D01*
X240657219Y-109522621D01*
X240487829Y-109524440D01*
X240315855Y-109518918D01*
X240152235Y-109506270D01*
X240007906Y-109486714D01*
X239955714Y-109476502D01*
X239655146Y-109393568D01*
X239368514Y-109280256D01*
X239099907Y-109138504D01*
X238853413Y-108970247D01*
X238803643Y-108930751D01*
X238574495Y-108721331D01*
X238374013Y-108491221D01*
X238202958Y-108242929D01*
X238062093Y-107978961D01*
X237952181Y-107701824D01*
X237873983Y-107414026D01*
X237828264Y-107118074D01*
X237815785Y-106816474D01*
X237837308Y-106511735D01*
X237893597Y-106206362D01*
X237931909Y-106064571D01*
X237966043Y-105966857D01*
X238014818Y-105849529D01*
X238073755Y-105721577D01*
X238138372Y-105591994D01*
X238204189Y-105469770D01*
X238266725Y-105363895D01*
X238320690Y-105284429D01*
X238488480Y-105078013D01*
X238658059Y-104901375D01*
X238836681Y-104748419D01*
X239031600Y-104613052D01*
X239250070Y-104489179D01*
X239293500Y-104467109D01*
X239552891Y-104350831D01*
X239805925Y-104266134D01*
X240060592Y-104211274D01*
X240324881Y-104184501D01*
X240590714Y-104183440D01*
X240828639Y-104199898D01*
X241044376Y-104231832D01*
X241249391Y-104281154D01*
X241334572Y-104307354D01*
X241416179Y-104333986D01*
X241467739Y-104354551D01*
X241493086Y-104375974D01*
X241496053Y-104405178D01*
X241480475Y-104449087D01*
X241450184Y-104514627D01*
X241449795Y-104515469D01*
X241422320Y-104580228D01*
X241404630Y-104632621D01*
X241399450Y-104664083D01*
X241401085Y-104668554D01*
X241423296Y-104682185D01*
X241470550Y-104706567D01*
X241534769Y-104737622D01*
X241575656Y-104756649D01*
X241735098Y-104829832D01*
X241796874Y-104694273D01*
X241826759Y-104631831D01*
X241852092Y-104584586D01*
X241868590Y-104560341D01*
X241871283Y-104558714D01*
X241898603Y-104569179D01*
X241947477Y-104597477D01*
X242010971Y-104638963D01*
X242082153Y-104688991D01*
X242154091Y-104742917D01*
X242196357Y-104776537D01*
X242426002Y-104986877D01*
X242626825Y-105217735D01*
X242798072Y-105466630D01*
X242938989Y-105731082D01*
X243048821Y-106008614D01*
X243126815Y-106296743D01*
X243172217Y-106592993D01*
X243184272Y-106894881D01*
X243266696Y-106894881D01*
X243254158Y-106589993D01*
X243206530Y-106286487D01*
X243123705Y-105986743D01*
X243005555Y-105692634D01*
X242993283Y-105666711D01*
X242839340Y-105385194D01*
X242659671Y-105128988D01*
X242454633Y-104898510D01*
X242224585Y-104694179D01*
X242055750Y-104571519D01*
X241994459Y-104528797D01*
X241946695Y-104492185D01*
X241919196Y-104467020D01*
X241915143Y-104460185D01*
X241922686Y-104436248D01*
X241943676Y-104385905D01*
X241975655Y-104314246D01*
X242016162Y-104226361D01*
X242062738Y-104127340D01*
X242112926Y-104022274D01*
X242164264Y-103916251D01*
X242214296Y-103814363D01*
X242260560Y-103721700D01*
X242300599Y-103643352D01*
X242331952Y-103584408D01*
X242352162Y-103549959D01*
X242358195Y-103543113D01*
X242385656Y-103550392D01*
X242431542Y-103568227D01*
X242451650Y-103577060D01*
X242525515Y-103610608D01*
X242583421Y-103263697D01*
X242606672Y-103124990D01*
X242633579Y-102965420D01*
X242661621Y-102799880D01*
X242688277Y-102643263D01*
X242703489Y-102554337D01*
X242717816Y-102469374D01*
X242636648Y-102469374D01*
X242634829Y-102498043D01*
X242627992Y-102548478D01*
X242615628Y-102625843D01*
X242603363Y-102699072D01*
X242581038Y-102831501D01*
X242562140Y-102944255D01*
X242547622Y-103031618D01*
X242539693Y-103080071D01*
X242531592Y-103127272D01*
X242521039Y-103185232D01*
X242510938Y-103238333D01*
X242504283Y-103270572D01*
X242500838Y-103292086D01*
X242494136Y-103338372D01*
X242487767Y-103383964D01*
X242476229Y-103447375D01*
X242460091Y-103478871D01*
X242433653Y-103482809D01*
X242391216Y-103463543D01*
X242386857Y-103461072D01*
X242346922Y-103441793D01*
X242321215Y-103434500D01*
X242307776Y-103449999D01*
X242281865Y-103493661D01*
X242246054Y-103560628D01*
X242202917Y-103646042D01*
X242155026Y-103745048D01*
X242141354Y-103774036D01*
X242083591Y-103896892D01*
X242021946Y-104027528D01*
X241961402Y-104155417D01*
X241906941Y-104270029D01*
X241868711Y-104350072D01*
X241825449Y-104440958D01*
X241785544Y-104525960D01*
X241752801Y-104596891D01*
X241731023Y-104645568D01*
X241727497Y-104653881D01*
X241709989Y-104690208D01*
X241690203Y-104708065D01*
X241660548Y-104707650D01*
X241613432Y-104689160D01*
X241552163Y-104658436D01*
X241515230Y-104633956D01*
X241498019Y-104611944D01*
X241497857Y-104610311D01*
X241505681Y-104585321D01*
X241526320Y-104537973D01*
X241555522Y-104477934D01*
X241559485Y-104470170D01*
X241583300Y-104422118D01*
X241619640Y-104346662D01*
X241665876Y-104249365D01*
X241719377Y-104135791D01*
X241777513Y-104011506D01*
X241837652Y-103882072D01*
X241843570Y-103869286D01*
X241900962Y-103745335D01*
X241953954Y-103631053D01*
X242000478Y-103530888D01*
X242038465Y-103449289D01*
X242065846Y-103390703D01*
X242080554Y-103359578D01*
X242081932Y-103356759D01*
X242085955Y-103333267D01*
X242066316Y-103312905D01*
X242029169Y-103293797D01*
X241984858Y-103273359D01*
X241957019Y-103259974D01*
X241953507Y-103258069D01*
X241957434Y-103241064D01*
X241980974Y-103204528D01*
X242019109Y-103155577D01*
X242054699Y-103114525D01*
X242097043Y-103066185D01*
X242146548Y-103007517D01*
X242169143Y-102980003D01*
X242207864Y-102932778D01*
X242239025Y-102895649D01*
X242250955Y-102882050D01*
X242268858Y-102861738D01*
X242305569Y-102819349D01*
X242356331Y-102760400D01*
X242416387Y-102690406D01*
X242440035Y-102662786D01*
X242501918Y-102591302D01*
X242556151Y-102530224D01*
X242598091Y-102484661D01*
X242623096Y-102459724D01*
X242627266Y-102456688D01*
X242633957Y-102457310D01*
X242636648Y-102469374D01*
X242717816Y-102469374D01*
X242722019Y-102444455D01*
X242737783Y-102347401D01*
X242749951Y-102268599D01*
X242757691Y-102213473D01*
X242760171Y-102187448D01*
X242759922Y-102186160D01*
X242746743Y-102196954D01*
X242746743Y-102196954D01*
G37*
X242746743Y-102196954D02*
X242714778Y-102230550D01*
X242668582Y-102281971D01*
X242612712Y-102346237D01*
X242602557Y-102358108D01*
X242544866Y-102425558D01*
X242495744Y-102482709D01*
X242459947Y-102524048D01*
X242442233Y-102544060D01*
X242441455Y-102544857D01*
X242426320Y-102561820D01*
X242393755Y-102599548D01*
X242349711Y-102651055D01*
X242300137Y-102709357D01*
X242250983Y-102767468D01*
X242208199Y-102818403D01*
X242196357Y-102832608D01*
X242164531Y-102870408D01*
X242141929Y-102896521D01*
X242122345Y-102919132D01*
X242086108Y-102961567D01*
X242039963Y-103015919D01*
X242024056Y-103034714D01*
X241968966Y-103099077D01*
X241914427Y-103161508D01*
X241870886Y-103210068D01*
X241865276Y-103216143D01*
X241806226Y-103279643D01*
X241898392Y-103320734D01*
X241947699Y-103345712D01*
X241978668Y-103367253D01*
X241984601Y-103377547D01*
X241975557Y-103397467D01*
X241953015Y-103445814D01*
X241919026Y-103518228D01*
X241875640Y-103610351D01*
X241824908Y-103717822D01*
X241768879Y-103836283D01*
X241763147Y-103848390D01*
X241698980Y-103983337D01*
X241648086Y-104088668D01*
X241608570Y-104167733D01*
X241578537Y-104223877D01*
X241556090Y-104260448D01*
X241539335Y-104280795D01*
X241526375Y-104288264D01*
X241515314Y-104286204D01*
X241515244Y-104286167D01*
X241483144Y-104272771D01*
X241427080Y-104252800D01*
X241357855Y-104230060D01*
X241340669Y-104224671D01*
X241042565Y-104150200D01*
X240736056Y-104108279D01*
X240427149Y-104099182D01*
X240121850Y-104123185D01*
X239915048Y-104159491D01*
X239611025Y-104243775D01*
X239319195Y-104360889D01*
X239043366Y-104509032D01*
X238787344Y-104686407D01*
X238768070Y-104701617D01*
X238652749Y-104800458D01*
X238533233Y-104915175D01*
X238417093Y-105037605D01*
X238311903Y-105159586D01*
X238225234Y-105272954D01*
X238192066Y-105322500D01*
X238029502Y-105611995D01*
X237902318Y-105908260D01*
X237810647Y-106210323D01*
X237754625Y-106517211D01*
X237734384Y-106827950D01*
X237750058Y-107141568D01*
X237801783Y-107457090D01*
X237865244Y-107697429D01*
X237908094Y-107816558D01*
X237967732Y-107954347D01*
X238038924Y-108100618D01*
X238116433Y-108245193D01*
X238195023Y-108377896D01*
X238269459Y-108488548D01*
X238278491Y-108500695D01*
X238429251Y-108682941D01*
X238598103Y-108855941D01*
X238777730Y-109013258D01*
X238960811Y-109148452D01*
X239130449Y-109250102D01*
X239192163Y-109283980D01*
X239239197Y-109312610D01*
X239264032Y-109331303D01*
X239266090Y-109334686D01*
X239258608Y-109353478D01*
X239237163Y-109401512D01*
X239203392Y-109475264D01*
X239158928Y-109571214D01*
X239105407Y-109685839D01*
X239044464Y-109815618D01*
X238977734Y-109957028D01*
X238948786Y-110018175D01*
X238880111Y-110163475D01*
X238816541Y-110298698D01*
X238759714Y-110420305D01*
X238711268Y-110524761D01*
X238672840Y-110608526D01*
X238646068Y-110668064D01*
X238632589Y-110699837D01*
X238631286Y-110704023D01*
X238646590Y-110715878D01*
X238686683Y-110737616D01*
X238742834Y-110765219D01*
X238806313Y-110794672D01*
X238868390Y-110821958D01*
X238920336Y-110843061D01*
X238953420Y-110853965D01*
X238958681Y-110854642D01*
X238968294Y-110838710D01*
X238991674Y-110793341D01*
X239027162Y-110721942D01*
X239073098Y-110627920D01*
X239127824Y-110514682D01*
X239189680Y-110385634D01*
X239257007Y-110244182D01*
X239292429Y-110169393D01*
X239361808Y-110022777D01*
X239426346Y-109886603D01*
X239484404Y-109764314D01*
X239534343Y-109659350D01*
X239574525Y-109575155D01*
X239603311Y-109515170D01*
X239618690Y-109483600D01*
X239519858Y-109483600D01*
X239512489Y-109504025D01*
X239491512Y-109552660D01*
X239458984Y-109624982D01*
X239416961Y-109716470D01*
X239367499Y-109822601D01*
X239317754Y-109928100D01*
X239256591Y-110057181D01*
X239194618Y-110188065D01*
X239135385Y-110313249D01*
X239082442Y-110425229D01*
X239039338Y-110516501D01*
X239019410Y-110558766D01*
X238923597Y-110762174D01*
X238832298Y-110722052D01*
X238781854Y-110697034D01*
X238748511Y-110675041D01*
X238740571Y-110664686D01*
X238747940Y-110644260D01*
X238768917Y-110595626D01*
X238801445Y-110523304D01*
X238843467Y-110431816D01*
X238892930Y-110325685D01*
X238942675Y-110220186D01*
X239003838Y-110091105D01*
X239065810Y-109960221D01*
X239125043Y-109835037D01*
X239177987Y-109723057D01*
X239221091Y-109631785D01*
X239241019Y-109589520D01*
X239336832Y-109386111D01*
X239428131Y-109426234D01*
X239478574Y-109451252D01*
X239511917Y-109473245D01*
X239519858Y-109483600D01*
X239618690Y-109483600D01*
X239619062Y-109482837D01*
X239621537Y-109478116D01*
X239640204Y-109479492D01*
X239682189Y-109490003D01*
X239714146Y-109499677D01*
X239890585Y-109545790D01*
X240089968Y-109580281D01*
X240300475Y-109601925D01*
X240510288Y-109609495D01*
X240702515Y-109602188D01*
X241024299Y-109558566D01*
X241332955Y-109481606D01*
X241627255Y-109371788D01*
X241905968Y-109229590D01*
X242167865Y-109055493D01*
X242231931Y-109005955D01*
X242347251Y-108907113D01*
X242466767Y-108792396D01*
X242582907Y-108669967D01*
X242688097Y-108547986D01*
X242774766Y-108434617D01*
X242807934Y-108385072D01*
X242968808Y-108098351D01*
X243095250Y-107804149D01*
X243187135Y-107504338D01*
X243244333Y-107200792D01*
X243266716Y-106895386D01*
X243266696Y-106894881D01*
X243184272Y-106894881D01*
X243162227Y-107199930D01*
X243105328Y-107505660D01*
X243068091Y-107643000D01*
X243033957Y-107740715D01*
X242985182Y-107858043D01*
X242926245Y-107985994D01*
X242861628Y-108115577D01*
X242795811Y-108237802D01*
X242733275Y-108343676D01*
X242679310Y-108423143D01*
X242515296Y-108625508D01*
X242350636Y-108798362D01*
X242177942Y-108947848D01*
X241989827Y-109080109D01*
X241778902Y-109201288D01*
X241688357Y-109247118D01*
X241529956Y-109321465D01*
X241389314Y-109379324D01*
X241254287Y-109424760D01*
X241112731Y-109461838D01*
X240952501Y-109494622D01*
X240944500Y-109496090D01*
X240813088Y-109513243D01*
X240657219Y-109522621D01*
X240487829Y-109524440D01*
X240315855Y-109518918D01*
X240152235Y-109506270D01*
X240007906Y-109486714D01*
X239955714Y-109476502D01*
X239655146Y-109393568D01*
X239368514Y-109280256D01*
X239099907Y-109138504D01*
X238853413Y-108970247D01*
X238803643Y-108930751D01*
X238574495Y-108721331D01*
X238374013Y-108491221D01*
X238202958Y-108242929D01*
X238062093Y-107978961D01*
X237952181Y-107701824D01*
X237873983Y-107414026D01*
X237828264Y-107118074D01*
X237815785Y-106816474D01*
X237837308Y-106511735D01*
X237893597Y-106206362D01*
X237931909Y-106064571D01*
X237966043Y-105966857D01*
X238014818Y-105849529D01*
X238073755Y-105721577D01*
X238138372Y-105591994D01*
X238204189Y-105469770D01*
X238266725Y-105363895D01*
X238320690Y-105284429D01*
X238488480Y-105078013D01*
X238658059Y-104901375D01*
X238836681Y-104748419D01*
X239031600Y-104613052D01*
X239250070Y-104489179D01*
X239293500Y-104467109D01*
X239552891Y-104350831D01*
X239805925Y-104266134D01*
X240060592Y-104211274D01*
X240324881Y-104184501D01*
X240590714Y-104183440D01*
X240828639Y-104199898D01*
X241044376Y-104231832D01*
X241249391Y-104281154D01*
X241334572Y-104307354D01*
X241416179Y-104333986D01*
X241467739Y-104354551D01*
X241493086Y-104375974D01*
X241496053Y-104405178D01*
X241480475Y-104449087D01*
X241450184Y-104514627D01*
X241449795Y-104515469D01*
X241422320Y-104580228D01*
X241404630Y-104632621D01*
X241399450Y-104664083D01*
X241401085Y-104668554D01*
X241423296Y-104682185D01*
X241470550Y-104706567D01*
X241534769Y-104737622D01*
X241575656Y-104756649D01*
X241735098Y-104829832D01*
X241796874Y-104694273D01*
X241826759Y-104631831D01*
X241852092Y-104584586D01*
X241868590Y-104560341D01*
X241871283Y-104558714D01*
X241898603Y-104569179D01*
X241947477Y-104597477D01*
X242010971Y-104638963D01*
X242082153Y-104688991D01*
X242154091Y-104742917D01*
X242196357Y-104776537D01*
X242426002Y-104986877D01*
X242626825Y-105217735D01*
X242798072Y-105466630D01*
X242938989Y-105731082D01*
X243048821Y-106008614D01*
X243126815Y-106296743D01*
X243172217Y-106592993D01*
X243184272Y-106894881D01*
X243266696Y-106894881D01*
X243254158Y-106589993D01*
X243206530Y-106286487D01*
X243123705Y-105986743D01*
X243005555Y-105692634D01*
X242993283Y-105666711D01*
X242839340Y-105385194D01*
X242659671Y-105128988D01*
X242454633Y-104898510D01*
X242224585Y-104694179D01*
X242055750Y-104571519D01*
X241994459Y-104528797D01*
X241946695Y-104492185D01*
X241919196Y-104467020D01*
X241915143Y-104460185D01*
X241922686Y-104436248D01*
X241943676Y-104385905D01*
X241975655Y-104314246D01*
X242016162Y-104226361D01*
X242062738Y-104127340D01*
X242112926Y-104022274D01*
X242164264Y-103916251D01*
X242214296Y-103814363D01*
X242260560Y-103721700D01*
X242300599Y-103643352D01*
X242331952Y-103584408D01*
X242352162Y-103549959D01*
X242358195Y-103543113D01*
X242385656Y-103550392D01*
X242431542Y-103568227D01*
X242451650Y-103577060D01*
X242525515Y-103610608D01*
X242583421Y-103263697D01*
X242606672Y-103124990D01*
X242633579Y-102965420D01*
X242661621Y-102799880D01*
X242688277Y-102643263D01*
X242703489Y-102554337D01*
X242717816Y-102469374D01*
X242636648Y-102469374D01*
X242634829Y-102498043D01*
X242627992Y-102548478D01*
X242615628Y-102625843D01*
X242603363Y-102699072D01*
X242581038Y-102831501D01*
X242562140Y-102944255D01*
X242547622Y-103031618D01*
X242539693Y-103080071D01*
X242531592Y-103127272D01*
X242521039Y-103185232D01*
X242510938Y-103238333D01*
X242504283Y-103270572D01*
X242500838Y-103292086D01*
X242494136Y-103338372D01*
X242487767Y-103383964D01*
X242476229Y-103447375D01*
X242460091Y-103478871D01*
X242433653Y-103482809D01*
X242391216Y-103463543D01*
X242386857Y-103461072D01*
X242346922Y-103441793D01*
X242321215Y-103434500D01*
X242307776Y-103449999D01*
X242281865Y-103493661D01*
X242246054Y-103560628D01*
X242202917Y-103646042D01*
X242155026Y-103745048D01*
X242141354Y-103774036D01*
X242083591Y-103896892D01*
X242021946Y-104027528D01*
X241961402Y-104155417D01*
X241906941Y-104270029D01*
X241868711Y-104350072D01*
X241825449Y-104440958D01*
X241785544Y-104525960D01*
X241752801Y-104596891D01*
X241731023Y-104645568D01*
X241727497Y-104653881D01*
X241709989Y-104690208D01*
X241690203Y-104708065D01*
X241660548Y-104707650D01*
X241613432Y-104689160D01*
X241552163Y-104658436D01*
X241515230Y-104633956D01*
X241498019Y-104611944D01*
X241497857Y-104610311D01*
X241505681Y-104585321D01*
X241526320Y-104537973D01*
X241555522Y-104477934D01*
X241559485Y-104470170D01*
X241583300Y-104422118D01*
X241619640Y-104346662D01*
X241665876Y-104249365D01*
X241719377Y-104135791D01*
X241777513Y-104011506D01*
X241837652Y-103882072D01*
X241843570Y-103869286D01*
X241900962Y-103745335D01*
X241953954Y-103631053D01*
X242000478Y-103530888D01*
X242038465Y-103449289D01*
X242065846Y-103390703D01*
X242080554Y-103359578D01*
X242081932Y-103356759D01*
X242085955Y-103333267D01*
X242066316Y-103312905D01*
X242029169Y-103293797D01*
X241984858Y-103273359D01*
X241957019Y-103259974D01*
X241953507Y-103258069D01*
X241957434Y-103241064D01*
X241980974Y-103204528D01*
X242019109Y-103155577D01*
X242054699Y-103114525D01*
X242097043Y-103066185D01*
X242146548Y-103007517D01*
X242169143Y-102980003D01*
X242207864Y-102932778D01*
X242239025Y-102895649D01*
X242250955Y-102882050D01*
X242268858Y-102861738D01*
X242305569Y-102819349D01*
X242356331Y-102760400D01*
X242416387Y-102690406D01*
X242440035Y-102662786D01*
X242501918Y-102591302D01*
X242556151Y-102530224D01*
X242598091Y-102484661D01*
X242623096Y-102459724D01*
X242627266Y-102456688D01*
X242633957Y-102457310D01*
X242636648Y-102469374D01*
X242717816Y-102469374D01*
X242722019Y-102444455D01*
X242737783Y-102347401D01*
X242749951Y-102268599D01*
X242757691Y-102213473D01*
X242760171Y-102187448D01*
X242759922Y-102186160D01*
X242746743Y-102196954D01*
D12*
X189750000Y-100400000D02*
X189750000Y-107800000D01*
X200750000Y-100400000D02*
X189750000Y-100400000D01*
X200750000Y-108600000D02*
X200750000Y-100400000D01*
X190550000Y-108600000D02*
X200750000Y-108600000D01*
X189750000Y-107800000D02*
X190550000Y-108600000D01*
X189750000Y-89900000D02*
X189750000Y-97300000D01*
X200750000Y-89900000D02*
X189750000Y-89900000D01*
X200750000Y-98100000D02*
X200750000Y-89900000D01*
X190550000Y-98100000D02*
X200750000Y-98100000D01*
X189750000Y-97300000D02*
X190550000Y-98100000D01*
D13*
X206150000Y-102500000D02*
X209850000Y-102500000D01*
X209850000Y-102500000D02*
X209850000Y-97500000D01*
X209850000Y-97500000D02*
X206150000Y-97500000D01*
X206150000Y-97500000D02*
X206150000Y-102500000D01*
X204325000Y-102850000D02*
X205800000Y-102850000D01*
D14*
X128750000Y-108750000D02*
X128750000Y-108750000D01*
X128750000Y-108750000D02*
X132010000Y-108750000D01*
X132010000Y-108750000D02*
X132010000Y-108750000D01*
X132010000Y-108750000D02*
X128750000Y-108750000D01*
X132010000Y-108750000D02*
X132010000Y-106500000D01*
X132010000Y-106500000D02*
X132000000Y-106500000D01*
X132000000Y-106500000D02*
X132000000Y-108750000D01*
X132000000Y-108750000D02*
X132010000Y-108750000D01*
X132000000Y-104000000D02*
X132000000Y-103500000D01*
X132000000Y-103500000D02*
X132000000Y-103500000D01*
X132000000Y-103500000D02*
X132000000Y-104000000D01*
X132000000Y-104000000D02*
X132000000Y-104000000D01*
X132010000Y-101000000D02*
X132010000Y-100500000D01*
X132010000Y-100500000D02*
X132010000Y-100500000D01*
X132010000Y-100500000D02*
X132010000Y-101000000D01*
X132010000Y-101000000D02*
X132010000Y-101000000D01*
X132000000Y-98000000D02*
X132000000Y-95750000D01*
X132000000Y-95750000D02*
X132000000Y-95750000D01*
X132000000Y-95750000D02*
X132000000Y-98000000D01*
X132000000Y-98000000D02*
X132000000Y-98000000D01*
X132000000Y-95750000D02*
X132000000Y-95750000D01*
X132000000Y-95750000D02*
X128750000Y-95750000D01*
X128750000Y-95750000D02*
X128750000Y-95750000D01*
X128750000Y-95750000D02*
X132000000Y-95750000D01*
X125750000Y-95750000D02*
X125750000Y-95750000D01*
X125750000Y-95750000D02*
X122500000Y-95750000D01*
X122500000Y-95750000D02*
X122500000Y-95750000D01*
X122500000Y-95750000D02*
X125750000Y-95750000D01*
X122500000Y-95750000D02*
X122500000Y-108750000D01*
X122500000Y-108750000D02*
X122500000Y-108750000D01*
X122500000Y-108750000D02*
X122500000Y-95750000D01*
X122500000Y-95750000D02*
X122500000Y-95750000D01*
X122500000Y-108750000D02*
X122500000Y-108750000D01*
X122500000Y-108750000D02*
X125750000Y-108750000D01*
X125750000Y-108750000D02*
X125750000Y-108750000D01*
X125750000Y-108750000D02*
X122500000Y-108750000D01*
D13*
X135450000Y-99250000D02*
X135450000Y-99250000D01*
X135350000Y-99250000D02*
X135350000Y-99250000D01*
X135450000Y-99250000D02*
X135450000Y-99250000D01*
X135350000Y-99250000D02*
G75*
G03X135450000Y-99250000I50000J0D01*
G01*
X135450000Y-99250000D02*
G75*
G03X135350000Y-99250000I-50000J0D01*
G01*
X135350000Y-99250000D02*
G75*
G03X135450000Y-99250000I50000J0D01*
G01*
D10*
X197940476Y-109766666D02*
X197464285Y-109766666D01*
X198035714Y-110052380D02*
X197702380Y-109052380D01*
X197369047Y-110052380D01*
X196702380Y-109528571D02*
X196559523Y-109576190D01*
X196511904Y-109623809D01*
X196464285Y-109719047D01*
X196464285Y-109861904D01*
X196511904Y-109957142D01*
X196559523Y-110004761D01*
X196654761Y-110052380D01*
X197035714Y-110052380D01*
X197035714Y-109052380D01*
X196702380Y-109052380D01*
X196607142Y-109100000D01*
X196559523Y-109147619D01*
X196511904Y-109242857D01*
X196511904Y-109338095D01*
X196559523Y-109433333D01*
X196607142Y-109480952D01*
X196702380Y-109528571D01*
X197035714Y-109528571D01*
X196035714Y-110052380D02*
X196035714Y-109052380D01*
X195654761Y-109052380D01*
X195559523Y-109100000D01*
X195511904Y-109147619D01*
X195464285Y-109242857D01*
X195464285Y-109385714D01*
X195511904Y-109480952D01*
X195559523Y-109528571D01*
X195654761Y-109576190D01*
X196035714Y-109576190D01*
X195083333Y-109147619D02*
X195035714Y-109100000D01*
X194940476Y-109052380D01*
X194702380Y-109052380D01*
X194607142Y-109100000D01*
X194559523Y-109147619D01*
X194511904Y-109242857D01*
X194511904Y-109338095D01*
X194559523Y-109480952D01*
X195130952Y-110052380D01*
X194511904Y-110052380D01*
X194083333Y-110052380D02*
X194083333Y-109052380D01*
X193845238Y-109052380D01*
X193702380Y-109100000D01*
X193607142Y-109195238D01*
X193559523Y-109290476D01*
X193511904Y-109480952D01*
X193511904Y-109623809D01*
X193559523Y-109814285D01*
X193607142Y-109909523D01*
X193702380Y-110004761D01*
X193845238Y-110052380D01*
X194083333Y-110052380D01*
X192892857Y-109052380D02*
X192797619Y-109052380D01*
X192702380Y-109100000D01*
X192654761Y-109147619D01*
X192607142Y-109242857D01*
X192559523Y-109433333D01*
X192559523Y-109671428D01*
X192607142Y-109861904D01*
X192654761Y-109957142D01*
X192702380Y-110004761D01*
X192797619Y-110052380D01*
X192892857Y-110052380D01*
X192988095Y-110004761D01*
X193035714Y-109957142D01*
X193083333Y-109861904D01*
X193130952Y-109671428D01*
X193130952Y-109433333D01*
X193083333Y-109242857D01*
X193035714Y-109147619D01*
X192988095Y-109100000D01*
X192892857Y-109052380D01*
X197940476Y-99266666D02*
X197464285Y-99266666D01*
X198035714Y-99552380D02*
X197702380Y-98552380D01*
X197369047Y-99552380D01*
X196702380Y-99028571D02*
X196559523Y-99076190D01*
X196511904Y-99123809D01*
X196464285Y-99219047D01*
X196464285Y-99361904D01*
X196511904Y-99457142D01*
X196559523Y-99504761D01*
X196654761Y-99552380D01*
X197035714Y-99552380D01*
X197035714Y-98552380D01*
X196702380Y-98552380D01*
X196607142Y-98600000D01*
X196559523Y-98647619D01*
X196511904Y-98742857D01*
X196511904Y-98838095D01*
X196559523Y-98933333D01*
X196607142Y-98980952D01*
X196702380Y-99028571D01*
X197035714Y-99028571D01*
X196035714Y-99552380D02*
X196035714Y-98552380D01*
X195654761Y-98552380D01*
X195559523Y-98600000D01*
X195511904Y-98647619D01*
X195464285Y-98742857D01*
X195464285Y-98885714D01*
X195511904Y-98980952D01*
X195559523Y-99028571D01*
X195654761Y-99076190D01*
X196035714Y-99076190D01*
X195083333Y-98647619D02*
X195035714Y-98600000D01*
X194940476Y-98552380D01*
X194702380Y-98552380D01*
X194607142Y-98600000D01*
X194559523Y-98647619D01*
X194511904Y-98742857D01*
X194511904Y-98838095D01*
X194559523Y-98980952D01*
X195130952Y-99552380D01*
X194511904Y-99552380D01*
X194083333Y-99552380D02*
X194083333Y-98552380D01*
X193845238Y-98552380D01*
X193702380Y-98600000D01*
X193607142Y-98695238D01*
X193559523Y-98790476D01*
X193511904Y-98980952D01*
X193511904Y-99123809D01*
X193559523Y-99314285D01*
X193607142Y-99409523D01*
X193702380Y-99504761D01*
X193845238Y-99552380D01*
X194083333Y-99552380D01*
X192559523Y-99552380D02*
X193130952Y-99552380D01*
X192845238Y-99552380D02*
X192845238Y-98552380D01*
X192940476Y-98695238D01*
X193035714Y-98790476D01*
X193130952Y-98838095D01*
D15*
X209239761Y-104324523D02*
X209239761Y-103054523D01*
X207909285Y-104203571D02*
X207969761Y-104264047D01*
X208151190Y-104324523D01*
X208272142Y-104324523D01*
X208453571Y-104264047D01*
X208574523Y-104143095D01*
X208635000Y-104022142D01*
X208695476Y-103780238D01*
X208695476Y-103598809D01*
X208635000Y-103356904D01*
X208574523Y-103235952D01*
X208453571Y-103115000D01*
X208272142Y-103054523D01*
X208151190Y-103054523D01*
X207969761Y-103115000D01*
X207909285Y-103175476D01*
X206699761Y-104324523D02*
X207425476Y-104324523D01*
X207062619Y-104324523D02*
X207062619Y-103054523D01*
X207183571Y-103235952D01*
X207304523Y-103356904D01*
X207425476Y-103417380D01*
X123923333Y-93804523D02*
X123923333Y-94711666D01*
X123983809Y-94893095D01*
X124104761Y-95014047D01*
X124286190Y-95074523D01*
X124407142Y-95074523D01*
X123379047Y-93925476D02*
X123318571Y-93865000D01*
X123197619Y-93804523D01*
X122895238Y-93804523D01*
X122774285Y-93865000D01*
X122713809Y-93925476D01*
X122653333Y-94046428D01*
X122653333Y-94167380D01*
X122713809Y-94348809D01*
X123439523Y-95074523D01*
X122653333Y-95074523D01*
M02*
